%TF.GenerationSoftware,KiCad,Pcbnew,7.0.8*%
%TF.CreationDate,2023-11-09T10:37:01-05:00*%
%TF.ProjectId,mecc-pcb-kicad,6d656363-2d70-4636-922d-6b696361642e,v1*%
%TF.SameCoordinates,Original*%
%TF.FileFunction,Drillmap*%
%TF.FilePolarity,Positive*%
%FSLAX45Y45*%
G04 Gerber Fmt 4.5, Leading zero omitted, Abs format (unit mm)*
G04 Created by KiCad (PCBNEW 7.0.8) date 2023-11-09 10:37:01*
%MOMM*%
%LPD*%
G01*
G04 APERTURE LIST*
%ADD10C,0.100000*%
%ADD11C,0.200000*%
%ADD12C,0.325000*%
G04 APERTURE END LIST*
D10*
X29294864Y-8000000D02*
X7635000Y-8000000D01*
X29407113Y-20999997D02*
G75*
G03*
X29999996Y-20407112I-4J592887D01*
G01*
X29407113Y-21000000D02*
X7600000Y-21000000D01*
X7635000Y-8000000D02*
G75*
G03*
X7000000Y-8635000I0J-635000D01*
G01*
X7000000Y-20400000D02*
X7000000Y-8635000D01*
X7000000Y-20400000D02*
G75*
G03*
X7600000Y-21000000I600000J0D01*
G01*
X30009240Y-8714375D02*
G75*
G03*
X29294864Y-8000000I-714380J-5D01*
G01*
X30009239Y-8714375D02*
X29999996Y-20407112D01*
D11*
D12*
X8023500Y-14616500D02*
X8348500Y-14941500D01*
X8348500Y-14616500D02*
X8023500Y-14941500D01*
X8023500Y-15886500D02*
X8348500Y-16211500D01*
X8348500Y-15886500D02*
X8023500Y-16211500D01*
D11*
X7255777Y-21316484D02*
X7255777Y-21116484D01*
X7255777Y-21116484D02*
X7303396Y-21116484D01*
X7303396Y-21116484D02*
X7331967Y-21126008D01*
X7331967Y-21126008D02*
X7351015Y-21145055D01*
X7351015Y-21145055D02*
X7360539Y-21164103D01*
X7360539Y-21164103D02*
X7370062Y-21202198D01*
X7370062Y-21202198D02*
X7370062Y-21230770D01*
X7370062Y-21230770D02*
X7360539Y-21268865D01*
X7360539Y-21268865D02*
X7351015Y-21287912D01*
X7351015Y-21287912D02*
X7331967Y-21306960D01*
X7331967Y-21306960D02*
X7303396Y-21316484D01*
X7303396Y-21316484D02*
X7255777Y-21316484D01*
X7455777Y-21316484D02*
X7455777Y-21183150D01*
X7455777Y-21221246D02*
X7465301Y-21202198D01*
X7465301Y-21202198D02*
X7474824Y-21192674D01*
X7474824Y-21192674D02*
X7493872Y-21183150D01*
X7493872Y-21183150D02*
X7512920Y-21183150D01*
X7579586Y-21316484D02*
X7579586Y-21183150D01*
X7579586Y-21116484D02*
X7570062Y-21126008D01*
X7570062Y-21126008D02*
X7579586Y-21135531D01*
X7579586Y-21135531D02*
X7589110Y-21126008D01*
X7589110Y-21126008D02*
X7579586Y-21116484D01*
X7579586Y-21116484D02*
X7579586Y-21135531D01*
X7703396Y-21316484D02*
X7684348Y-21306960D01*
X7684348Y-21306960D02*
X7674824Y-21287912D01*
X7674824Y-21287912D02*
X7674824Y-21116484D01*
X7808158Y-21316484D02*
X7789110Y-21306960D01*
X7789110Y-21306960D02*
X7779586Y-21287912D01*
X7779586Y-21287912D02*
X7779586Y-21116484D01*
X8036729Y-21316484D02*
X8036729Y-21116484D01*
X8036729Y-21116484D02*
X8103396Y-21259341D01*
X8103396Y-21259341D02*
X8170062Y-21116484D01*
X8170062Y-21116484D02*
X8170062Y-21316484D01*
X8351015Y-21316484D02*
X8351015Y-21211722D01*
X8351015Y-21211722D02*
X8341491Y-21192674D01*
X8341491Y-21192674D02*
X8322443Y-21183150D01*
X8322443Y-21183150D02*
X8284348Y-21183150D01*
X8284348Y-21183150D02*
X8265301Y-21192674D01*
X8351015Y-21306960D02*
X8331967Y-21316484D01*
X8331967Y-21316484D02*
X8284348Y-21316484D01*
X8284348Y-21316484D02*
X8265301Y-21306960D01*
X8265301Y-21306960D02*
X8255777Y-21287912D01*
X8255777Y-21287912D02*
X8255777Y-21268865D01*
X8255777Y-21268865D02*
X8265301Y-21249817D01*
X8265301Y-21249817D02*
X8284348Y-21240293D01*
X8284348Y-21240293D02*
X8331967Y-21240293D01*
X8331967Y-21240293D02*
X8351015Y-21230770D01*
X8446253Y-21183150D02*
X8446253Y-21383150D01*
X8446253Y-21192674D02*
X8465301Y-21183150D01*
X8465301Y-21183150D02*
X8503396Y-21183150D01*
X8503396Y-21183150D02*
X8522444Y-21192674D01*
X8522444Y-21192674D02*
X8531967Y-21202198D01*
X8531967Y-21202198D02*
X8541491Y-21221246D01*
X8541491Y-21221246D02*
X8541491Y-21278389D01*
X8541491Y-21278389D02*
X8531967Y-21297436D01*
X8531967Y-21297436D02*
X8522444Y-21306960D01*
X8522444Y-21306960D02*
X8503396Y-21316484D01*
X8503396Y-21316484D02*
X8465301Y-21316484D01*
X8465301Y-21316484D02*
X8446253Y-21306960D01*
X8627205Y-21297436D02*
X8636729Y-21306960D01*
X8636729Y-21306960D02*
X8627205Y-21316484D01*
X8627205Y-21316484D02*
X8617682Y-21306960D01*
X8617682Y-21306960D02*
X8627205Y-21297436D01*
X8627205Y-21297436D02*
X8627205Y-21316484D01*
X8627205Y-21192674D02*
X8636729Y-21202198D01*
X8636729Y-21202198D02*
X8627205Y-21211722D01*
X8627205Y-21211722D02*
X8617682Y-21202198D01*
X8617682Y-21202198D02*
X8627205Y-21192674D01*
X8627205Y-21192674D02*
X8627205Y-21211722D01*
X6795000Y-21545000D02*
X6995000Y-21745000D01*
X6995000Y-21545000D02*
X6795000Y-21745000D01*
X7236729Y-21536484D02*
X7360539Y-21536484D01*
X7360539Y-21536484D02*
X7293872Y-21612674D01*
X7293872Y-21612674D02*
X7322443Y-21612674D01*
X7322443Y-21612674D02*
X7341491Y-21622198D01*
X7341491Y-21622198D02*
X7351015Y-21631722D01*
X7351015Y-21631722D02*
X7360539Y-21650770D01*
X7360539Y-21650770D02*
X7360539Y-21698389D01*
X7360539Y-21698389D02*
X7351015Y-21717436D01*
X7351015Y-21717436D02*
X7341491Y-21726960D01*
X7341491Y-21726960D02*
X7322443Y-21736484D01*
X7322443Y-21736484D02*
X7265301Y-21736484D01*
X7265301Y-21736484D02*
X7246253Y-21726960D01*
X7246253Y-21726960D02*
X7236729Y-21717436D01*
X7446253Y-21717436D02*
X7455777Y-21726960D01*
X7455777Y-21726960D02*
X7446253Y-21736484D01*
X7446253Y-21736484D02*
X7436729Y-21726960D01*
X7436729Y-21726960D02*
X7446253Y-21717436D01*
X7446253Y-21717436D02*
X7446253Y-21736484D01*
X7531967Y-21555531D02*
X7541491Y-21546008D01*
X7541491Y-21546008D02*
X7560539Y-21536484D01*
X7560539Y-21536484D02*
X7608158Y-21536484D01*
X7608158Y-21536484D02*
X7627205Y-21546008D01*
X7627205Y-21546008D02*
X7636729Y-21555531D01*
X7636729Y-21555531D02*
X7646253Y-21574579D01*
X7646253Y-21574579D02*
X7646253Y-21593627D01*
X7646253Y-21593627D02*
X7636729Y-21622198D01*
X7636729Y-21622198D02*
X7522443Y-21736484D01*
X7522443Y-21736484D02*
X7646253Y-21736484D01*
X7827205Y-21536484D02*
X7731967Y-21536484D01*
X7731967Y-21536484D02*
X7722443Y-21631722D01*
X7722443Y-21631722D02*
X7731967Y-21622198D01*
X7731967Y-21622198D02*
X7751015Y-21612674D01*
X7751015Y-21612674D02*
X7798634Y-21612674D01*
X7798634Y-21612674D02*
X7817682Y-21622198D01*
X7817682Y-21622198D02*
X7827205Y-21631722D01*
X7827205Y-21631722D02*
X7836729Y-21650770D01*
X7836729Y-21650770D02*
X7836729Y-21698389D01*
X7836729Y-21698389D02*
X7827205Y-21717436D01*
X7827205Y-21717436D02*
X7817682Y-21726960D01*
X7817682Y-21726960D02*
X7798634Y-21736484D01*
X7798634Y-21736484D02*
X7751015Y-21736484D01*
X7751015Y-21736484D02*
X7731967Y-21726960D01*
X7731967Y-21726960D02*
X7722443Y-21717436D01*
X7960539Y-21536484D02*
X7979586Y-21536484D01*
X7979586Y-21536484D02*
X7998634Y-21546008D01*
X7998634Y-21546008D02*
X8008158Y-21555531D01*
X8008158Y-21555531D02*
X8017682Y-21574579D01*
X8017682Y-21574579D02*
X8027205Y-21612674D01*
X8027205Y-21612674D02*
X8027205Y-21660293D01*
X8027205Y-21660293D02*
X8017682Y-21698389D01*
X8017682Y-21698389D02*
X8008158Y-21717436D01*
X8008158Y-21717436D02*
X7998634Y-21726960D01*
X7998634Y-21726960D02*
X7979586Y-21736484D01*
X7979586Y-21736484D02*
X7960539Y-21736484D01*
X7960539Y-21736484D02*
X7941491Y-21726960D01*
X7941491Y-21726960D02*
X7931967Y-21717436D01*
X7931967Y-21717436D02*
X7922443Y-21698389D01*
X7922443Y-21698389D02*
X7912920Y-21660293D01*
X7912920Y-21660293D02*
X7912920Y-21612674D01*
X7912920Y-21612674D02*
X7922443Y-21574579D01*
X7922443Y-21574579D02*
X7931967Y-21555531D01*
X7931967Y-21555531D02*
X7941491Y-21546008D01*
X7941491Y-21546008D02*
X7960539Y-21536484D01*
X8112920Y-21736484D02*
X8112920Y-21603150D01*
X8112920Y-21622198D02*
X8122443Y-21612674D01*
X8122443Y-21612674D02*
X8141491Y-21603150D01*
X8141491Y-21603150D02*
X8170063Y-21603150D01*
X8170063Y-21603150D02*
X8189110Y-21612674D01*
X8189110Y-21612674D02*
X8198634Y-21631722D01*
X8198634Y-21631722D02*
X8198634Y-21736484D01*
X8198634Y-21631722D02*
X8208158Y-21612674D01*
X8208158Y-21612674D02*
X8227205Y-21603150D01*
X8227205Y-21603150D02*
X8255777Y-21603150D01*
X8255777Y-21603150D02*
X8274824Y-21612674D01*
X8274824Y-21612674D02*
X8284348Y-21631722D01*
X8284348Y-21631722D02*
X8284348Y-21736484D01*
X8379586Y-21736484D02*
X8379586Y-21603150D01*
X8379586Y-21622198D02*
X8389110Y-21612674D01*
X8389110Y-21612674D02*
X8408158Y-21603150D01*
X8408158Y-21603150D02*
X8436729Y-21603150D01*
X8436729Y-21603150D02*
X8455777Y-21612674D01*
X8455777Y-21612674D02*
X8465301Y-21631722D01*
X8465301Y-21631722D02*
X8465301Y-21736484D01*
X8465301Y-21631722D02*
X8474825Y-21612674D01*
X8474825Y-21612674D02*
X8493872Y-21603150D01*
X8493872Y-21603150D02*
X8522444Y-21603150D01*
X8522444Y-21603150D02*
X8541491Y-21612674D01*
X8541491Y-21612674D02*
X8551015Y-21631722D01*
X8551015Y-21631722D02*
X8551015Y-21736484D01*
X8941491Y-21526960D02*
X8770063Y-21784103D01*
X9198634Y-21536484D02*
X9217682Y-21536484D01*
X9217682Y-21536484D02*
X9236729Y-21546008D01*
X9236729Y-21546008D02*
X9246253Y-21555531D01*
X9246253Y-21555531D02*
X9255777Y-21574579D01*
X9255777Y-21574579D02*
X9265301Y-21612674D01*
X9265301Y-21612674D02*
X9265301Y-21660293D01*
X9265301Y-21660293D02*
X9255777Y-21698389D01*
X9255777Y-21698389D02*
X9246253Y-21717436D01*
X9246253Y-21717436D02*
X9236729Y-21726960D01*
X9236729Y-21726960D02*
X9217682Y-21736484D01*
X9217682Y-21736484D02*
X9198634Y-21736484D01*
X9198634Y-21736484D02*
X9179587Y-21726960D01*
X9179587Y-21726960D02*
X9170063Y-21717436D01*
X9170063Y-21717436D02*
X9160539Y-21698389D01*
X9160539Y-21698389D02*
X9151015Y-21660293D01*
X9151015Y-21660293D02*
X9151015Y-21612674D01*
X9151015Y-21612674D02*
X9160539Y-21574579D01*
X9160539Y-21574579D02*
X9170063Y-21555531D01*
X9170063Y-21555531D02*
X9179587Y-21546008D01*
X9179587Y-21546008D02*
X9198634Y-21536484D01*
X9351015Y-21717436D02*
X9360539Y-21726960D01*
X9360539Y-21726960D02*
X9351015Y-21736484D01*
X9351015Y-21736484D02*
X9341491Y-21726960D01*
X9341491Y-21726960D02*
X9351015Y-21717436D01*
X9351015Y-21717436D02*
X9351015Y-21736484D01*
X9551015Y-21736484D02*
X9436729Y-21736484D01*
X9493872Y-21736484D02*
X9493872Y-21536484D01*
X9493872Y-21536484D02*
X9474825Y-21565055D01*
X9474825Y-21565055D02*
X9455777Y-21584103D01*
X9455777Y-21584103D02*
X9436729Y-21593627D01*
X9627206Y-21555531D02*
X9636729Y-21546008D01*
X9636729Y-21546008D02*
X9655777Y-21536484D01*
X9655777Y-21536484D02*
X9703396Y-21536484D01*
X9703396Y-21536484D02*
X9722444Y-21546008D01*
X9722444Y-21546008D02*
X9731968Y-21555531D01*
X9731968Y-21555531D02*
X9741491Y-21574579D01*
X9741491Y-21574579D02*
X9741491Y-21593627D01*
X9741491Y-21593627D02*
X9731968Y-21622198D01*
X9731968Y-21622198D02*
X9617682Y-21736484D01*
X9617682Y-21736484D02*
X9741491Y-21736484D01*
X9855777Y-21622198D02*
X9836729Y-21612674D01*
X9836729Y-21612674D02*
X9827206Y-21603150D01*
X9827206Y-21603150D02*
X9817682Y-21584103D01*
X9817682Y-21584103D02*
X9817682Y-21574579D01*
X9817682Y-21574579D02*
X9827206Y-21555531D01*
X9827206Y-21555531D02*
X9836729Y-21546008D01*
X9836729Y-21546008D02*
X9855777Y-21536484D01*
X9855777Y-21536484D02*
X9893872Y-21536484D01*
X9893872Y-21536484D02*
X9912920Y-21546008D01*
X9912920Y-21546008D02*
X9922444Y-21555531D01*
X9922444Y-21555531D02*
X9931968Y-21574579D01*
X9931968Y-21574579D02*
X9931968Y-21584103D01*
X9931968Y-21584103D02*
X9922444Y-21603150D01*
X9922444Y-21603150D02*
X9912920Y-21612674D01*
X9912920Y-21612674D02*
X9893872Y-21622198D01*
X9893872Y-21622198D02*
X9855777Y-21622198D01*
X9855777Y-21622198D02*
X9836729Y-21631722D01*
X9836729Y-21631722D02*
X9827206Y-21641246D01*
X9827206Y-21641246D02*
X9817682Y-21660293D01*
X9817682Y-21660293D02*
X9817682Y-21698389D01*
X9817682Y-21698389D02*
X9827206Y-21717436D01*
X9827206Y-21717436D02*
X9836729Y-21726960D01*
X9836729Y-21726960D02*
X9855777Y-21736484D01*
X9855777Y-21736484D02*
X9893872Y-21736484D01*
X9893872Y-21736484D02*
X9912920Y-21726960D01*
X9912920Y-21726960D02*
X9922444Y-21717436D01*
X9922444Y-21717436D02*
X9931968Y-21698389D01*
X9931968Y-21698389D02*
X9931968Y-21660293D01*
X9931968Y-21660293D02*
X9922444Y-21641246D01*
X9922444Y-21641246D02*
X9912920Y-21631722D01*
X9912920Y-21631722D02*
X9893872Y-21622198D01*
X10055777Y-21536484D02*
X10074825Y-21536484D01*
X10074825Y-21536484D02*
X10093872Y-21546008D01*
X10093872Y-21546008D02*
X10103396Y-21555531D01*
X10103396Y-21555531D02*
X10112920Y-21574579D01*
X10112920Y-21574579D02*
X10122444Y-21612674D01*
X10122444Y-21612674D02*
X10122444Y-21660293D01*
X10122444Y-21660293D02*
X10112920Y-21698389D01*
X10112920Y-21698389D02*
X10103396Y-21717436D01*
X10103396Y-21717436D02*
X10093872Y-21726960D01*
X10093872Y-21726960D02*
X10074825Y-21736484D01*
X10074825Y-21736484D02*
X10055777Y-21736484D01*
X10055777Y-21736484D02*
X10036729Y-21726960D01*
X10036729Y-21726960D02*
X10027206Y-21717436D01*
X10027206Y-21717436D02*
X10017682Y-21698389D01*
X10017682Y-21698389D02*
X10008158Y-21660293D01*
X10008158Y-21660293D02*
X10008158Y-21612674D01*
X10008158Y-21612674D02*
X10017682Y-21574579D01*
X10017682Y-21574579D02*
X10027206Y-21555531D01*
X10027206Y-21555531D02*
X10036729Y-21546008D01*
X10036729Y-21546008D02*
X10055777Y-21536484D01*
X10198634Y-21536484D02*
X10198634Y-21574579D01*
X10274825Y-21536484D02*
X10274825Y-21574579D01*
X10570063Y-21812674D02*
X10560539Y-21803150D01*
X10560539Y-21803150D02*
X10541491Y-21774579D01*
X10541491Y-21774579D02*
X10531968Y-21755531D01*
X10531968Y-21755531D02*
X10522444Y-21726960D01*
X10522444Y-21726960D02*
X10512920Y-21679341D01*
X10512920Y-21679341D02*
X10512920Y-21641246D01*
X10512920Y-21641246D02*
X10522444Y-21593627D01*
X10522444Y-21593627D02*
X10531968Y-21565055D01*
X10531968Y-21565055D02*
X10541491Y-21546008D01*
X10541491Y-21546008D02*
X10560539Y-21517436D01*
X10560539Y-21517436D02*
X10570063Y-21507912D01*
X10636730Y-21555531D02*
X10646253Y-21546008D01*
X10646253Y-21546008D02*
X10665301Y-21536484D01*
X10665301Y-21536484D02*
X10712920Y-21536484D01*
X10712920Y-21536484D02*
X10731968Y-21546008D01*
X10731968Y-21546008D02*
X10741491Y-21555531D01*
X10741491Y-21555531D02*
X10751015Y-21574579D01*
X10751015Y-21574579D02*
X10751015Y-21593627D01*
X10751015Y-21593627D02*
X10741491Y-21622198D01*
X10741491Y-21622198D02*
X10627206Y-21736484D01*
X10627206Y-21736484D02*
X10751015Y-21736484D01*
X10989111Y-21736484D02*
X10989111Y-21536484D01*
X11074825Y-21736484D02*
X11074825Y-21631722D01*
X11074825Y-21631722D02*
X11065301Y-21612674D01*
X11065301Y-21612674D02*
X11046253Y-21603150D01*
X11046253Y-21603150D02*
X11017682Y-21603150D01*
X11017682Y-21603150D02*
X10998634Y-21612674D01*
X10998634Y-21612674D02*
X10989111Y-21622198D01*
X11198634Y-21736484D02*
X11179587Y-21726960D01*
X11179587Y-21726960D02*
X11170063Y-21717436D01*
X11170063Y-21717436D02*
X11160539Y-21698389D01*
X11160539Y-21698389D02*
X11160539Y-21641246D01*
X11160539Y-21641246D02*
X11170063Y-21622198D01*
X11170063Y-21622198D02*
X11179587Y-21612674D01*
X11179587Y-21612674D02*
X11198634Y-21603150D01*
X11198634Y-21603150D02*
X11227206Y-21603150D01*
X11227206Y-21603150D02*
X11246253Y-21612674D01*
X11246253Y-21612674D02*
X11255777Y-21622198D01*
X11255777Y-21622198D02*
X11265301Y-21641246D01*
X11265301Y-21641246D02*
X11265301Y-21698389D01*
X11265301Y-21698389D02*
X11255777Y-21717436D01*
X11255777Y-21717436D02*
X11246253Y-21726960D01*
X11246253Y-21726960D02*
X11227206Y-21736484D01*
X11227206Y-21736484D02*
X11198634Y-21736484D01*
X11379587Y-21736484D02*
X11360539Y-21726960D01*
X11360539Y-21726960D02*
X11351015Y-21707912D01*
X11351015Y-21707912D02*
X11351015Y-21536484D01*
X11531968Y-21726960D02*
X11512920Y-21736484D01*
X11512920Y-21736484D02*
X11474825Y-21736484D01*
X11474825Y-21736484D02*
X11455777Y-21726960D01*
X11455777Y-21726960D02*
X11446253Y-21707912D01*
X11446253Y-21707912D02*
X11446253Y-21631722D01*
X11446253Y-21631722D02*
X11455777Y-21612674D01*
X11455777Y-21612674D02*
X11474825Y-21603150D01*
X11474825Y-21603150D02*
X11512920Y-21603150D01*
X11512920Y-21603150D02*
X11531968Y-21612674D01*
X11531968Y-21612674D02*
X11541491Y-21631722D01*
X11541491Y-21631722D02*
X11541491Y-21650770D01*
X11541491Y-21650770D02*
X11446253Y-21669817D01*
X11617682Y-21726960D02*
X11636730Y-21736484D01*
X11636730Y-21736484D02*
X11674825Y-21736484D01*
X11674825Y-21736484D02*
X11693872Y-21726960D01*
X11693872Y-21726960D02*
X11703396Y-21707912D01*
X11703396Y-21707912D02*
X11703396Y-21698389D01*
X11703396Y-21698389D02*
X11693872Y-21679341D01*
X11693872Y-21679341D02*
X11674825Y-21669817D01*
X11674825Y-21669817D02*
X11646253Y-21669817D01*
X11646253Y-21669817D02*
X11627206Y-21660293D01*
X11627206Y-21660293D02*
X11617682Y-21641246D01*
X11617682Y-21641246D02*
X11617682Y-21631722D01*
X11617682Y-21631722D02*
X11627206Y-21612674D01*
X11627206Y-21612674D02*
X11646253Y-21603150D01*
X11646253Y-21603150D02*
X11674825Y-21603150D01*
X11674825Y-21603150D02*
X11693872Y-21612674D01*
X11770063Y-21812674D02*
X11779587Y-21803150D01*
X11779587Y-21803150D02*
X11798634Y-21774579D01*
X11798634Y-21774579D02*
X11808158Y-21755531D01*
X11808158Y-21755531D02*
X11817682Y-21726960D01*
X11817682Y-21726960D02*
X11827206Y-21679341D01*
X11827206Y-21679341D02*
X11827206Y-21641246D01*
X11827206Y-21641246D02*
X11817682Y-21593627D01*
X11817682Y-21593627D02*
X11808158Y-21565055D01*
X11808158Y-21565055D02*
X11798634Y-21546008D01*
X11798634Y-21546008D02*
X11779587Y-21517436D01*
X11779587Y-21517436D02*
X11770063Y-21507912D01*
X12131968Y-21812674D02*
X12122444Y-21803150D01*
X12122444Y-21803150D02*
X12103396Y-21774579D01*
X12103396Y-21774579D02*
X12093872Y-21755531D01*
X12093872Y-21755531D02*
X12084349Y-21726960D01*
X12084349Y-21726960D02*
X12074825Y-21679341D01*
X12074825Y-21679341D02*
X12074825Y-21641246D01*
X12074825Y-21641246D02*
X12084349Y-21593627D01*
X12084349Y-21593627D02*
X12093872Y-21565055D01*
X12093872Y-21565055D02*
X12103396Y-21546008D01*
X12103396Y-21546008D02*
X12122444Y-21517436D01*
X12122444Y-21517436D02*
X12131968Y-21507912D01*
X12208158Y-21603150D02*
X12208158Y-21736484D01*
X12208158Y-21622198D02*
X12217682Y-21612674D01*
X12217682Y-21612674D02*
X12236730Y-21603150D01*
X12236730Y-21603150D02*
X12265301Y-21603150D01*
X12265301Y-21603150D02*
X12284349Y-21612674D01*
X12284349Y-21612674D02*
X12293872Y-21631722D01*
X12293872Y-21631722D02*
X12293872Y-21736484D01*
X12417682Y-21736484D02*
X12398634Y-21726960D01*
X12398634Y-21726960D02*
X12389111Y-21717436D01*
X12389111Y-21717436D02*
X12379587Y-21698389D01*
X12379587Y-21698389D02*
X12379587Y-21641246D01*
X12379587Y-21641246D02*
X12389111Y-21622198D01*
X12389111Y-21622198D02*
X12398634Y-21612674D01*
X12398634Y-21612674D02*
X12417682Y-21603150D01*
X12417682Y-21603150D02*
X12446253Y-21603150D01*
X12446253Y-21603150D02*
X12465301Y-21612674D01*
X12465301Y-21612674D02*
X12474825Y-21622198D01*
X12474825Y-21622198D02*
X12484349Y-21641246D01*
X12484349Y-21641246D02*
X12484349Y-21698389D01*
X12484349Y-21698389D02*
X12474825Y-21717436D01*
X12474825Y-21717436D02*
X12465301Y-21726960D01*
X12465301Y-21726960D02*
X12446253Y-21736484D01*
X12446253Y-21736484D02*
X12417682Y-21736484D01*
X12541492Y-21603150D02*
X12617682Y-21603150D01*
X12570063Y-21536484D02*
X12570063Y-21707912D01*
X12570063Y-21707912D02*
X12579587Y-21726960D01*
X12579587Y-21726960D02*
X12598634Y-21736484D01*
X12598634Y-21736484D02*
X12617682Y-21736484D01*
X12836730Y-21603150D02*
X12836730Y-21803150D01*
X12836730Y-21612674D02*
X12855777Y-21603150D01*
X12855777Y-21603150D02*
X12893873Y-21603150D01*
X12893873Y-21603150D02*
X12912920Y-21612674D01*
X12912920Y-21612674D02*
X12922444Y-21622198D01*
X12922444Y-21622198D02*
X12931968Y-21641246D01*
X12931968Y-21641246D02*
X12931968Y-21698389D01*
X12931968Y-21698389D02*
X12922444Y-21717436D01*
X12922444Y-21717436D02*
X12912920Y-21726960D01*
X12912920Y-21726960D02*
X12893873Y-21736484D01*
X12893873Y-21736484D02*
X12855777Y-21736484D01*
X12855777Y-21736484D02*
X12836730Y-21726960D01*
X13046253Y-21736484D02*
X13027206Y-21726960D01*
X13027206Y-21726960D02*
X13017682Y-21707912D01*
X13017682Y-21707912D02*
X13017682Y-21536484D01*
X13208158Y-21736484D02*
X13208158Y-21631722D01*
X13208158Y-21631722D02*
X13198634Y-21612674D01*
X13198634Y-21612674D02*
X13179587Y-21603150D01*
X13179587Y-21603150D02*
X13141492Y-21603150D01*
X13141492Y-21603150D02*
X13122444Y-21612674D01*
X13208158Y-21726960D02*
X13189111Y-21736484D01*
X13189111Y-21736484D02*
X13141492Y-21736484D01*
X13141492Y-21736484D02*
X13122444Y-21726960D01*
X13122444Y-21726960D02*
X13112920Y-21707912D01*
X13112920Y-21707912D02*
X13112920Y-21688865D01*
X13112920Y-21688865D02*
X13122444Y-21669817D01*
X13122444Y-21669817D02*
X13141492Y-21660293D01*
X13141492Y-21660293D02*
X13189111Y-21660293D01*
X13189111Y-21660293D02*
X13208158Y-21650770D01*
X13274825Y-21603150D02*
X13351015Y-21603150D01*
X13303396Y-21536484D02*
X13303396Y-21707912D01*
X13303396Y-21707912D02*
X13312920Y-21726960D01*
X13312920Y-21726960D02*
X13331968Y-21736484D01*
X13331968Y-21736484D02*
X13351015Y-21736484D01*
X13493873Y-21726960D02*
X13474825Y-21736484D01*
X13474825Y-21736484D02*
X13436730Y-21736484D01*
X13436730Y-21736484D02*
X13417682Y-21726960D01*
X13417682Y-21726960D02*
X13408158Y-21707912D01*
X13408158Y-21707912D02*
X13408158Y-21631722D01*
X13408158Y-21631722D02*
X13417682Y-21612674D01*
X13417682Y-21612674D02*
X13436730Y-21603150D01*
X13436730Y-21603150D02*
X13474825Y-21603150D01*
X13474825Y-21603150D02*
X13493873Y-21612674D01*
X13493873Y-21612674D02*
X13503396Y-21631722D01*
X13503396Y-21631722D02*
X13503396Y-21650770D01*
X13503396Y-21650770D02*
X13408158Y-21669817D01*
X13674825Y-21736484D02*
X13674825Y-21536484D01*
X13674825Y-21726960D02*
X13655777Y-21736484D01*
X13655777Y-21736484D02*
X13617682Y-21736484D01*
X13617682Y-21736484D02*
X13598634Y-21726960D01*
X13598634Y-21726960D02*
X13589111Y-21717436D01*
X13589111Y-21717436D02*
X13579587Y-21698389D01*
X13579587Y-21698389D02*
X13579587Y-21641246D01*
X13579587Y-21641246D02*
X13589111Y-21622198D01*
X13589111Y-21622198D02*
X13598634Y-21612674D01*
X13598634Y-21612674D02*
X13617682Y-21603150D01*
X13617682Y-21603150D02*
X13655777Y-21603150D01*
X13655777Y-21603150D02*
X13674825Y-21612674D01*
X13751015Y-21812674D02*
X13760539Y-21803150D01*
X13760539Y-21803150D02*
X13779587Y-21774579D01*
X13779587Y-21774579D02*
X13789111Y-21755531D01*
X13789111Y-21755531D02*
X13798634Y-21726960D01*
X13798634Y-21726960D02*
X13808158Y-21679341D01*
X13808158Y-21679341D02*
X13808158Y-21641246D01*
X13808158Y-21641246D02*
X13798634Y-21593627D01*
X13798634Y-21593627D02*
X13789111Y-21565055D01*
X13789111Y-21565055D02*
X13779587Y-21546008D01*
X13779587Y-21546008D02*
X13760539Y-21517436D01*
X13760539Y-21517436D02*
X13751015Y-21507912D01*
M02*
