G04 #@! TF.GenerationSoftware,KiCad,Pcbnew,7.0.8*
G04 #@! TF.CreationDate,2023-11-09T10:36:58-05:00*
G04 #@! TF.ProjectId,mecc-pcb-kicad,6d656363-2d70-4636-922d-6b696361642e,v1*
G04 #@! TF.SameCoordinates,Original*
G04 #@! TF.FileFunction,Soldermask,Bot*
G04 #@! TF.FilePolarity,Negative*
%FSLAX46Y46*%
G04 Gerber Fmt 4.6, Leading zero omitted, Abs format (unit mm)*
G04 Created by KiCad (PCBNEW 7.0.8) date 2023-11-09 10:36:58*
%MOMM*%
%LPD*%
G01*
G04 APERTURE LIST*
G04 Aperture macros list*
%AMRoundRect*
0 Rectangle with rounded corners*
0 $1 Rounding radius*
0 $2 $3 $4 $5 $6 $7 $8 $9 X,Y pos of 4 corners*
0 Add a 4 corners polygon primitive as box body*
4,1,4,$2,$3,$4,$5,$6,$7,$8,$9,$2,$3,0*
0 Add four circle primitives for the rounded corners*
1,1,$1+$1,$2,$3*
1,1,$1+$1,$4,$5*
1,1,$1+$1,$6,$7*
1,1,$1+$1,$8,$9*
0 Add four rect primitives between the rounded corners*
20,1,$1+$1,$2,$3,$4,$5,0*
20,1,$1+$1,$4,$5,$6,$7,0*
20,1,$1+$1,$6,$7,$8,$9,0*
20,1,$1+$1,$8,$9,$2,$3,0*%
G04 Aperture macros list end*
%ADD10R,4.000000X4.000000*%
%ADD11C,1.400000*%
%ADD12O,1.400000X1.400000*%
%ADD13O,1.050000X1.500000*%
%ADD14R,1.050000X1.500000*%
%ADD15C,8.000000*%
%ADD16R,2.400000X2.400000*%
%ADD17O,2.400000X2.400000*%
%ADD18R,1.950000X1.950000*%
%ADD19C,1.950000*%
%ADD20C,6.000000*%
%ADD21C,1.500000*%
%ADD22R,2.200000X2.200000*%
%ADD23O,2.200000X2.200000*%
%ADD24C,3.750000*%
%ADD25C,1.650000*%
%ADD26C,2.400000*%
%ADD27R,1.450000X1.450000*%
%ADD28C,1.450000*%
%ADD29C,3.250000*%
%ADD30R,1.500000X1.500000*%
%ADD31C,2.300000*%
%ADD32RoundRect,0.250000X0.620000X0.845000X-0.620000X0.845000X-0.620000X-0.845000X0.620000X-0.845000X0*%
%ADD33O,1.740000X2.190000*%
%ADD34RoundRect,0.250000X0.845000X-0.620000X0.845000X0.620000X-0.845000X0.620000X-0.845000X-0.620000X0*%
%ADD35O,2.190000X1.740000*%
%ADD36R,1.700000X1.700000*%
%ADD37O,1.700000X1.700000*%
%ADD38RoundRect,0.102000X1.125000X1.125000X-1.125000X1.125000X-1.125000X-1.125000X1.125000X-1.125000X0*%
%ADD39C,2.454000*%
%ADD40O,1.905000X2.000000*%
%ADD41R,1.905000X2.000000*%
%ADD42C,10.160000*%
%ADD43RoundRect,0.250000X-0.620000X-0.845000X0.620000X-0.845000X0.620000X0.845000X-0.620000X0.845000X0*%
G04 APERTURE END LIST*
D10*
G04 #@! TO.C,TP7*
X172000000Y-154000000D03*
G04 #@! TD*
G04 #@! TO.C,24V_1*
X125900000Y-196200000D03*
G04 #@! TD*
D11*
G04 #@! TO.C,R7*
X117300000Y-135100000D03*
D12*
X117300000Y-127480000D03*
G04 #@! TD*
D13*
G04 #@! TO.C,Q1*
X156445000Y-187099375D03*
X157715000Y-187099375D03*
D14*
X158985000Y-187099375D03*
G04 #@! TD*
D10*
G04 #@! TO.C,5V_1*
X137250000Y-196250000D03*
G04 #@! TD*
D15*
G04 #@! TO.C,*
X266000000Y-89000000D03*
G04 #@! TD*
G04 #@! TO.C,*
X210000000Y-89000000D03*
G04 #@! TD*
D16*
G04 #@! TO.C,C1*
X182000000Y-115000000D03*
D17*
X200000000Y-115000000D03*
G04 #@! TD*
D18*
G04 #@! TO.C,DISCHARGE_RELAY1*
X197335000Y-167005000D03*
D19*
X202375000Y-159385000D03*
X178435000Y-167005000D03*
X178435000Y-159385000D03*
G04 #@! TD*
D11*
G04 #@! TO.C,R_RELAY_PULLDOWN1*
X261882500Y-151447500D03*
D12*
X269502500Y-151447500D03*
G04 #@! TD*
D11*
G04 #@! TO.C,R_RELAY_PULLDOWN3*
X244721875Y-101900000D03*
D12*
X237101875Y-101900000D03*
G04 #@! TD*
D20*
G04 #@! TO.C,U1*
X248104600Y-161428000D03*
X240481600Y-155205000D03*
X240481600Y-167778000D03*
D21*
X234480000Y-153800000D03*
X231940000Y-153800000D03*
X229400000Y-153800000D03*
G04 #@! TD*
D10*
G04 #@! TO.C,TP5*
X271145000Y-159385000D03*
G04 #@! TD*
G04 #@! TO.C,TP14*
X162350000Y-118550000D03*
G04 #@! TD*
D11*
G04 #@! TO.C,R6*
X100000000Y-86000000D03*
D12*
X100000000Y-93620000D03*
G04 #@! TD*
D10*
G04 #@! TO.C,TP3*
X166883750Y-187849375D03*
G04 #@! TD*
D22*
G04 #@! TO.C,D3*
X235520000Y-108968750D03*
D23*
X245680000Y-108968750D03*
G04 #@! TD*
D10*
G04 #@! TO.C,3.3V_1*
X115700000Y-196000000D03*
G04 #@! TD*
D11*
G04 #@! TO.C,RHIGH_10k2*
X166621250Y-194199375D03*
D12*
X159001250Y-194199375D03*
G04 #@! TD*
D24*
G04 #@! TO.C,HIGH_SIDE_RELAY1*
X230950000Y-134250000D03*
X248750000Y-131750000D03*
D25*
X234750000Y-118950000D03*
X244950000Y-118950000D03*
G04 #@! TD*
D10*
G04 #@! TO.C,TP17*
X143000000Y-86350000D03*
G04 #@! TD*
D11*
G04 #@! TO.C,R9*
X101900000Y-127500000D03*
D12*
X101900000Y-135120000D03*
G04 #@! TD*
D11*
G04 #@! TO.C,RHIGH_10k4*
X212737500Y-136656250D03*
D12*
X205117500Y-136656250D03*
G04 #@! TD*
D10*
G04 #@! TO.C,GND_1*
X174700000Y-121250000D03*
G04 #@! TD*
D11*
G04 #@! TO.C,RHIGH_10k1*
X208200000Y-151700000D03*
D12*
X200580000Y-151700000D03*
G04 #@! TD*
D11*
G04 #@! TO.C,R3*
X105700000Y-127400000D03*
D12*
X105700000Y-135020000D03*
G04 #@! TD*
D10*
G04 #@! TO.C,TP4*
X211000000Y-142800000D03*
G04 #@! TD*
D22*
G04 #@! TO.C,D4*
X173335000Y-175199375D03*
D23*
X183495000Y-175199375D03*
G04 #@! TD*
D26*
G04 #@! TO.C,R_PRECHARGE1*
X281841875Y-172962500D03*
D17*
X281841875Y-117082500D03*
G04 #@! TD*
D27*
G04 #@! TO.C,J2*
X195580000Y-101000000D03*
D28*
X193040000Y-101000000D03*
X190500000Y-101000000D03*
X187960000Y-101000000D03*
X185420000Y-101000000D03*
X182880000Y-101000000D03*
X180340000Y-101000000D03*
X177800000Y-101000000D03*
G04 #@! TD*
D29*
G04 #@! TO.C,J3*
X81860000Y-160490000D03*
X81860000Y-147790000D03*
D30*
X84400000Y-157700000D03*
D21*
X86180000Y-156684000D03*
X84400000Y-155668000D03*
X86180000Y-154652000D03*
X84400000Y-153636000D03*
X86180000Y-152620000D03*
X84400000Y-151604000D03*
X86180000Y-150588000D03*
X91000000Y-161000000D03*
X91000000Y-158710000D03*
X91000000Y-149570000D03*
X91000000Y-147280000D03*
D31*
X85290000Y-162270000D03*
X85290000Y-146010000D03*
G04 #@! TD*
D32*
G04 #@! TO.C,J7*
X171450000Y-86360000D03*
D33*
X168910000Y-86360000D03*
X166370000Y-86360000D03*
X163830000Y-86360000D03*
X161290000Y-86360000D03*
X158750000Y-86360000D03*
X156210000Y-86360000D03*
X153670000Y-86360000D03*
X151130000Y-86360000D03*
G04 #@! TD*
D26*
G04 #@! TO.C,R_DISCHARGE1*
X225950000Y-186250000D03*
D17*
X281830000Y-186250000D03*
G04 #@! TD*
D34*
G04 #@! TO.C,J6*
X83750000Y-138500000D03*
D35*
X83750000Y-135960000D03*
X83750000Y-133420000D03*
X83750000Y-130880000D03*
X83750000Y-128340000D03*
G04 #@! TD*
D11*
G04 #@! TO.C,R8*
X121100000Y-135000000D03*
D12*
X121100000Y-127380000D03*
G04 #@! TD*
D36*
G04 #@! TO.C,JP1*
X96520000Y-119380000D03*
D37*
X99060000Y-119380000D03*
X101600000Y-119380000D03*
X104140000Y-119380000D03*
X106680000Y-119380000D03*
X109220000Y-119380000D03*
X111760000Y-119380000D03*
X114300000Y-119380000D03*
X116840000Y-119380000D03*
X119380000Y-119380000D03*
X121920000Y-119380000D03*
X124460000Y-119380000D03*
G04 #@! TD*
D10*
G04 #@! TO.C,TP16*
X123100000Y-150700000D03*
G04 #@! TD*
G04 #@! TO.C,TP2*
X151750000Y-177750000D03*
G04 #@! TD*
D15*
G04 #@! TO.C,GND*
X78000000Y-88000000D03*
G04 #@! TD*
D10*
G04 #@! TO.C,TP18*
X147550000Y-154200000D03*
G04 #@! TD*
G04 #@! TO.C,TP8*
X166752000Y-142591000D03*
G04 #@! TD*
D11*
G04 #@! TO.C,RHIGH_10k3*
X166621250Y-179118125D03*
D12*
X159001250Y-179118125D03*
G04 #@! TD*
D11*
G04 #@! TO.C,R11*
X162690000Y-107500000D03*
D12*
X170310000Y-107500000D03*
G04 #@! TD*
D11*
G04 #@! TO.C,RHIGH_10k5*
X166621250Y-171974375D03*
D12*
X159001250Y-171974375D03*
G04 #@! TD*
D38*
G04 #@! TO.C,J5*
X158115000Y-145415000D03*
D39*
X158115000Y-137795000D03*
X158115000Y-132715000D03*
X137795000Y-125095000D03*
X137795000Y-135255000D03*
X137795000Y-145415000D03*
G04 #@! TD*
D10*
G04 #@! TO.C,TP15*
X128750000Y-150600000D03*
G04 #@! TD*
D40*
G04 #@! TO.C,Q3*
X163875000Y-165775625D03*
D41*
X161335000Y-165775625D03*
D40*
X166415000Y-165775625D03*
G04 #@! TD*
D11*
G04 #@! TO.C,RHIGH_10k6*
X212737500Y-129512500D03*
D12*
X205117500Y-129512500D03*
G04 #@! TD*
D42*
G04 #@! TO.C,J1*
X265000000Y-201500000D03*
X235030000Y-201500000D03*
G04 #@! TD*
D11*
G04 #@! TO.C,R2*
X108200000Y-162700000D03*
D12*
X115820000Y-162700000D03*
G04 #@! TD*
D10*
G04 #@! TO.C,TP13*
X90750000Y-140000000D03*
G04 #@! TD*
G04 #@! TO.C,TP1*
X197125000Y-136656250D03*
G04 #@! TD*
D11*
G04 #@! TO.C,R12*
X162690000Y-111750000D03*
D12*
X170310000Y-111750000D03*
G04 #@! TD*
D15*
G04 #@! TO.C,GND*
X292000000Y-88000000D03*
G04 #@! TD*
D10*
G04 #@! TO.C,TP6*
X228315625Y-109043750D03*
G04 #@! TD*
G04 #@! TO.C,TP11*
X109250000Y-150700000D03*
G04 #@! TD*
D11*
G04 #@! TO.C,R_RELAY_PULLDOWN4*
X173990000Y-183515000D03*
D12*
X181610000Y-183515000D03*
G04 #@! TD*
D11*
G04 #@! TO.C,R13*
X94600000Y-143100000D03*
D12*
X102220000Y-143100000D03*
G04 #@! TD*
D43*
G04 #@! TO.C,J9*
X191020000Y-182900000D03*
D33*
X193560000Y-182900000D03*
X196100000Y-182900000D03*
G04 #@! TD*
D11*
G04 #@! TO.C,R4*
X109500000Y-135000000D03*
D12*
X109500000Y-127380000D03*
G04 #@! TD*
D22*
G04 #@! TO.C,D1*
X272080000Y-144300000D03*
D23*
X261920000Y-144300000D03*
G04 #@! TD*
D11*
G04 #@! TO.C,R1*
X98150000Y-162800000D03*
D12*
X105770000Y-162800000D03*
G04 #@! TD*
D43*
G04 #@! TO.C,J8*
X98000000Y-168400000D03*
D33*
X100540000Y-168400000D03*
X103080000Y-168400000D03*
X105620000Y-168400000D03*
G04 #@! TD*
D10*
G04 #@! TO.C,TP12*
X114800000Y-150700000D03*
G04 #@! TD*
D11*
G04 #@! TO.C,R5*
X113400000Y-135000000D03*
D12*
X113400000Y-127380000D03*
G04 #@! TD*
D15*
G04 #@! TO.C,GND*
X78000000Y-202000000D03*
G04 #@! TD*
D36*
G04 #@! TO.C,J4*
X189865000Y-90170000D03*
D37*
X187325000Y-90170000D03*
X184785000Y-90170000D03*
X182245000Y-90170000D03*
G04 #@! TD*
D10*
G04 #@! TO.C,TP9*
X123350000Y-157000000D03*
G04 #@! TD*
D36*
G04 #@! TO.C,JP2*
X124460000Y-99060000D03*
D37*
X121920000Y-99060000D03*
X119380000Y-99060000D03*
X116840000Y-99060000D03*
X114300000Y-99060000D03*
X111760000Y-99060000D03*
X109220000Y-99060000D03*
X106680000Y-99060000D03*
X104140000Y-99060000D03*
X101600000Y-99060000D03*
X99060000Y-99060000D03*
X96520000Y-99060000D03*
X93980000Y-99060000D03*
X91440000Y-99060000D03*
X88900000Y-99060000D03*
X86360000Y-99060000D03*
G04 #@! TD*
D11*
G04 #@! TO.C,R10*
X98000000Y-135100000D03*
D12*
X98000000Y-127480000D03*
G04 #@! TD*
D40*
G04 #@! TO.C,Q4*
X206960000Y-122520000D03*
D41*
X204420000Y-122520000D03*
D40*
X209500000Y-122520000D03*
G04 #@! TD*
D10*
G04 #@! TO.C,TP9*
X166752000Y-132685000D03*
G04 #@! TD*
G04 #@! TO.C,TP10*
X103600000Y-150750000D03*
G04 #@! TD*
D16*
G04 #@! TO.C,C2*
X113250000Y-168642500D03*
D17*
X131250000Y-168642500D03*
G04 #@! TD*
D15*
G04 #@! TO.C,GND*
X292000000Y-202000000D03*
G04 #@! TD*
D13*
G04 #@! TO.C,Q5*
X170210000Y-101250000D03*
X171480000Y-101250000D03*
D14*
X172750000Y-101250000D03*
G04 #@! TD*
D13*
G04 #@! TO.C,Q2*
X202400000Y-144500000D03*
X203670000Y-144500000D03*
D14*
X204940000Y-144500000D03*
G04 #@! TD*
M02*
