0
SECTION
2
HEADER
9
$INSUNITS
70
1
9
$ACADVER
1
AC1014
9
$HANDSEED
5
FFFF
0
ENDSEC
0
SECTION
2
TABLES
0
TABLE
2
VPORT
5
8
100
AcDbSymbolTable
0
ENDTAB
0
TABLE
2
LTYPE
5
5
100
AcDbSymbolTable
0
LTYPE
5
14
100
AcDbSymbolTableRecord
100
AcDbLinetypeTableRecord
2
BYBLOCK
70
0
0
LTYPE
5
15
100
AcDbSymbolTableRecord
100
AcDbLinetypeTableRecord
2
BYLAYER
70
0
0
LTYPE
5
16
100
AcDbSymbolTableRecord
100
AcDbLinetypeTableRecord
2
DASHED
70
0
3
Dashed __ __ __ __ __ __ __ __ __ __ __ __ __ _
72
65
73
2
40
0.75
49
0.5
74
0
49
-0.25
74
0
0
ENDTAB
0
TABLE
2
LAYER
5
2
100
AcDbSymbolTable
70
2
0
LAYER
5
50
100
AcDbSymbolTableRecord
100
AcDbLayerTableRecord
2
0
70
0
62
7
6
CONTINUOUS
0
ENDTAB
0
TABLE
2
STYLE
5
3
100
AcDbSymbolTable
70
1
0
STYLE
5
11
100
AcDbSymbolTableRecord
100
AcDbTextStyleTableRecord
2
STANDARD
70
0
0
ENDTAB
0
TABLE
2
VIEW
5
6
100
AcDbSymbolTable
70
0
0
ENDTAB
0
TABLE
2
UCS
5
7
100
AcDbSymbolTable
70
0
0
ENDTAB
0
TABLE
2
APPID
5
9
100
AcDbSymbolTable
70
2
0
APPID
5
12
100
AcDbSymbolTableRecord
100
AcDbRegAppTableRecord
2
ACAD
70
0
0
ENDTAB
0
TABLE
2
DIMSTYLE
5
A
100
AcDbSymbolTable
70
1
0
ENDTAB
0
TABLE
2
BLOCK_RECORD
5
1
100
AcDbSymbolTable
70
1
0
BLOCK_RECORD
5
1F
100
AcDbSymbolTableRecord
100
AcDbBlockTableRecord
2
*MODEL_SPACE
0
BLOCK_RECORD
5
1B
100
AcDbSymbolTableRecord
100
AcDbBlockTableRecord
2
*PAPER_SPACE
0
ENDTAB
0
ENDSEC
0
SECTION
2
BLOCKS
0
BLOCK
5
20
100
AcDbEntity
100
AcDbBlockBegin
2
*MODEL_SPACE
0
ENDBLK
5
21
100
AcDbEntity
100
AcDbBlockEnd
0
BLOCK
5
1C
100
AcDbEntity
100
AcDbBlockBegin
2
*PAPER_SPACE
0
ENDBLK
5
1D
100
AcDbEntity
100
AcDbBlockEnd
0
ENDSEC
0
SECTION
2
ENTITIES
0
CIRCLE
5
100
100
AcDbEntity
8
0
100
AcDbCircle
10
2.6965767664977274
20
-3.3506079660838659
30
0
40
0.12549999999999989
210
0
220
-0
230
1
0
CIRCLE
5
101
100
AcDbEntity
8
0
100
AcDbCircle
10
-3.6784232335022704
20
0.33000000000000174
30
0
40
0.12550000000000025
210
0
220
-0
230
1
0
CIRCLE
5
102
100
AcDbEntity
8
0
100
AcDbCircle
10
2.1249999999999982
20
-4.3406079660838639
30
0
40
0.12549999999999989
210
0
220
-0
230
1
0
CIRCLE
5
103
100
AcDbEntity
8
0
100
AcDbCircle
10
-4.8215767664977278
20
0.33000000000000329
30
0
40
0.12550000000000025
210
0
220
-0
230
1
0
CIRCLE
5
104
100
AcDbEntity
8
0
100
AcDbCircle
10
-4.25
20
-0.65999999999999581
30
0
40
0.12550000000000025
210
0
220
-0
230
1
0
CIRCLE
5
105
100
AcDbEntity
8
0
100
AcDbCircle
10
1.5534232335022702
20
-3.350607966083865
30
0
40
0.12549999999999989
210
0
220
-0
230
1
0
CIRCLE
5
106
100
AcDbEntity
8
0
100
AcDbCircle
10
2.6965767664977314
20
4.0106079660838621
30
0
40
0.12549999999999989
210
0
220
-0
230
1
0
CIRCLE
5
107
100
AcDbEntity
8
0
100
AcDbCircle
10
1.553423233502274
20
4.0106079660838629
30
0
40
0.12550000000000008
210
0
220
-0
230
1
0
CIRCLE
5
108
100
AcDbEntity
8
0
100
AcDbCircle
10
2.1250000000000018
20
3.0206079660838641
30
0
40
0.12549999999999989
210
0
220
-0
230
1
0
CIRCLE
5
109
100
AcDbEntity
8
0
100
AcDbCircle
10
3.8749999999999973
20
4.2296460717605218
30
0
40
0.19500000000000009
210
0
220
-0
230
1
0
CIRCLE
5
110
100
AcDbEntity
8
0
100
AcDbCircle
10
3.8749999999999973
20
-4.2296460717605235
30
0
40
0.19500000000000009
210
0
220
-0
230
1
0
CIRCLE
5
111
100
AcDbEntity
8
0
100
AcDbCircle
10
-6.1250000000000027
20
0.49999999999999889
30
0
40
0.19500000000000009
210
0
220
-0
230
1
0
CIRCLE
5
112
100
AcDbEntity
8
0
100
AcDbCircle
10
3.8749999999999973
20
3.2296460717605222
30
0
40
0.19500000000000009
210
0
220
-0
230
1
0
CIRCLE
5
113
100
AcDbEntity
8
0
100
AcDbCircle
10
3.8749999999999973
20
-3.2296460717605235
30
0
40
0.19500000000000009
210
0
220
-0
230
1
0
CIRCLE
5
114
100
AcDbEntity
8
0
100
AcDbCircle
10
-6.1250000000000027
20
-0.50000000000000089
30
0
40
0.19500000000000009
210
0
220
-0
230
1
0
LWPOLYLINE
5
115
100
AcDbEntity
8
0
100
AcDbPolyline
90
12
70
1
43
0.0
10
1.1633683929519683
20
2.5191919162443228
10
1.6000000000000003
20
2.2671025403784424
42
-0.26794919243112264
10
1.75
20
2.0072949192431109
10
1.75
20
-2.0072949192431118
42
-0.26794919243112247
10
1.5999999999999999
20
-2.2671025403784428
10
1.1633683929519663
20
-2.5191919162443237
42
-0.26794919243112264
10
0.86336839295196643
20
-2.5191919162443237
10
-2.6133683929519673
20
-0.51189699700121138
42
-0.26794919243112236
10
-2.7633683929519672
20
-0.25208937586587982
10
-2.7633683929519677
20
0.25208937586588082
42
-0.26794919243112308
10
-2.6133683929519669
20
0.51189699700121272
10
0.86336839295196854
20
2.5191919162443228
42
-0.26794919243112264
0
LWPOLYLINE
5
116
100
AcDbEntity
8
0
100
AcDbPolyline
90
26
70
1
43
0.0
10
1.5883683929519683
20
4.9796460717605218
42
0.41421356237309515
10
0.63836839295196868
20
4.0296460717605225
10
0.63836839295196868
20
3.4285185902179838
42
-0.26794919243112297
10
0.48836839295196838
20
3.1687109690826523
10
-2.6357404487890848
20
1.3650058883257663
42
-0.13165249758739547
10
-2.7857404487890847
20
1.324813509461098
10
-6.6250000000000027
20
1.3248135094610962
10
-6.6250000000000027
20
-1.3248135094610978
10
-2.785740448789082
20
-1.3248135094610958
42
-0.13165249758739569
10
-2.6357404487890825
20
-1.3650058883257643
10
0.48836839295196638
20
-3.1687109690826514
42
-0.26794919243112264
10
0.63836839295196623
20
-3.4285185902179824
10
0.63836839295196646
20
-4.0296460717605225
42
0.41421356237309498
10
1.5883683929519663
20
-4.9796460717605227
10
4.3749999999999973
20
-4.9796460717605227
10
4.3749999999999973
20
-2.4796460717605235
10
2.8459171458148456
20
-2.4796460717605235
42
-0.26794919243112286
10
2.5861095246795136
20
-2.3296460717605236
10
2.5401923788646679
20
-2.2501152422706627
42
-0.13165249758739547
10
2.4999999999999996
20
-2.1001152422706628
10
2.4999999999999991
20
2.1001152422706628
42
-0.13165249758739592
10
2.5401923788646683
20
2.2501152422706627
10
2.5861095246795132
20
2.3296460717605223
42
-0.26794919243112214
10
2.8459171458148447
20
2.4796460717605218
10
4.3750000000000018
20
2.4796460717605218
10
4.3750000000000018
20
4.9796460717605218
0
CIRCLE
5
117
100
AcDbEntity
8
0
100
AcDbCircle
10
-4.25
20
5.2451481478353848e-16
30
0
40
0.12550000000000025
210
0
220
-0
230
1
0
CIRCLE
5
118
100
AcDbEntity
8
0
100
AcDbCircle
10
2.1249999999999982
20
-3.6806079660838646
30
0
40
0.12550000000000003
210
0
220
-0
230
1
0
CIRCLE
5
119
100
AcDbEntity
8
0
100
AcDbCircle
10
2.1250000000000018
20
3.6806079660838638
30
0
40
0.12550000000000003
210
-0
220
0
230
1
0
ENDSEC
0
SECTION
2
OBJECTS
0
DICTIONARY
5
C
100
AcDbDictionary
3
ACAD_GROUP
350
D
3
ACAD_MLINESTYLE
350
17
0
DICTIONARY
5
D
100
AcDbDictionary
0
DICTIONARY
5
1A
330
C
100
AcDbDictionary
0
DICTIONARY
5
17
100
AcDbDictionary
0
ENDSEC
0
EOF
