M48
; DRILL file {KiCad (6.0.6-0)} date Tuesday, March 14, 2023 at 03:49:02 PM
; FORMAT={-:-/ absolute / metric / decimal}
; #@! TF.CreationDate,2023-03-14T15:49:02-04:00
; #@! TF.GenerationSoftware,Kicad,Pcbnew,(6.0.6-0)
; #@! TF.FileFunction,Plated,1,2,PTH
FMAT,2
METRIC
; #@! TA.AperFunction,Plated,PTH,ViaDrill
T1C0.400
; #@! TA.AperFunction,Plated,PTH,ComponentDrill
T2C0.750
; #@! TA.AperFunction,Plated,PTH,ComponentDrill
T3C1.000
; #@! TA.AperFunction,Plated,PTH,ComponentDrill
T4C1.016
; #@! TA.AperFunction,Plated,PTH,ComponentDrill
T5C1.020
; #@! TA.AperFunction,Plated,PTH,ComponentDrill
T6C1.100
; #@! TA.AperFunction,Plated,PTH,ComponentDrill
T7C1.200
; #@! TA.AperFunction,Plated,PTH,ComponentDrill
T8C1.300
; #@! TA.AperFunction,Plated,PTH,ViaDrill
T9C2.000
; #@! TA.AperFunction,Plated,PTH,ComponentDrill
T10C2.000
; #@! TA.AperFunction,Plated,PTH,ComponentDrill
T11C2.500
; #@! TA.AperFunction,Plated,PTH,ComponentDrill
T12C3.200
; #@! TA.AperFunction,Plated,PTH,ViaDrill
T13C5.000
%
G90
G05
T1
X123.031Y-72.231
T2
X77.629Y-73.025
X77.629Y-116.681
X78.899Y-73.025
X78.899Y-116.681
X80.169Y-73.025
X80.169Y-116.681
T3
X78.844Y-57.944
X78.844Y-65.087
X78.844Y-80.169
X78.844Y-101.6
X78.844Y-108.744
X78.844Y-123.825
X87.844Y-57.944
X87.844Y-65.087
X87.844Y-80.169
X87.844Y-101.6
X87.844Y-108.744
X87.844Y-123.825
X97.631Y-55.825
X97.631Y-64.825
X103.188Y-100.275
X103.188Y-109.275
X155.044Y-49.212
X164.044Y-49.212
X186.0Y-92.075
X195.0Y-92.075
T4
X167.209Y-99.528
X169.749Y-99.528
X172.289Y-99.528
T5
X79.124Y-25.4
X79.124Y-45.212
X81.664Y-25.4
X81.664Y-45.212
X84.204Y-25.4
X84.204Y-45.212
X86.744Y-25.4
X86.744Y-45.212
X89.284Y-25.4
X89.284Y-45.212
X91.824Y-25.4
X91.824Y-45.212
X94.364Y-25.4
X94.364Y-45.212
X96.904Y-25.4
X96.904Y-45.212
X99.444Y-25.4
X99.444Y-45.212
X101.984Y-25.4
X101.984Y-45.212
X104.524Y-25.4
X104.524Y-45.212
X107.064Y-25.4
X107.064Y-45.212
X109.604Y-25.4
X109.604Y-45.212
X112.144Y-25.4
X112.144Y-45.212
X114.684Y-25.4
X114.684Y-45.212
X117.224Y-25.4
X117.224Y-45.212
X119.764Y-25.4
X119.764Y-45.212
X122.304Y-25.4
X122.304Y-45.212
X124.844Y-25.4
X124.844Y-45.212
X127.384Y-25.4
X127.384Y-45.212
X129.924Y-25.4
X129.924Y-45.212
X132.464Y-25.4
X132.464Y-45.212
X135.004Y-25.4
X135.004Y-45.212
X137.544Y-25.4
X137.544Y-45.212
T6
X82.55Y-95.401
X83.185Y-50.951
X85.09Y-95.401
X85.725Y-50.951
X87.63Y-95.401
X88.265Y-50.951
X108.744Y-54.927
X108.744Y-65.087
X111.503Y-99.62
X111.503Y-109.78
X123.116Y-66.263
X133.316Y-66.263
X154.072Y-66.263
X154.842Y-56.281
X164.272Y-66.263
X165.002Y-56.281
X185.798Y-84.931
X195.958Y-84.931
T7
X140.713Y-126.925
X196.593Y-126.925
X205.959Y-57.71
X205.959Y-113.59
T8
X119.969Y-100.89
X119.969Y-108.51
X125.632Y-127.719
X130.712Y-127.719
X138.869Y-108.51
X143.909Y-100.89
T9
X178.594Y-59.531
T10
X71.438Y-108.744
X72.231Y-65.087
X88.106Y-73.025
X88.106Y-117.475
X147.637Y-56.356
X195.262Y-100.012
T11
X119.316Y-81.562
X137.116Y-79.062
X150.272Y-81.562
X168.072Y-79.062
T12
X178.291Y-100.933
X178.291Y-113.506
X185.914Y-101.156
X185.914Y-107.156
X185.914Y-113.156
T13
X67.0Y-33.0
X67.0Y-139.0
X178.594Y-30.162
X200.025Y-30.162
X212.0Y-33.0
X212.0Y-139.0
T0
M30
