G04 #@! TF.GenerationSoftware,KiCad,Pcbnew,(6.0.6-0)*
G04 #@! TF.CreationDate,2023-03-14T15:48:33-04:00*
G04 #@! TF.ProjectId,mecc-pcb-kicad,6d656363-2d70-4636-922d-6b696361642e,v1*
G04 #@! TF.SameCoordinates,Original*
G04 #@! TF.FileFunction,Copper,L1,Top*
G04 #@! TF.FilePolarity,Positive*
%FSLAX46Y46*%
G04 Gerber Fmt 4.6, Leading zero omitted, Abs format (unit mm)*
G04 Created by KiCad (PCBNEW (6.0.6-0)) date 2023-03-14 15:48:33*
%MOMM*%
%LPD*%
G01*
G04 APERTURE LIST*
G04 #@! TA.AperFunction,ComponentPad*
%ADD10C,1.950000*%
G04 #@! TD*
G04 #@! TA.AperFunction,ComponentPad*
%ADD11R,2.200000X2.200000*%
G04 #@! TD*
G04 #@! TA.AperFunction,ComponentPad*
%ADD12O,2.200000X2.200000*%
G04 #@! TD*
G04 #@! TA.AperFunction,ComponentPad*
%ADD13R,1.950000X1.950000*%
G04 #@! TD*
G04 #@! TA.AperFunction,ComponentPad*
%ADD14C,2.000000*%
G04 #@! TD*
G04 #@! TA.AperFunction,ComponentPad*
%ADD15R,4.000000X4.000000*%
G04 #@! TD*
G04 #@! TA.AperFunction,SMDPad,CuDef*
%ADD16R,3.000000X2.000000*%
G04 #@! TD*
G04 #@! TA.AperFunction,ComponentPad*
%ADD17C,3.750000*%
G04 #@! TD*
G04 #@! TA.AperFunction,ComponentPad*
%ADD18C,1.650000*%
G04 #@! TD*
G04 #@! TA.AperFunction,ComponentPad*
%ADD19C,4.000000*%
G04 #@! TD*
G04 #@! TA.AperFunction,ComponentPad*
%ADD20C,1.500000*%
G04 #@! TD*
G04 #@! TA.AperFunction,ComponentPad*
%ADD21C,2.400000*%
G04 #@! TD*
G04 #@! TA.AperFunction,ComponentPad*
%ADD22O,2.400000X2.400000*%
G04 #@! TD*
G04 #@! TA.AperFunction,ComponentPad*
%ADD23R,1.050000X1.500000*%
G04 #@! TD*
G04 #@! TA.AperFunction,ComponentPad*
%ADD24O,1.050000X1.500000*%
G04 #@! TD*
G04 #@! TA.AperFunction,ComponentPad*
%ADD25R,1.905000X2.000000*%
G04 #@! TD*
G04 #@! TA.AperFunction,ComponentPad*
%ADD26O,1.905000X2.000000*%
G04 #@! TD*
G04 #@! TA.AperFunction,SMDPad,CuDef*
%ADD27R,2.000000X0.700000*%
G04 #@! TD*
G04 #@! TA.AperFunction,ComponentPad*
%ADD28C,1.530000*%
G04 #@! TD*
G04 #@! TA.AperFunction,ViaPad*
%ADD29C,6.000000*%
G04 #@! TD*
G04 #@! TA.AperFunction,ViaPad*
%ADD30C,0.800000*%
G04 #@! TD*
G04 #@! TA.AperFunction,ViaPad*
%ADD31C,9.000000*%
G04 #@! TD*
G04 #@! TA.AperFunction,ViaPad*
%ADD32C,4.000000*%
G04 #@! TD*
G04 #@! TA.AperFunction,Conductor*
%ADD33C,0.400000*%
G04 #@! TD*
G04 #@! TA.AperFunction,Conductor*
%ADD34C,6.450000*%
G04 #@! TD*
G04 APERTURE END LIST*
D10*
G04 #@! TO.P,VESC_TERMINAL1,1,1*
G04 #@! TO.N,VESC_POS*
X130711875Y-127718750D03*
G04 #@! TO.P,VESC_TERMINAL1,2,2*
G04 #@! TO.N,VESC_NEG*
X125631875Y-127718750D03*
G04 #@! TD*
D11*
G04 #@! TO.P,D2,1,K*
G04 #@! TO.N,PRE_LOW_DIS*
X195958125Y-84931250D03*
D12*
G04 #@! TO.P,D2,2,A*
G04 #@! TO.N,SIG_GND*
X185798125Y-84931250D03*
G04 #@! TD*
D13*
G04 #@! TO.P,DISCHARGE_RELAY1,11,COM*
G04 #@! TO.N,VESC_NEG*
X138868750Y-108510000D03*
D10*
G04 #@! TO.P,DISCHARGE_RELAY1,12,NC*
G04 #@! TO.N,Net-(DISCHARGE_RELAY1-Pad12)*
X143908750Y-100890000D03*
G04 #@! TO.P,DISCHARGE_RELAY1,A1,COIL_1*
G04 #@! TO.N,SIG_GND*
X119968750Y-108510000D03*
G04 #@! TO.P,DISCHARGE_RELAY1,A2,COIL_2*
G04 #@! TO.N,PRE_LOW_DIS*
X119968750Y-100890000D03*
G04 #@! TD*
D14*
G04 #@! TO.P,R_RELAY_PULLDOWN1,1*
G04 #@! TO.N,SIG_GND*
X186000000Y-92075000D03*
G04 #@! TO.P,R_RELAY_PULLDOWN1,2*
G04 #@! TO.N,PRE_LOW_DIS*
X195000000Y-92075000D03*
G04 #@! TD*
G04 #@! TO.P,R_RELAY_PULLDOWN3,1*
G04 #@! TO.N,SIG_GND*
X164043750Y-49212500D03*
G04 #@! TO.P,R_RELAY_PULLDOWN3,2*
G04 #@! TO.N,HIGH_SIDE*
X155043750Y-49212500D03*
G04 #@! TD*
D15*
G04 #@! TO.P,TP5,1,1*
G04 #@! TO.N,PRE_LOW_DIS*
X195262500Y-100012500D03*
G04 #@! TD*
D16*
G04 #@! TO.P,FUSE_HOLDER1,1,1*
G04 #@! TO.N,BATT_NEG*
X175563750Y-40283750D03*
G04 #@! TO.P,FUSE_HOLDER1,2,2*
G04 #@! TO.N,Net-(FUSE_HOLDER1-Pad2)*
X175563750Y-50203750D03*
G04 #@! TO.P,FUSE_HOLDER1,3,3*
X181623750Y-50203750D03*
G04 #@! TO.P,FUSE_HOLDER1,4,4*
G04 #@! TO.N,BATT_NEG*
X181623750Y-40283750D03*
G04 #@! TD*
D15*
G04 #@! TO.P,TP3,1,1*
G04 #@! TO.N,Net-(Q3-Pad2)*
X88106250Y-117475000D03*
G04 #@! TD*
D11*
G04 #@! TO.P,D3,1,K*
G04 #@! TO.N,HIGH_SIDE*
X154841875Y-56281250D03*
D12*
G04 #@! TO.P,D3,2,A*
G04 #@! TO.N,SIG_GND*
X165001875Y-56281250D03*
G04 #@! TD*
D14*
G04 #@! TO.P,RHIGH_10k2,1*
G04 #@! TO.N,SIG_GND*
X87843750Y-123825000D03*
G04 #@! TO.P,RHIGH_10k2,2*
G04 #@! TO.N,PRE_LOW_DIS_STM*
X78843750Y-123825000D03*
G04 #@! TD*
D17*
G04 #@! TO.P,HIGH_SIDE_RELAY1,1,NO*
G04 #@! TO.N,Net-(HIGH_SIDE_RELAY1-Pad1)*
X150271875Y-81562500D03*
G04 #@! TO.P,HIGH_SIDE_RELAY1,2,COM*
G04 #@! TO.N,BATT_POS*
X168071875Y-79062500D03*
D18*
G04 #@! TO.P,HIGH_SIDE_RELAY1,3,COIL_1*
G04 #@! TO.N,HIGH_SIDE*
X154071875Y-66262500D03*
G04 #@! TO.P,HIGH_SIDE_RELAY1,4,COIL_2*
G04 #@! TO.N,SIG_GND*
X164271875Y-66262500D03*
G04 #@! TD*
D14*
G04 #@! TO.P,R_RELAY_PULLDOWN2,1*
G04 #@! TO.N,SIG_GND*
X97631250Y-55825000D03*
G04 #@! TO.P,R_RELAY_PULLDOWN2,2*
G04 #@! TO.N,PRE_LOW_DIS*
X97631250Y-64825000D03*
G04 #@! TD*
G04 #@! TO.P,RHIGH_10k4,1*
G04 #@! TO.N,Net-(Q4-Pad2)*
X87843750Y-65087500D03*
G04 #@! TO.P,RHIGH_10k4,2*
G04 #@! TO.N,Net-(Q2-Pad3)*
X78843750Y-65087500D03*
G04 #@! TD*
G04 #@! TO.P,RHIGH_10k1,1*
G04 #@! TO.N,SIG_GND*
X87843750Y-80168750D03*
G04 #@! TO.P,RHIGH_10k1,2*
G04 #@! TO.N,HIGH_SIDE_STM*
X78843750Y-80168750D03*
G04 #@! TD*
D15*
G04 #@! TO.P,TP4,1,1*
G04 #@! TO.N,Net-(Q4-Pad2)*
X88106250Y-73025000D03*
G04 #@! TD*
D11*
G04 #@! TO.P,D4,1,K*
G04 #@! TO.N,PRE_LOW_DIS*
X111503125Y-99620000D03*
D12*
G04 #@! TO.P,D4,2,A*
G04 #@! TO.N,SIG_GND*
X111503125Y-109780000D03*
G04 #@! TD*
D19*
G04 #@! TO.P,U1,1,GND*
G04 #@! TO.N,unconnected-(U1-Pad1)*
X185913625Y-101156250D03*
G04 #@! TO.P,U1,2,GND*
G04 #@! TO.N,unconnected-(U1-Pad2)*
X185913625Y-107156250D03*
G04 #@! TO.P,U1,3,GND*
G04 #@! TO.N,VESC_NEG*
X185913625Y-113156250D03*
G04 #@! TO.P,U1,4,+IN*
G04 #@! TO.N,Net-(HIGH_SIDE_RELAY1-Pad1)*
X178290625Y-100933250D03*
G04 #@! TO.P,U1,5,+OUT*
G04 #@! TO.N,VESC_POS*
X178290625Y-113506250D03*
D20*
G04 #@! TO.P,U1,6,Iout*
G04 #@! TO.N,BATT_CURR_SENSOR*
X172289025Y-99528250D03*
G04 #@! TO.P,U1,7,Vout*
G04 #@! TO.N,BATT_V_SENSOR*
X169749025Y-99528250D03*
G04 #@! TO.P,U1,8,SIG_GND*
G04 #@! TO.N,SIG_GND*
X167209025Y-99528250D03*
G04 #@! TD*
D11*
G04 #@! TO.P,D1,1,K*
G04 #@! TO.N,PRE_LOW_DIS*
X108743750Y-65087500D03*
D12*
G04 #@! TO.P,D1,2,A*
G04 #@! TO.N,SIG_GND*
X108743750Y-54927500D03*
G04 #@! TD*
D21*
G04 #@! TO.P,R_PRECHARGE1,1*
G04 #@! TO.N,VESC_POS*
X205959375Y-113590000D03*
D22*
G04 #@! TO.P,R_PRECHARGE1,2*
G04 #@! TO.N,Net-(PRECHARGE_RELAY1-Pad3)*
X205959375Y-57710000D03*
G04 #@! TD*
D21*
G04 #@! TO.P,R_DISCHARGE1,1*
G04 #@! TO.N,Net-(DISCHARGE_RELAY1-Pad12)*
X140713125Y-126925000D03*
D22*
G04 #@! TO.P,R_DISCHARGE1,2*
G04 #@! TO.N,VESC_POS*
X196593125Y-126925000D03*
G04 #@! TD*
D23*
G04 #@! TO.P,Q1,1,S*
G04 #@! TO.N,SIG_GND*
X80168750Y-116681250D03*
D24*
G04 #@! TO.P,Q1,2,G*
G04 #@! TO.N,PRE_LOW_DIS_STM*
X78898750Y-116681250D03*
G04 #@! TO.P,Q1,3,D*
G04 #@! TO.N,Net-(Q1-Pad3)*
X77628750Y-116681250D03*
G04 #@! TD*
D15*
G04 #@! TO.P,TP2,1,1*
G04 #@! TO.N,Net-(Q1-Pad3)*
X71437500Y-108743750D03*
G04 #@! TD*
D14*
G04 #@! TO.P,RHIGH_10k3,1*
G04 #@! TO.N,Net-(Q3-Pad2)*
X87843750Y-108743750D03*
G04 #@! TO.P,RHIGH_10k3,2*
G04 #@! TO.N,Net-(Q1-Pad3)*
X78843750Y-108743750D03*
G04 #@! TD*
G04 #@! TO.P,RHIGH_10k5,1*
G04 #@! TO.N,Net-(Q3-Pad2)*
X87843750Y-101600000D03*
G04 #@! TO.P,RHIGH_10k5,2*
G04 #@! TO.N,+5V*
X78843750Y-101600000D03*
G04 #@! TD*
D25*
G04 #@! TO.P,Q3,1,D*
G04 #@! TO.N,+5V*
X82550000Y-95401250D03*
D26*
G04 #@! TO.P,Q3,2,G*
G04 #@! TO.N,Net-(Q3-Pad2)*
X85090000Y-95401250D03*
G04 #@! TO.P,Q3,3,S*
G04 #@! TO.N,PRE_LOW_DIS*
X87630000Y-95401250D03*
G04 #@! TD*
D14*
G04 #@! TO.P,RHIGH_10k6,1*
G04 #@! TO.N,Net-(Q4-Pad2)*
X87843750Y-57943750D03*
G04 #@! TO.P,RHIGH_10k6,2*
G04 #@! TO.N,PRE_LOW_DIS*
X78843750Y-57943750D03*
G04 #@! TD*
D23*
G04 #@! TO.P,Q2,1,S*
G04 #@! TO.N,SIG_GND*
X80168750Y-73025000D03*
D24*
G04 #@! TO.P,Q2,2,G*
G04 #@! TO.N,HIGH_SIDE_STM*
X78898750Y-73025000D03*
G04 #@! TO.P,Q2,3,D*
G04 #@! TO.N,Net-(Q2-Pad3)*
X77628750Y-73025000D03*
G04 #@! TD*
D15*
G04 #@! TO.P,TP1,1,1*
G04 #@! TO.N,Net-(Q2-Pad3)*
X72231250Y-65087500D03*
G04 #@! TD*
G04 #@! TO.P,TP6,1,1*
G04 #@! TO.N,HIGH_SIDE*
X147637500Y-56356250D03*
G04 #@! TD*
D27*
G04 #@! TO.P,PRECHARGE_RELAY1,1,SET+/RESET-*
G04 #@! TO.N,PRE_LOW_DIS*
X193878125Y-77312500D03*
G04 #@! TO.P,PRECHARGE_RELAY1,3,COM*
G04 #@! TO.N,Net-(PRECHARGE_RELAY1-Pad3)*
X193878125Y-71912500D03*
G04 #@! TO.P,PRECHARGE_RELAY1,6,NO*
G04 #@! TO.N,BATT_POS*
X187878125Y-71912500D03*
G04 #@! TO.P,PRECHARGE_RELAY1,8,SET-/RESET+*
G04 #@! TO.N,SIG_GND*
X187878125Y-77312500D03*
G04 #@! TD*
D14*
G04 #@! TO.P,R_RELAY_PULLDOWN4,1*
G04 #@! TO.N,PRE_LOW_DIS*
X103187500Y-100275000D03*
G04 #@! TO.P,R_RELAY_PULLDOWN4,2*
G04 #@! TO.N,SIG_GND*
X103187500Y-109275000D03*
G04 #@! TD*
D28*
G04 #@! TO.P,J1,1*
G04 #@! TO.N,unconnected-(J1-Pad1)*
X79124375Y-45212000D03*
G04 #@! TO.P,J1,2*
G04 #@! TO.N,HIGH_SIDE_STM*
X81664375Y-45212000D03*
G04 #@! TO.P,J1,3*
G04 #@! TO.N,+5V*
X84204375Y-45212000D03*
G04 #@! TO.P,J1,4*
G04 #@! TO.N,PRE_LOW_DIS_STM*
X86744375Y-45212000D03*
G04 #@! TO.P,J1,5*
G04 #@! TO.N,unconnected-(J1-Pad5)*
X89284375Y-45212000D03*
G04 #@! TO.P,J1,6*
G04 #@! TO.N,unconnected-(J1-Pad6)*
X91824375Y-45212000D03*
G04 #@! TO.P,J1,7*
G04 #@! TO.N,unconnected-(J1-Pad7)*
X94364375Y-45212000D03*
G04 #@! TO.P,J1,8*
G04 #@! TO.N,unconnected-(J1-Pad8)*
X96904375Y-45212000D03*
G04 #@! TO.P,J1,9*
G04 #@! TO.N,unconnected-(J1-Pad9)*
X99444375Y-45212000D03*
G04 #@! TO.P,J1,10*
G04 #@! TO.N,unconnected-(J1-Pad10)*
X101984375Y-45212000D03*
G04 #@! TO.P,J1,11*
G04 #@! TO.N,unconnected-(J1-Pad11)*
X104524375Y-45212000D03*
G04 #@! TO.P,J1,12*
G04 #@! TO.N,SIG_GND*
X107064375Y-45212000D03*
G04 #@! TO.P,J1,13*
G04 #@! TO.N,unconnected-(J1-Pad13)*
X109604375Y-45212000D03*
G04 #@! TO.P,J1,14*
G04 #@! TO.N,unconnected-(J1-Pad14)*
X112144375Y-45212000D03*
G04 #@! TO.P,J1,15*
G04 #@! TO.N,unconnected-(J1-Pad15)*
X114684375Y-45212000D03*
G04 #@! TO.P,J1,16*
G04 #@! TO.N,unconnected-(J1-Pad16)*
X117224375Y-45212000D03*
G04 #@! TO.P,J1,17*
G04 #@! TO.N,BATT_V_SENSOR*
X119764375Y-45212000D03*
G04 #@! TO.P,J1,18*
G04 #@! TO.N,BATT_CURR_SENSOR*
X122304375Y-45212000D03*
G04 #@! TO.P,J1,19*
G04 #@! TO.N,unconnected-(J1-Pad19)*
X124844375Y-45212000D03*
G04 #@! TO.P,J1,20*
G04 #@! TO.N,unconnected-(J1-Pad20)*
X127384375Y-45212000D03*
G04 #@! TO.P,J1,21*
G04 #@! TO.N,unconnected-(J1-Pad21)*
X129924375Y-45212000D03*
G04 #@! TO.P,J1,22*
G04 #@! TO.N,unconnected-(J1-Pad22)*
X132464375Y-45212000D03*
G04 #@! TO.P,J1,23*
G04 #@! TO.N,unconnected-(J1-Pad23)*
X135004375Y-45212000D03*
G04 #@! TO.P,J1,24*
G04 #@! TO.N,unconnected-(J1-Pad24)*
X137544375Y-45212000D03*
G04 #@! TD*
G04 #@! TO.P,J2,1*
G04 #@! TO.N,unconnected-(J2-Pad1)*
X79124375Y-25400000D03*
G04 #@! TO.P,J2,2*
G04 #@! TO.N,unconnected-(J2-Pad2)*
X81664375Y-25400000D03*
G04 #@! TO.P,J2,3*
G04 #@! TO.N,unconnected-(J2-Pad3)*
X84204375Y-25400000D03*
G04 #@! TO.P,J2,4*
G04 #@! TO.N,unconnected-(J2-Pad4)*
X86744375Y-25400000D03*
G04 #@! TO.P,J2,5*
G04 #@! TO.N,unconnected-(J2-Pad5)*
X89284375Y-25400000D03*
G04 #@! TO.P,J2,6*
G04 #@! TO.N,unconnected-(J2-Pad6)*
X91824375Y-25400000D03*
G04 #@! TO.P,J2,7*
G04 #@! TO.N,unconnected-(J2-Pad7)*
X94364375Y-25400000D03*
G04 #@! TO.P,J2,8*
G04 #@! TO.N,unconnected-(J2-Pad8)*
X96904375Y-25400000D03*
G04 #@! TO.P,J2,9*
G04 #@! TO.N,unconnected-(J2-Pad9)*
X99444375Y-25400000D03*
G04 #@! TO.P,J2,10*
G04 #@! TO.N,unconnected-(J2-Pad10)*
X101984375Y-25400000D03*
G04 #@! TO.P,J2,11*
G04 #@! TO.N,unconnected-(J2-Pad11)*
X104524375Y-25400000D03*
G04 #@! TO.P,J2,12*
G04 #@! TO.N,unconnected-(J2-Pad12)*
X107064375Y-25400000D03*
G04 #@! TO.P,J2,13*
G04 #@! TO.N,unconnected-(J2-Pad13)*
X109604375Y-25400000D03*
G04 #@! TO.P,J2,14*
G04 #@! TO.N,unconnected-(J2-Pad14)*
X112144375Y-25400000D03*
G04 #@! TO.P,J2,15*
G04 #@! TO.N,unconnected-(J2-Pad15)*
X114684375Y-25400000D03*
G04 #@! TO.P,J2,16*
G04 #@! TO.N,unconnected-(J2-Pad16)*
X117224375Y-25400000D03*
G04 #@! TO.P,J2,17*
G04 #@! TO.N,unconnected-(J2-Pad17)*
X119764375Y-25400000D03*
G04 #@! TO.P,J2,18*
G04 #@! TO.N,unconnected-(J2-Pad18)*
X122304375Y-25400000D03*
G04 #@! TO.P,J2,19*
G04 #@! TO.N,unconnected-(J2-Pad19)*
X124844375Y-25400000D03*
G04 #@! TO.P,J2,20*
G04 #@! TO.N,unconnected-(J2-Pad20)*
X127384375Y-25400000D03*
G04 #@! TO.P,J2,21*
G04 #@! TO.N,unconnected-(J2-Pad21)*
X129924375Y-25400000D03*
G04 #@! TO.P,J2,22*
G04 #@! TO.N,unconnected-(J2-Pad22)*
X132464375Y-25400000D03*
G04 #@! TO.P,J2,23*
G04 #@! TO.N,unconnected-(J2-Pad23)*
X135004375Y-25400000D03*
G04 #@! TO.P,J2,24*
G04 #@! TO.N,unconnected-(J2-Pad24)*
X137544375Y-25400000D03*
G04 #@! TD*
D17*
G04 #@! TO.P,LOW_SIDE_RELAY1,1,NO*
G04 #@! TO.N,VESC_NEG*
X119315625Y-81562500D03*
G04 #@! TO.P,LOW_SIDE_RELAY1,2,COM*
G04 #@! TO.N,Net-(FUSE_HOLDER1-Pad2)*
X137115625Y-79062500D03*
D18*
G04 #@! TO.P,LOW_SIDE_RELAY1,3,COIL_1*
G04 #@! TO.N,PRE_LOW_DIS*
X123115625Y-66262500D03*
G04 #@! TO.P,LOW_SIDE_RELAY1,4,COIL_2*
G04 #@! TO.N,SIG_GND*
X133315625Y-66262500D03*
G04 #@! TD*
D25*
G04 #@! TO.P,Q4,1,D*
G04 #@! TO.N,PRE_LOW_DIS*
X83185000Y-50951250D03*
D26*
G04 #@! TO.P,Q4,2,G*
G04 #@! TO.N,Net-(Q4-Pad2)*
X85725000Y-50951250D03*
G04 #@! TO.P,Q4,3,S*
G04 #@! TO.N,HIGH_SIDE*
X88265000Y-50951250D03*
G04 #@! TD*
D29*
G04 #@! TO.N,*
X212000000Y-33000000D03*
X67000000Y-33000000D03*
X67000000Y-139000000D03*
X212000000Y-139000000D03*
D30*
G04 #@! TO.N,PRE_LOW_DIS*
X123031250Y-72231250D03*
D31*
G04 #@! TO.N,BATT_POS*
X200025000Y-30162500D03*
G04 #@! TO.N,BATT_NEG*
X178593750Y-30162500D03*
D32*
G04 #@! TO.N,Net-(FUSE_HOLDER1-Pad2)*
X178593750Y-59531250D03*
G04 #@! TD*
D33*
G04 #@! TO.N,+5V*
X82550000Y-97893750D02*
X82550000Y-95401250D01*
X78843750Y-101600000D02*
X82550000Y-97893750D01*
G04 #@! TO.N,PRE_LOW_DIS*
X193878125Y-77312500D02*
X201931250Y-77312500D01*
X115887500Y-73818750D02*
X121443750Y-73818750D01*
X111503125Y-99620000D02*
X118698750Y-99620000D01*
X88106250Y-92868750D02*
X107156250Y-92868750D01*
X87630000Y-97155000D02*
X88900000Y-98425000D01*
X83185000Y-50951250D02*
X83185000Y-53602500D01*
X107156250Y-92868750D02*
X111125000Y-88900000D01*
X196850000Y-142875000D02*
X192881250Y-142875000D01*
X196056250Y-85029375D02*
X195958125Y-84931250D01*
X98425000Y-100806250D02*
X98425000Y-133350000D01*
X195000000Y-99750000D02*
X195262500Y-100012500D01*
X195958125Y-84931250D02*
X195958125Y-79392500D01*
X211137500Y-86518750D02*
X211137500Y-128587500D01*
X107950000Y-142875000D02*
X98425000Y-133350000D01*
X121443750Y-73818750D02*
X123031250Y-72231250D01*
X195000000Y-92075000D02*
X195000000Y-99750000D01*
X98313750Y-95401250D02*
X87630000Y-95401250D01*
X118698750Y-99620000D02*
X119968750Y-100890000D01*
X201931250Y-77312500D02*
X206375000Y-81756250D01*
X87630000Y-95401250D02*
X87630000Y-97155000D01*
X192881250Y-142875000D02*
X107950000Y-142875000D01*
X195958125Y-79392500D02*
X193878125Y-77312500D01*
X87630000Y-95401250D02*
X87630000Y-93345000D01*
X88900000Y-98425000D02*
X96043750Y-98425000D01*
X211137500Y-128587500D02*
X196850000Y-142875000D01*
X87630000Y-93345000D02*
X88106250Y-92868750D01*
X103187500Y-100275000D02*
X98313750Y-95401250D01*
X206375000Y-81756250D02*
X211137500Y-86518750D01*
X111503125Y-99620000D02*
X103842500Y-99620000D01*
X96043750Y-98425000D02*
X98425000Y-100806250D01*
X103842500Y-99620000D02*
X103187500Y-100275000D01*
X111125000Y-78581250D02*
X115887500Y-73818750D01*
X111125000Y-88900000D02*
X111125000Y-78581250D01*
X195000000Y-92075000D02*
X196056250Y-91018750D01*
X196056250Y-91018750D02*
X196056250Y-85029375D01*
X83185000Y-53602500D02*
X78843750Y-57943750D01*
G04 #@! TO.N,HIGH_SIDE*
X88265000Y-50951250D02*
X149511875Y-50951250D01*
X149511875Y-50951250D02*
X154841875Y-56281250D01*
D34*
G04 #@! TO.N,BATT_POS*
X200025000Y-46831250D02*
X187325000Y-59531250D01*
X168071875Y-79062500D02*
X178112500Y-79062500D01*
X200025000Y-30162500D02*
X200025000Y-46831250D01*
X187325000Y-59531250D02*
X187325000Y-69850000D01*
X178112500Y-79062500D02*
X187325000Y-69850000D01*
G04 #@! TO.N,VESC_POS*
X203578125Y-126925000D02*
X205959375Y-124543750D01*
X205959375Y-124543750D02*
X205959375Y-113590000D01*
X130711875Y-127718750D02*
X130711875Y-120416250D01*
X178290625Y-113506250D02*
X178290625Y-122275000D01*
X166196875Y-113506250D02*
X178290625Y-113506250D01*
X134521875Y-116606250D02*
X163096875Y-116606250D01*
X163096875Y-116606250D02*
X166196875Y-113506250D01*
X196593125Y-126925000D02*
X203578125Y-126925000D01*
X182940625Y-126925000D02*
X196593125Y-126925000D01*
X178290625Y-122275000D02*
X182940625Y-126925000D01*
X130711875Y-120416250D02*
X134521875Y-116606250D01*
G04 #@! TO.N,BATT_NEG*
X178593750Y-37253750D02*
X175563750Y-40283750D01*
X178593750Y-30162500D02*
X178593750Y-37253750D01*
X181623750Y-40283750D02*
X178593750Y-37253750D01*
X175563750Y-40283750D02*
X181623750Y-40283750D01*
D33*
G04 #@! TO.N,HIGH_SIDE_STM*
X78843750Y-80168750D02*
X78843750Y-73080000D01*
X78843750Y-73080000D02*
X78898750Y-73025000D01*
G04 #@! TO.N,PRE_LOW_DIS_STM*
X78843750Y-116736250D02*
X78898750Y-116681250D01*
X78843750Y-123825000D02*
X78843750Y-116736250D01*
D34*
G04 #@! TO.N,Net-(PRECHARGE_RELAY1-Pad3)*
X201931250Y-71912500D02*
X205959375Y-67884375D01*
X196056250Y-71912500D02*
X201931250Y-71912500D01*
X205959375Y-67884375D02*
X205959375Y-57710000D01*
D33*
G04 #@! TO.N,SIG_GND*
X109840625Y-69850000D02*
X138112500Y-69850000D01*
X87843750Y-80168750D02*
X83343750Y-80168750D01*
X104775000Y-42862500D02*
X67468750Y-42862500D01*
X170693525Y-96043750D02*
X184943750Y-96043750D01*
X99521875Y-80168750D02*
X109840625Y-69850000D01*
X107064375Y-45212000D02*
X107064375Y-42770625D01*
X66675000Y-79375000D02*
X72231250Y-84931250D01*
X185798125Y-84931250D02*
X185798125Y-79392500D01*
X118698750Y-109780000D02*
X119968750Y-108510000D01*
X66675000Y-41275000D02*
X65087500Y-42862500D01*
X103692500Y-109780000D02*
X103187500Y-109275000D01*
X65087500Y-125412500D02*
X69056250Y-129381250D01*
X107064375Y-45212000D02*
X107064375Y-45151875D01*
X184943750Y-96043750D02*
X186000000Y-94987500D01*
X107064375Y-42770625D02*
X105568750Y-41275000D01*
X107064375Y-45151875D02*
X104775000Y-42862500D01*
X85725000Y-129381250D02*
X87843750Y-127262500D01*
X138112500Y-69850000D02*
X144462500Y-63500000D01*
X83343750Y-80168750D02*
X80168750Y-76993750D01*
X111503125Y-109780000D02*
X118698750Y-109780000D01*
X66675000Y-43656250D02*
X66675000Y-79375000D01*
X131315625Y-68262500D02*
X109140625Y-68262500D01*
X89431250Y-78581250D02*
X87843750Y-80168750D01*
X186000000Y-94987500D02*
X186000000Y-92075000D01*
X80168750Y-120650000D02*
X80168750Y-116681250D01*
X88106250Y-80431250D02*
X87843750Y-80168750D01*
X88106250Y-81756250D02*
X88106250Y-80431250D01*
X84931250Y-84931250D02*
X88106250Y-81756250D01*
X80168750Y-76993750D02*
X80168750Y-73025000D01*
X65087500Y-42862500D02*
X65087500Y-125412500D01*
X154893525Y-111843750D02*
X167209025Y-99528250D01*
X161509375Y-63500000D02*
X164271875Y-66262500D01*
X83343750Y-123825000D02*
X80168750Y-120650000D01*
X144462500Y-63500000D02*
X161509375Y-63500000D01*
X184943750Y-85785625D02*
X185798125Y-84931250D01*
X184943750Y-91018750D02*
X184943750Y-85785625D01*
X185798125Y-79392500D02*
X187878125Y-77312500D01*
X87843750Y-80168750D02*
X99521875Y-80168750D01*
X105568750Y-41275000D02*
X66675000Y-41275000D01*
X133315625Y-66262500D02*
X131315625Y-68262500D01*
X113566875Y-111843750D02*
X154893525Y-111843750D01*
X87843750Y-123825000D02*
X83343750Y-123825000D01*
X109140625Y-68262500D02*
X98821875Y-78581250D01*
X67468750Y-42862500D02*
X66675000Y-43656250D01*
X167209025Y-99528250D02*
X170693525Y-96043750D01*
X72231250Y-84931250D02*
X84931250Y-84931250D01*
X186000000Y-92075000D02*
X184943750Y-91018750D01*
X69056250Y-129381250D02*
X85725000Y-129381250D01*
X87843750Y-127262500D02*
X87843750Y-123825000D01*
X111503125Y-109780000D02*
X113566875Y-111843750D01*
X98821875Y-78581250D02*
X89431250Y-78581250D01*
X111503125Y-109780000D02*
X103692500Y-109780000D01*
D34*
G04 #@! TO.N,Net-(FUSE_HOLDER1-Pad2)*
X180830000Y-50203750D02*
X178593750Y-52440000D01*
X178593750Y-59531250D02*
X178593750Y-52440000D01*
X176357500Y-50203750D02*
X180830000Y-50203750D01*
D33*
G04 #@! TO.N,Net-(Q1-Pad3)*
X77628750Y-116681250D02*
X77628750Y-109958750D01*
X77628750Y-109958750D02*
X78843750Y-108743750D01*
X71437500Y-108743750D02*
X78843750Y-108743750D01*
G04 #@! TO.N,Net-(Q3-Pad2)*
X87843750Y-108743750D02*
X87843750Y-101600000D01*
X87843750Y-101600000D02*
X85090000Y-98846250D01*
X88106250Y-109006250D02*
X87843750Y-108743750D01*
X85090000Y-98846250D02*
X85090000Y-95401250D01*
X88106250Y-117475000D02*
X88106250Y-109006250D01*
G04 #@! TO.N,Net-(Q4-Pad2)*
X88106250Y-73025000D02*
X88106250Y-65350000D01*
X87843750Y-65087500D02*
X87843750Y-57943750D01*
X85725000Y-55825000D02*
X87843750Y-57943750D01*
X88106250Y-65350000D02*
X87843750Y-65087500D01*
X85725000Y-50951250D02*
X85725000Y-55825000D01*
G04 #@! TO.N,Net-(Q2-Pad3)*
X77628750Y-73025000D02*
X77628750Y-66302500D01*
X72231250Y-65087500D02*
X78843750Y-65087500D01*
X77628750Y-66302500D02*
X78843750Y-65087500D01*
G04 #@! TD*
M02*
