G04 #@! TF.GenerationSoftware,KiCad,Pcbnew,7.0.8*
G04 #@! TF.CreationDate,2023-11-09T10:36:57-05:00*
G04 #@! TF.ProjectId,mecc-pcb-kicad,6d656363-2d70-4636-922d-6b696361642e,v1*
G04 #@! TF.SameCoordinates,Original*
G04 #@! TF.FileFunction,Copper,L2,Bot*
G04 #@! TF.FilePolarity,Positive*
%FSLAX46Y46*%
G04 Gerber Fmt 4.6, Leading zero omitted, Abs format (unit mm)*
G04 Created by KiCad (PCBNEW 7.0.8) date 2023-11-09 10:36:57*
%MOMM*%
%LPD*%
G01*
G04 APERTURE LIST*
G04 Aperture macros list*
%AMRoundRect*
0 Rectangle with rounded corners*
0 $1 Rounding radius*
0 $2 $3 $4 $5 $6 $7 $8 $9 X,Y pos of 4 corners*
0 Add a 4 corners polygon primitive as box body*
4,1,4,$2,$3,$4,$5,$6,$7,$8,$9,$2,$3,0*
0 Add four circle primitives for the rounded corners*
1,1,$1+$1,$2,$3*
1,1,$1+$1,$4,$5*
1,1,$1+$1,$6,$7*
1,1,$1+$1,$8,$9*
0 Add four rect primitives between the rounded corners*
20,1,$1+$1,$2,$3,$4,$5,0*
20,1,$1+$1,$4,$5,$6,$7,0*
20,1,$1+$1,$6,$7,$8,$9,0*
20,1,$1+$1,$8,$9,$2,$3,0*%
G04 Aperture macros list end*
G04 #@! TA.AperFunction,ComponentPad*
%ADD10R,4.000000X4.000000*%
G04 #@! TD*
G04 #@! TA.AperFunction,ComponentPad*
%ADD11C,1.400000*%
G04 #@! TD*
G04 #@! TA.AperFunction,ComponentPad*
%ADD12O,1.400000X1.400000*%
G04 #@! TD*
G04 #@! TA.AperFunction,ComponentPad*
%ADD13O,1.050000X1.500000*%
G04 #@! TD*
G04 #@! TA.AperFunction,ComponentPad*
%ADD14R,1.050000X1.500000*%
G04 #@! TD*
G04 #@! TA.AperFunction,ComponentPad*
%ADD15C,8.000000*%
G04 #@! TD*
G04 #@! TA.AperFunction,ComponentPad*
%ADD16R,2.400000X2.400000*%
G04 #@! TD*
G04 #@! TA.AperFunction,ComponentPad*
%ADD17O,2.400000X2.400000*%
G04 #@! TD*
G04 #@! TA.AperFunction,ComponentPad*
%ADD18R,1.950000X1.950000*%
G04 #@! TD*
G04 #@! TA.AperFunction,ComponentPad*
%ADD19C,1.950000*%
G04 #@! TD*
G04 #@! TA.AperFunction,ComponentPad*
%ADD20C,6.000000*%
G04 #@! TD*
G04 #@! TA.AperFunction,ComponentPad*
%ADD21C,1.500000*%
G04 #@! TD*
G04 #@! TA.AperFunction,ComponentPad*
%ADD22R,2.200000X2.200000*%
G04 #@! TD*
G04 #@! TA.AperFunction,ComponentPad*
%ADD23O,2.200000X2.200000*%
G04 #@! TD*
G04 #@! TA.AperFunction,ComponentPad*
%ADD24C,3.750000*%
G04 #@! TD*
G04 #@! TA.AperFunction,ComponentPad*
%ADD25C,1.650000*%
G04 #@! TD*
G04 #@! TA.AperFunction,ComponentPad*
%ADD26C,2.400000*%
G04 #@! TD*
G04 #@! TA.AperFunction,ComponentPad*
%ADD27R,1.450000X1.450000*%
G04 #@! TD*
G04 #@! TA.AperFunction,ComponentPad*
%ADD28C,1.450000*%
G04 #@! TD*
G04 #@! TA.AperFunction,ComponentPad*
%ADD29R,1.500000X1.500000*%
G04 #@! TD*
G04 #@! TA.AperFunction,ComponentPad*
%ADD30C,2.300000*%
G04 #@! TD*
G04 #@! TA.AperFunction,ComponentPad*
%ADD31RoundRect,0.250000X0.620000X0.845000X-0.620000X0.845000X-0.620000X-0.845000X0.620000X-0.845000X0*%
G04 #@! TD*
G04 #@! TA.AperFunction,ComponentPad*
%ADD32O,1.740000X2.190000*%
G04 #@! TD*
G04 #@! TA.AperFunction,ComponentPad*
%ADD33RoundRect,0.250000X0.845000X-0.620000X0.845000X0.620000X-0.845000X0.620000X-0.845000X-0.620000X0*%
G04 #@! TD*
G04 #@! TA.AperFunction,ComponentPad*
%ADD34O,2.190000X1.740000*%
G04 #@! TD*
G04 #@! TA.AperFunction,ComponentPad*
%ADD35R,1.700000X1.700000*%
G04 #@! TD*
G04 #@! TA.AperFunction,ComponentPad*
%ADD36O,1.700000X1.700000*%
G04 #@! TD*
G04 #@! TA.AperFunction,ComponentPad*
%ADD37R,2.250000X2.250000*%
G04 #@! TD*
G04 #@! TA.AperFunction,ComponentPad*
%ADD38C,2.250000*%
G04 #@! TD*
G04 #@! TA.AperFunction,ComponentPad*
%ADD39O,1.905000X2.000000*%
G04 #@! TD*
G04 #@! TA.AperFunction,ComponentPad*
%ADD40R,1.905000X2.000000*%
G04 #@! TD*
G04 #@! TA.AperFunction,ComponentPad*
%ADD41C,10.160000*%
G04 #@! TD*
G04 #@! TA.AperFunction,ComponentPad*
%ADD42RoundRect,0.250000X-0.620000X-0.845000X0.620000X-0.845000X0.620000X0.845000X-0.620000X0.845000X0*%
G04 #@! TD*
G04 #@! TA.AperFunction,ViaPad*
%ADD43C,0.800000*%
G04 #@! TD*
G04 #@! TA.AperFunction,ViaPad*
%ADD44C,0.500000*%
G04 #@! TD*
G04 #@! TA.AperFunction,Conductor*
%ADD45C,0.400000*%
G04 #@! TD*
G04 #@! TA.AperFunction,Conductor*
%ADD46C,1.450000*%
G04 #@! TD*
G04 #@! TA.AperFunction,Conductor*
%ADD47C,6.450000*%
G04 #@! TD*
G04 #@! TA.AperFunction,Conductor*
%ADD48C,0.300000*%
G04 #@! TD*
G04 APERTURE END LIST*
D10*
G04 #@! TO.P,TP7,1,1*
G04 #@! TO.N,PRE_DIS*
X172000000Y-154000000D03*
G04 #@! TD*
G04 #@! TO.P,24V_1,1,1*
G04 #@! TO.N,+24V*
X125900000Y-196200000D03*
G04 #@! TD*
D11*
G04 #@! TO.P,R7,1*
G04 #@! TO.N,GND*
X117300000Y-135100000D03*
D12*
G04 #@! TO.P,R7,2*
G04 #@! TO.N,ADVANCE_BUTTON_RED*
X117300000Y-127480000D03*
G04 #@! TD*
D13*
G04 #@! TO.P,Q1,1,S*
G04 #@! TO.N,GND*
X156445000Y-187099375D03*
G04 #@! TO.P,Q1,2,G*
G04 #@! TO.N,PRE_DIS_ANDOUT*
X157715000Y-187099375D03*
D14*
G04 #@! TO.P,Q1,3,D*
G04 #@! TO.N,Net-(Q1-D)*
X158985000Y-187099375D03*
G04 #@! TD*
D10*
G04 #@! TO.P,5V_1,1,1*
G04 #@! TO.N,+5V*
X137250000Y-196250000D03*
G04 #@! TD*
D15*
G04 #@! TO.P,,1*
G04 #@! TO.N,BATT_POS*
X266000000Y-89000000D03*
G04 #@! TD*
G04 #@! TO.P,,1*
G04 #@! TO.N,BATT_NEG*
X210000000Y-89000000D03*
G04 #@! TD*
D16*
G04 #@! TO.P,C1,1*
G04 #@! TO.N,BATT_POS*
X182000000Y-115000000D03*
D17*
G04 #@! TO.P,C1,2*
G04 #@! TO.N,VESC_NEG*
X200000000Y-115000000D03*
G04 #@! TD*
D18*
G04 #@! TO.P,DISCHARGE_RELAY1,11,COM*
G04 #@! TO.N,VESC_NEG*
X197335000Y-167005000D03*
D19*
G04 #@! TO.P,DISCHARGE_RELAY1,12,NC*
G04 #@! TO.N,Net-(DISCHARGE_RELAY1-NC)*
X202375000Y-159385000D03*
G04 #@! TO.P,DISCHARGE_RELAY1,A1,COIL_1*
G04 #@! TO.N,GND*
X178435000Y-167005000D03*
G04 #@! TO.P,DISCHARGE_RELAY1,A2,COIL_2*
G04 #@! TO.N,PRE_DIS*
X178435000Y-159385000D03*
G04 #@! TD*
D11*
G04 #@! TO.P,R_RELAY_PULLDOWN1,1*
G04 #@! TO.N,GND*
X261882500Y-151447500D03*
D12*
G04 #@! TO.P,R_RELAY_PULLDOWN1,2*
G04 #@! TO.N,PRE_DIS*
X269502500Y-151447500D03*
G04 #@! TD*
D11*
G04 #@! TO.P,R_RELAY_PULLDOWN3,1*
G04 #@! TO.N,GND*
X244721875Y-101900000D03*
D12*
G04 #@! TO.P,R_RELAY_PULLDOWN3,2*
G04 #@! TO.N,HIGH_SIDE*
X237101875Y-101900000D03*
G04 #@! TD*
D20*
G04 #@! TO.P,U1,2,GND*
G04 #@! TO.N,VESC_NEG*
X248104600Y-161428000D03*
G04 #@! TO.P,U1,4,+IN*
G04 #@! TO.N,Net-(HIGH_SIDE_RELAY1-NO)*
X240481600Y-155205000D03*
G04 #@! TO.P,U1,5,+OUT*
G04 #@! TO.N,VESC_POS*
X240481600Y-167778000D03*
D21*
G04 #@! TO.P,U1,6,Iout*
G04 #@! TO.N,BATT_CURR_SENSOR*
X234480000Y-153800000D03*
G04 #@! TO.P,U1,7,Vout*
G04 #@! TO.N,BATT_V_SENSOR*
X231940000Y-153800000D03*
G04 #@! TO.P,U1,8,SIG_GND*
G04 #@! TO.N,GND*
X229400000Y-153800000D03*
G04 #@! TD*
D10*
G04 #@! TO.P,TP5,1,1*
G04 #@! TO.N,PRE_DIS*
X271145000Y-159385000D03*
G04 #@! TD*
G04 #@! TO.P,TP14,1,1*
G04 #@! TO.N,BATT_POS*
X162350000Y-118550000D03*
G04 #@! TD*
D11*
G04 #@! TO.P,R6,1*
G04 #@! TO.N,BATT_V_SENSOR*
X100000000Y-86000000D03*
D12*
G04 #@! TO.P,R6,2*
G04 #@! TO.N,/A4*
X100000000Y-93620000D03*
G04 #@! TD*
D10*
G04 #@! TO.P,TP3,1,1*
G04 #@! TO.N,Net-(Q3-G)*
X166883750Y-187849375D03*
G04 #@! TD*
D22*
G04 #@! TO.P,D3,1,K*
G04 #@! TO.N,HIGH_SIDE*
X235520000Y-108968750D03*
D23*
G04 #@! TO.P,D3,2,A*
G04 #@! TO.N,GND*
X245680000Y-108968750D03*
G04 #@! TD*
D10*
G04 #@! TO.P,3.3V_1,1,1*
G04 #@! TO.N,+3.3V*
X115700000Y-196000000D03*
G04 #@! TD*
D11*
G04 #@! TO.P,RHIGH_10k2,1*
G04 #@! TO.N,GND*
X166621250Y-194199375D03*
D12*
G04 #@! TO.P,RHIGH_10k2,2*
G04 #@! TO.N,PRE_DIS_ANDOUT*
X159001250Y-194199375D03*
G04 #@! TD*
D24*
G04 #@! TO.P,HIGH_SIDE_RELAY1,1,NO*
G04 #@! TO.N,Net-(HIGH_SIDE_RELAY1-NO)*
X230950000Y-134250000D03*
G04 #@! TO.P,HIGH_SIDE_RELAY1,2,COM*
G04 #@! TO.N,BATT_POS*
X248750000Y-131750000D03*
D25*
G04 #@! TO.P,HIGH_SIDE_RELAY1,3,COIL_1*
G04 #@! TO.N,HIGH_SIDE*
X234750000Y-118950000D03*
G04 #@! TO.P,HIGH_SIDE_RELAY1,4,COIL_2*
G04 #@! TO.N,GND*
X244950000Y-118950000D03*
G04 #@! TD*
D10*
G04 #@! TO.P,TP17,1,1*
G04 #@! TO.N,DCDC_SW*
X143000000Y-86350000D03*
G04 #@! TD*
D11*
G04 #@! TO.P,R9,1*
G04 #@! TO.N,/A1*
X101900000Y-127500000D03*
D12*
G04 #@! TO.P,R9,2*
G04 #@! TO.N,GND*
X101900000Y-135120000D03*
G04 #@! TD*
D11*
G04 #@! TO.P,RHIGH_10k4,1*
G04 #@! TO.N,Net-(Q4-G)*
X212737500Y-136656250D03*
D12*
G04 #@! TO.P,RHIGH_10k4,2*
G04 #@! TO.N,Net-(Q2-D)*
X205117500Y-136656250D03*
G04 #@! TD*
D10*
G04 #@! TO.P,GND_1,1,1*
G04 #@! TO.N,GND*
X174700000Y-121250000D03*
G04 #@! TD*
D11*
G04 #@! TO.P,RHIGH_10k1,1*
G04 #@! TO.N,GND*
X208200000Y-151700000D03*
D12*
G04 #@! TO.P,RHIGH_10k1,2*
G04 #@! TO.N,HIGH_SIDE_ANDOUT*
X200580000Y-151700000D03*
G04 #@! TD*
D11*
G04 #@! TO.P,R3,1*
G04 #@! TO.N,/A3*
X105700000Y-127400000D03*
D12*
G04 #@! TO.P,R3,2*
G04 #@! TO.N,WAVE_GAUGE*
X105700000Y-135020000D03*
G04 #@! TD*
D10*
G04 #@! TO.P,TP4,1,1*
G04 #@! TO.N,Net-(Q4-G)*
X211000000Y-142800000D03*
G04 #@! TD*
D22*
G04 #@! TO.P,D4,1,K*
G04 #@! TO.N,PRE_DIS*
X173335000Y-175199375D03*
D23*
G04 #@! TO.P,D4,2,A*
G04 #@! TO.N,GND*
X183495000Y-175199375D03*
G04 #@! TD*
D26*
G04 #@! TO.P,R_PRECHARGE1,1*
G04 #@! TO.N,VESC_POS*
X281841875Y-172962500D03*
D17*
G04 #@! TO.P,R_PRECHARGE1,2*
G04 #@! TO.N,Net-(PRECHARGE_RELAY1-COM)*
X281841875Y-117082500D03*
G04 #@! TD*
D27*
G04 #@! TO.P,J2,1,Pin_1*
G04 #@! TO.N,VESC_NEG*
X195580000Y-101000000D03*
D28*
G04 #@! TO.P,J2,2,Pin_2*
G04 #@! TO.N,BATT_POS*
X193040000Y-101000000D03*
G04 #@! TO.P,J2,3,Pin_3*
G04 #@! TO.N,DCDC_SW*
X190500000Y-101000000D03*
G04 #@! TO.P,J2,4,Pin_4*
G04 #@! TO.N,unconnected-(J2-Pin_4-Pad4)*
X187960000Y-101000000D03*
G04 #@! TO.P,J2,5,Pin_5*
G04 #@! TO.N,unconnected-(J2-Pin_5-Pad5)*
X185420000Y-101000000D03*
G04 #@! TO.P,J2,6,Pin_6*
G04 #@! TO.N,+5V*
X182880000Y-101000000D03*
G04 #@! TO.P,J2,7,Pin_7*
G04 #@! TO.N,GND*
X180340000Y-101000000D03*
G04 #@! TO.P,J2,8,Pin_8*
G04 #@! TO.N,unconnected-(J2-Pin_8-Pad8)*
X177800000Y-101000000D03*
G04 #@! TD*
D29*
G04 #@! TO.P,J3,1,Pin_1*
G04 #@! TO.N,unconnected-(J3-Pin_1-Pad1)*
X84400000Y-157700000D03*
D21*
G04 #@! TO.P,J3,2,Pin_2*
G04 #@! TO.N,unconnected-(J3-Pin_2-Pad2)*
X86180000Y-156684000D03*
G04 #@! TO.P,J3,3,Pin_3*
G04 #@! TO.N,unconnected-(J3-Pin_3-Pad3)*
X84400000Y-155668000D03*
G04 #@! TO.P,J3,4,Pin_4*
G04 #@! TO.N,WAVE_GAUGE*
X86180000Y-154652000D03*
G04 #@! TO.P,J3,5,Pin_5*
G04 #@! TO.N,GND*
X84400000Y-153636000D03*
G04 #@! TO.P,J3,6,Pin_6*
X86180000Y-152620000D03*
G04 #@! TO.P,J3,7,Pin_7*
G04 #@! TO.N,unconnected-(J3-Pin_7-Pad7)*
X84400000Y-151604000D03*
G04 #@! TO.P,J3,8,Pin_8*
G04 #@! TO.N,unconnected-(J3-Pin_8-Pad8)*
X86180000Y-150588000D03*
G04 #@! TO.P,J3,9*
G04 #@! TO.N,N/C*
X91000000Y-161000000D03*
G04 #@! TO.P,J3,10*
X91000000Y-158710000D03*
G04 #@! TO.P,J3,11*
X91000000Y-149570000D03*
G04 #@! TO.P,J3,12*
X91000000Y-147280000D03*
D30*
G04 #@! TO.P,J3,SH*
X85290000Y-162270000D03*
X85290000Y-146010000D03*
G04 #@! TD*
D31*
G04 #@! TO.P,J7,1,Pin_1*
G04 #@! TO.N,GND*
X171450000Y-86360000D03*
D32*
G04 #@! TO.P,J7,2,Pin_2*
G04 #@! TO.N,+3.3V*
X168910000Y-86360000D03*
G04 #@! TO.P,J7,3,Pin_3*
G04 #@! TO.N,IO_ESTOP*
X166370000Y-86360000D03*
G04 #@! TO.P,J7,4,Pin_4*
G04 #@! TO.N,ADVANCE_BUTTON_RED*
X163830000Y-86360000D03*
G04 #@! TO.P,J7,5,Pin_5*
G04 #@! TO.N,RESET*
X161290000Y-86360000D03*
G04 #@! TO.P,J7,6,Pin_6*
G04 #@! TO.N,TORQ_SWITCH_1*
X158750000Y-86360000D03*
G04 #@! TO.P,J7,7,Pin_7*
G04 #@! TO.N,TORQ_SWITCH_2*
X156210000Y-86360000D03*
G04 #@! TO.P,J7,8,Pin_8*
G04 #@! TO.N,Ref_Model_SW*
X153670000Y-86360000D03*
G04 #@! TO.P,J7,9,Pin_9*
G04 #@! TO.N,DCDC_SW*
X151130000Y-86360000D03*
G04 #@! TD*
D26*
G04 #@! TO.P,R_DISCHARGE1,1*
G04 #@! TO.N,Net-(DISCHARGE_RELAY1-NC)*
X225950000Y-186250000D03*
D17*
G04 #@! TO.P,R_DISCHARGE1,2*
G04 #@! TO.N,VESC_POS*
X281830000Y-186250000D03*
G04 #@! TD*
D33*
G04 #@! TO.P,J6,1,Pin_1*
G04 #@! TO.N,VESC_OUTPUT*
X83750000Y-138500000D03*
D34*
G04 #@! TO.P,J6,2,Pin_2*
G04 #@! TO.N,VESC_INPUT*
X83750000Y-135960000D03*
G04 #@! TO.P,J6,3,Pin_3*
G04 #@! TO.N,VESC_POWER_SWITCH*
X83750000Y-133420000D03*
G04 #@! TO.P,J6,4,Pin_4*
G04 #@! TO.N,GND*
X83750000Y-130880000D03*
G04 #@! TO.P,J6,5*
G04 #@! TO.N,N/C*
X83750000Y-128340000D03*
G04 #@! TD*
D11*
G04 #@! TO.P,R8,1*
G04 #@! TO.N,GND*
X121100000Y-135000000D03*
D12*
G04 #@! TO.P,R8,2*
G04 #@! TO.N,IO_ESTOP*
X121100000Y-127380000D03*
G04 #@! TD*
D35*
G04 #@! TO.P,JP1,1,1*
G04 #@! TO.N,VBAT*
X96520000Y-119380000D03*
D36*
G04 #@! TO.P,JP1,2,2*
G04 #@! TO.N,/EN*
X99060000Y-119380000D03*
G04 #@! TO.P,JP1,3,3*
G04 #@! TO.N,VBUS*
X101600000Y-119380000D03*
G04 #@! TO.P,JP1,4,4*
G04 #@! TO.N,/D13*
X104140000Y-119380000D03*
G04 #@! TO.P,JP1,5,5*
G04 #@! TO.N,Torq_SW_Mode_1*
X106680000Y-119380000D03*
G04 #@! TO.P,JP1,6,6*
G04 #@! TO.N,Torq_SW_Mode_2*
X109220000Y-119380000D03*
G04 #@! TO.P,JP1,7,7*
G04 #@! TO.N,Torq_SW_Mode_3*
X111760000Y-119380000D03*
G04 #@! TO.P,JP1,8,8*
G04 #@! TO.N,Ref_Model_SW*
X114300000Y-119380000D03*
G04 #@! TO.P,JP1,9,9*
G04 #@! TO.N,ADVANCE_BUTTON_RED*
X116840000Y-119380000D03*
G04 #@! TO.P,JP1,10,10*
G04 #@! TO.N,IO_ESTOP*
X119380000Y-119380000D03*
G04 #@! TO.P,JP1,11,11*
G04 #@! TO.N,/SCL*
X121920000Y-119380000D03*
G04 #@! TO.P,JP1,12,12*
G04 #@! TO.N,/SDA*
X124460000Y-119380000D03*
G04 #@! TD*
D10*
G04 #@! TO.P,TP16,1,1*
G04 #@! TO.N,IO_ESTOP*
X123100000Y-150700000D03*
G04 #@! TD*
G04 #@! TO.P,TP2,1,1*
G04 #@! TO.N,Net-(Q1-D)*
X151750000Y-177750000D03*
G04 #@! TD*
D15*
G04 #@! TO.P,GND,1*
G04 #@! TO.N,GND*
X78000000Y-88000000D03*
G04 #@! TD*
D10*
G04 #@! TO.P,TP18,1,1*
G04 #@! TO.N,Net-(J5-CTRL)*
X147550000Y-154200000D03*
G04 #@! TD*
G04 #@! TO.P,TP8,1,1*
G04 #@! TO.N,PRE_DIS_ANDOUT*
X166752000Y-142591000D03*
G04 #@! TD*
D11*
G04 #@! TO.P,RHIGH_10k3,1*
G04 #@! TO.N,Net-(Q3-G)*
X166621250Y-179118125D03*
D12*
G04 #@! TO.P,RHIGH_10k3,2*
G04 #@! TO.N,Net-(Q1-D)*
X159001250Y-179118125D03*
G04 #@! TD*
D11*
G04 #@! TO.P,R11,1*
G04 #@! TO.N,Net-(J5-CTRL)*
X162690000Y-107500000D03*
D12*
G04 #@! TO.P,R11,2*
G04 #@! TO.N,GND*
X170310000Y-107500000D03*
G04 #@! TD*
D11*
G04 #@! TO.P,RHIGH_10k5,1*
G04 #@! TO.N,Net-(Q3-G)*
X166621250Y-171974375D03*
D12*
G04 #@! TO.P,RHIGH_10k5,2*
G04 #@! TO.N,+5V*
X159001250Y-171974375D03*
G04 #@! TD*
D37*
G04 #@! TO.P,J5,1,CTRL*
G04 #@! TO.N,Net-(J5-CTRL)*
X158115000Y-145415000D03*
D38*
G04 #@! TO.P,J5,2,GND*
G04 #@! TO.N,VESC_NEG*
X158115000Y-137795000D03*
G04 #@! TO.P,J5,3,VIN*
G04 #@! TO.N,BATT_POS*
X158115000Y-132715000D03*
G04 #@! TO.P,J5,4,+VO*
G04 #@! TO.N,+24V*
X137795000Y-125095000D03*
G04 #@! TO.P,J5,5,0V*
G04 #@! TO.N,unconnected-(J5-0V-Pad5)*
X137795000Y-135255000D03*
G04 #@! TO.P,J5,6,-VO*
G04 #@! TO.N,GND*
X137795000Y-145415000D03*
G04 #@! TD*
D10*
G04 #@! TO.P,TP15,1,1*
G04 #@! TO.N,VESC_NEG*
X128750000Y-150600000D03*
G04 #@! TD*
D39*
G04 #@! TO.P,Q3,1,D*
G04 #@! TO.N,+5V*
X163875000Y-165775625D03*
D40*
G04 #@! TO.P,Q3,2,G*
G04 #@! TO.N,Net-(Q3-G)*
X161335000Y-165775625D03*
D39*
G04 #@! TO.P,Q3,3,S*
G04 #@! TO.N,PRE_DIS*
X166415000Y-165775625D03*
G04 #@! TD*
D11*
G04 #@! TO.P,RHIGH_10k6,1*
G04 #@! TO.N,Net-(Q4-G)*
X212737500Y-129512500D03*
D12*
G04 #@! TO.P,RHIGH_10k6,2*
G04 #@! TO.N,PRE_DIS*
X205117500Y-129512500D03*
G04 #@! TD*
D41*
G04 #@! TO.P,J1,1,Pin_1*
G04 #@! TO.N,VESC_POS*
X265000000Y-201500000D03*
G04 #@! TO.P,J1,2,Pin_2*
G04 #@! TO.N,VESC_NEG*
X235030000Y-201500000D03*
G04 #@! TD*
D11*
G04 #@! TO.P,R2,1*
G04 #@! TO.N,Net-(R1-Pad2)*
X108200000Y-162700000D03*
D12*
G04 #@! TO.P,R2,2*
G04 #@! TO.N,+5V*
X115820000Y-162700000D03*
G04 #@! TD*
D10*
G04 #@! TO.P,TP13,1,1*
G04 #@! TO.N,GND*
X90750000Y-140000000D03*
G04 #@! TD*
G04 #@! TO.P,TP1,1,1*
G04 #@! TO.N,Net-(Q2-D)*
X197125000Y-136656250D03*
G04 #@! TD*
D11*
G04 #@! TO.P,R12,1*
G04 #@! TO.N,DCDC_SW*
X162690000Y-111750000D03*
D12*
G04 #@! TO.P,R12,2*
G04 #@! TO.N,GND*
X170310000Y-111750000D03*
G04 #@! TD*
D15*
G04 #@! TO.P,GND,1*
G04 #@! TO.N,GND*
X292000000Y-88000000D03*
G04 #@! TD*
D10*
G04 #@! TO.P,TP6,1,1*
G04 #@! TO.N,HIGH_SIDE*
X228315625Y-109043750D03*
G04 #@! TD*
G04 #@! TO.P,TP11,1,1*
G04 #@! TO.N,/A3*
X109250000Y-150700000D03*
G04 #@! TD*
D11*
G04 #@! TO.P,R_RELAY_PULLDOWN4,1*
G04 #@! TO.N,PRE_DIS*
X173990000Y-183515000D03*
D12*
G04 #@! TO.P,R_RELAY_PULLDOWN4,2*
G04 #@! TO.N,GND*
X181610000Y-183515000D03*
G04 #@! TD*
D11*
G04 #@! TO.P,R13,1*
G04 #@! TO.N,GND*
X94600000Y-143100000D03*
D12*
G04 #@! TO.P,R13,2*
G04 #@! TO.N,VESC_NEG*
X102220000Y-143100000D03*
G04 #@! TD*
D42*
G04 #@! TO.P,J9,1,Pin_1*
G04 #@! TO.N,GND*
X191020000Y-182900000D03*
D32*
G04 #@! TO.P,J9,2,Pin_2*
G04 #@! TO.N,BATT_CURR_SENSOR*
X193560000Y-182900000D03*
G04 #@! TO.P,J9,3,Pin_3*
G04 #@! TO.N,BATT_V_SENSOR*
X196100000Y-182900000D03*
G04 #@! TD*
D11*
G04 #@! TO.P,R4,1*
G04 #@! TO.N,GND*
X109500000Y-135000000D03*
D12*
G04 #@! TO.P,R4,2*
G04 #@! TO.N,/A3*
X109500000Y-127380000D03*
G04 #@! TD*
D22*
G04 #@! TO.P,D1,1,K*
G04 #@! TO.N,PRE_DIS*
X272080000Y-144300000D03*
D23*
G04 #@! TO.P,D1,2,A*
G04 #@! TO.N,GND*
X261920000Y-144300000D03*
G04 #@! TD*
D11*
G04 #@! TO.P,R1,1*
G04 #@! TO.N,TORQUE_SENSOR*
X98150000Y-162800000D03*
D12*
G04 #@! TO.P,R1,2*
G04 #@! TO.N,Net-(R1-Pad2)*
X105770000Y-162800000D03*
G04 #@! TD*
D42*
G04 #@! TO.P,J8,1,Pin_1*
G04 #@! TO.N,GND*
X98000000Y-168400000D03*
D32*
G04 #@! TO.P,J8,2,Pin_2*
G04 #@! TO.N,TORQUE_SENSOR*
X100540000Y-168400000D03*
G04 #@! TO.P,J8,3,Pin_3*
G04 #@! TO.N,GND*
X103080000Y-168400000D03*
G04 #@! TO.P,J8,4,Pin_4*
G04 #@! TO.N,+24V*
X105620000Y-168400000D03*
G04 #@! TD*
D10*
G04 #@! TO.P,TP12,1,1*
G04 #@! TO.N,/A4*
X114800000Y-150700000D03*
G04 #@! TD*
D11*
G04 #@! TO.P,R5,1*
G04 #@! TO.N,GND*
X113400000Y-135000000D03*
D12*
G04 #@! TO.P,R5,2*
G04 #@! TO.N,/A4*
X113400000Y-127380000D03*
G04 #@! TD*
D15*
G04 #@! TO.P,GND,1*
G04 #@! TO.N,GND*
X78000000Y-202000000D03*
G04 #@! TD*
D35*
G04 #@! TO.P,J4,1,Pin_1*
G04 #@! TO.N,GND*
X189865000Y-90170000D03*
D36*
G04 #@! TO.P,J4,2,Pin_2*
G04 #@! TO.N,+5V*
X187325000Y-90170000D03*
G04 #@! TO.P,J4,3,Pin_3*
G04 #@! TO.N,+3.3V*
X184785000Y-90170000D03*
G04 #@! TO.P,J4,4,Pin_4*
G04 #@! TO.N,GND*
X182245000Y-90170000D03*
G04 #@! TD*
D10*
G04 #@! TO.P,TP9,1,1*
G04 #@! TO.N,ADVANCE_BUTTON_RED*
X123350000Y-157000000D03*
G04 #@! TD*
D35*
G04 #@! TO.P,JP2,1,1*
G04 #@! TO.N,BOOT0*
X124460000Y-99060000D03*
D36*
G04 #@! TO.P,JP2,2,2*
G04 #@! TO.N,VESC_OUTPUT*
X121920000Y-99060000D03*
G04 #@! TO.P,JP2,3,3*
G04 #@! TO.N,VESC_INPUT*
X119380000Y-99060000D03*
G04 #@! TO.P,JP2,4,4*
G04 #@! TO.N,VESC_POWER_SWITCH*
X116840000Y-99060000D03*
G04 #@! TO.P,JP2,5,5*
G04 #@! TO.N,LOW_IN*
X114300000Y-99060000D03*
G04 #@! TO.P,JP2,6,6*
G04 #@! TO.N,HIGH_IN*
X111760000Y-99060000D03*
G04 #@! TO.P,JP2,7,7*
G04 #@! TO.N,BATT_CURR_SENSOR*
X109220000Y-99060000D03*
G04 #@! TO.P,JP2,8,8*
G04 #@! TO.N,/A4*
X106680000Y-99060000D03*
G04 #@! TO.P,JP2,9,9*
G04 #@! TO.N,/A3*
X104140000Y-99060000D03*
G04 #@! TO.P,JP2,10,10*
G04 #@! TO.N,/A2*
X101600000Y-99060000D03*
G04 #@! TO.P,JP2,11,11*
G04 #@! TO.N,/A1*
X99060000Y-99060000D03*
G04 #@! TO.P,JP2,12,12*
G04 #@! TO.N,/A0*
X96520000Y-99060000D03*
G04 #@! TO.P,JP2,13,13*
G04 #@! TO.N,GND*
X93980000Y-99060000D03*
G04 #@! TO.P,JP2,14,14*
G04 #@! TO.N,+3.3V*
X91440000Y-99060000D03*
G04 #@! TO.P,JP2,15,15*
X88900000Y-99060000D03*
G04 #@! TO.P,JP2,16,16*
G04 #@! TO.N,RESET*
X86360000Y-99060000D03*
G04 #@! TD*
D11*
G04 #@! TO.P,R10,1*
G04 #@! TO.N,Net-(R1-Pad2)*
X98000000Y-135100000D03*
D12*
G04 #@! TO.P,R10,2*
G04 #@! TO.N,/A1*
X98000000Y-127480000D03*
G04 #@! TD*
D39*
G04 #@! TO.P,Q4,1,D*
G04 #@! TO.N,PRE_DIS*
X206960000Y-122520000D03*
D40*
G04 #@! TO.P,Q4,2,G*
G04 #@! TO.N,Net-(Q4-G)*
X204420000Y-122520000D03*
D39*
G04 #@! TO.P,Q4,3,S*
G04 #@! TO.N,HIGH_SIDE*
X209500000Y-122520000D03*
G04 #@! TD*
D10*
G04 #@! TO.P,TP9,1,1*
G04 #@! TO.N,HIGH_SIDE_ANDOUT*
X166752000Y-132685000D03*
G04 #@! TD*
G04 #@! TO.P,TP10,1,1*
G04 #@! TO.N,/A1*
X103600000Y-150750000D03*
G04 #@! TD*
D16*
G04 #@! TO.P,C2,1*
G04 #@! TO.N,+24V*
X113250000Y-168642500D03*
D17*
G04 #@! TO.P,C2,2*
G04 #@! TO.N,GND*
X131250000Y-168642500D03*
G04 #@! TD*
D15*
G04 #@! TO.P,GND,1*
G04 #@! TO.N,GND*
X292000000Y-202000000D03*
G04 #@! TD*
D13*
G04 #@! TO.P,Q5,1,S*
G04 #@! TO.N,Net-(J5-CTRL)*
X170210000Y-101250000D03*
G04 #@! TO.P,Q5,2,G*
G04 #@! TO.N,DCDC_SW*
X171480000Y-101250000D03*
D14*
G04 #@! TO.P,Q5,3,D*
G04 #@! TO.N,+5V*
X172750000Y-101250000D03*
G04 #@! TD*
D13*
G04 #@! TO.P,Q2,1,S*
G04 #@! TO.N,GND*
X202400000Y-144500000D03*
G04 #@! TO.P,Q2,2,G*
G04 #@! TO.N,HIGH_SIDE_ANDOUT*
X203670000Y-144500000D03*
D14*
G04 #@! TO.P,Q2,3,D*
G04 #@! TO.N,Net-(Q2-D)*
X204940000Y-144500000D03*
G04 #@! TD*
D43*
G04 #@! TO.N,BOOT0*
X127000000Y-91000000D03*
X124460000Y-94460000D03*
G04 #@! TO.N,+5V*
X145000000Y-160250000D03*
X170636563Y-132500000D03*
X170672500Y-144922500D03*
X163875000Y-160250000D03*
G04 #@! TO.N,VESC_NEG*
X129450000Y-131750000D03*
X168910000Y-127635000D03*
X148450000Y-131750000D03*
X187000000Y-127600000D03*
G04 #@! TO.N,GND*
X177000000Y-117000000D03*
X182245000Y-122250000D03*
D44*
G04 #@! TO.N,BATT_V_SENSOR*
X210250000Y-178350000D03*
X202250000Y-186350000D03*
D43*
X77600000Y-97900000D03*
X93700000Y-81800000D03*
D44*
X186200000Y-202400000D03*
D43*
G04 #@! TO.N,BATT_CURR_SENSOR*
X123825000Y-113665000D03*
X211800000Y-179800000D03*
G04 #@! TO.N,Torq_SW_Mode_1*
X141300000Y-117600000D03*
G04 #@! TO.N,Torq_SW_Mode_2*
X140200000Y-118200000D03*
G04 #@! TO.N,Torq_SW_Mode_3*
X139200000Y-118800000D03*
G04 #@! TO.N,Ref_Model_SW*
X123900000Y-105500000D03*
D44*
G04 #@! TO.N,WAVE_GAUGE*
X96800000Y-146950000D03*
D43*
G04 #@! TO.N,ADVANCE_BUTTON_RED*
X137700000Y-105410000D03*
G04 #@! TO.N,/A4*
X105800000Y-121500000D03*
X105700000Y-105700000D03*
G04 #@! TO.N,+3.3V*
X102000000Y-204250000D03*
X142000000Y-107950000D03*
X132000000Y-101350000D03*
G04 #@! TO.N,RESET*
X130000000Y-95885000D03*
X94615000Y-95885000D03*
X160020000Y-90805000D03*
G04 #@! TO.N,DCDC_SW*
X176500000Y-93500000D03*
X176500000Y-85250000D03*
G04 #@! TO.N,Net-(J5-CTRL)*
X151250000Y-119250000D03*
G04 #@! TO.N,LOW_IN*
X129600486Y-110699458D03*
X129600000Y-107600000D03*
G04 #@! TO.N,TORQ_SWITCH_1*
X147955000Y-103505000D03*
X145300000Y-110400000D03*
G04 #@! TO.N,TORQ_SWITCH_2*
X150812500Y-98742500D03*
X149860000Y-109220000D03*
G04 #@! TO.N,PRE_DIS*
X248300000Y-155000000D03*
X184770000Y-134000000D03*
G04 #@! TO.N,PRE_DIS_ANDOUT*
X141300000Y-112985023D03*
X153035000Y-123235000D03*
G04 #@! TO.N,HIGH_SIDE_ANDOUT*
X127635000Y-109855000D03*
X175300000Y-137000000D03*
G04 #@! TD*
D45*
G04 #@! TO.N,BOOT0*
X124460000Y-94460000D02*
X124460000Y-93540000D01*
X124460000Y-93540000D02*
X127000000Y-91000000D01*
G04 #@! TO.N,RESET*
X130000000Y-95885000D02*
X154940000Y-95885000D01*
X94615000Y-95885000D02*
X130000000Y-95885000D01*
X154940000Y-95885000D02*
X160020000Y-90805000D01*
G04 #@! TO.N,+3.3V*
X135400000Y-101350000D02*
X142000000Y-107950000D01*
X132000000Y-101350000D02*
X135400000Y-101350000D01*
X132000000Y-101350000D02*
X93730000Y-101350000D01*
X93730000Y-101350000D02*
X91440000Y-99060000D01*
G04 #@! TO.N,BATT_V_SENSOR*
X93700000Y-81800000D02*
X96405000Y-81800000D01*
X96405000Y-81800000D02*
X100000000Y-85395000D01*
X100000000Y-85395000D02*
X100000000Y-86000000D01*
G04 #@! TO.N,GND*
X180340000Y-92075000D02*
X182245000Y-90170000D01*
X180340000Y-101000000D02*
X180340000Y-92075000D01*
X177500000Y-107500000D02*
X170310000Y-107500000D01*
X180340000Y-104660000D02*
X177500000Y-107500000D01*
X180340000Y-101000000D02*
X180340000Y-104660000D01*
D46*
G04 #@! TO.N,BATT_POS*
X173900000Y-115000000D02*
X182000000Y-115000000D01*
X165925000Y-122975000D02*
X173900000Y-115000000D01*
G04 #@! TO.N,VESC_NEG*
X168945000Y-127600000D02*
X168910000Y-127635000D01*
X187000000Y-127600000D02*
X168945000Y-127600000D01*
D45*
G04 #@! TO.N,GND*
X182245000Y-122245000D02*
X182245000Y-122250000D01*
X177000000Y-117000000D02*
X182245000Y-122245000D01*
D47*
G04 #@! TO.N,VESC_POS*
X281830000Y-181211250D02*
X281830000Y-186250000D01*
X281841875Y-181199375D02*
X281830000Y-181211250D01*
X281841875Y-172962500D02*
X281841875Y-181199375D01*
X281830000Y-191407500D02*
X281830000Y-186250000D01*
X271737500Y-201500000D02*
X281830000Y-191407500D01*
X265000000Y-201500000D02*
X271737500Y-201500000D01*
G04 #@! TO.N,Net-(DISCHARGE_RELAY1-NC)*
X225902500Y-186297500D02*
X225950000Y-186250000D01*
X202375000Y-159385000D02*
X202375000Y-163375000D01*
X225297500Y-186297500D02*
X225902500Y-186297500D01*
X202375000Y-163375000D02*
X225297500Y-186297500D01*
D45*
G04 #@! TO.N,+5V*
X170750000Y-144845000D02*
X170750000Y-132613437D01*
X170672500Y-144922500D02*
X170750000Y-144845000D01*
X163875000Y-160250000D02*
X145000000Y-160250000D01*
X170750000Y-132613437D02*
X170636563Y-132500000D01*
G04 #@! TO.N,HIGH_SIDE*
X223016250Y-109043750D02*
X228315625Y-109043750D01*
X234750000Y-118950000D02*
X234750000Y-109738750D01*
X209540000Y-122520000D02*
X223016250Y-109043750D01*
X234750000Y-109738750D02*
X235520000Y-108968750D01*
X228315625Y-109043750D02*
X235445000Y-109043750D01*
X235520000Y-108968750D02*
X235520000Y-103481875D01*
X235520000Y-103481875D02*
X237101875Y-101900000D01*
D46*
G04 #@! TO.N,VESC_NEG*
X148450000Y-131750000D02*
X148500000Y-131800000D01*
X118100000Y-143100000D02*
X102220000Y-143100000D01*
X122050000Y-143100000D02*
X128750000Y-149800000D01*
X118100000Y-143100000D02*
X122050000Y-143100000D01*
X128750000Y-149800000D02*
X128750000Y-150600000D01*
X148500000Y-131800000D02*
X152120000Y-131800000D01*
X152120000Y-131800000D02*
X158115000Y-137795000D01*
X129450000Y-131750000D02*
X118100000Y-143100000D01*
G04 #@! TO.N,BATT_POS*
X162350000Y-119400000D02*
X162350000Y-118550000D01*
X158115000Y-130785000D02*
X158115000Y-132715000D01*
X165925000Y-122975000D02*
X162350000Y-119400000D01*
X165925000Y-122975000D02*
X158115000Y-130785000D01*
D47*
G04 #@! TO.N,VESC_POS*
X240481600Y-167778000D02*
X240481600Y-176981600D01*
X240481600Y-176981600D02*
X265000000Y-201500000D01*
X265000000Y-201500000D02*
X262738600Y-201500000D01*
D45*
G04 #@! TO.N,GND*
X245680000Y-108968750D02*
X245680000Y-102858125D01*
X244750000Y-101871875D02*
X244721875Y-101900000D01*
X244750000Y-95000000D02*
X244750000Y-101871875D01*
X244950009Y-118950004D02*
X245680005Y-118220008D01*
X261680625Y-151245625D02*
X261882500Y-151447500D01*
X117300000Y-135100000D02*
X121000000Y-135100000D01*
X113400000Y-135000000D02*
X117200000Y-135000000D01*
X103220000Y-133800000D02*
X108300000Y-133800000D01*
X82920000Y-88000000D02*
X78000000Y-88000000D01*
X208200000Y-151700000D02*
X208237500Y-151737500D01*
X227337500Y-151737500D02*
X229400000Y-153800000D01*
X108300000Y-133800000D02*
X109500000Y-135000000D01*
X245680000Y-118220000D02*
X245680000Y-108968750D01*
X192830000Y-90170000D02*
X200000000Y-83000000D01*
X208237500Y-151737500D02*
X227337500Y-151737500D01*
X184165000Y-88250000D02*
X187945000Y-88250000D01*
X182245000Y-90170000D02*
X184165000Y-88250000D01*
X200000000Y-83000000D02*
X232750000Y-83000000D01*
X101900000Y-135120000D02*
X103220000Y-133800000D01*
X189865000Y-90170000D02*
X192830000Y-90170000D01*
X93980000Y-99060000D02*
X82920000Y-88000000D01*
X117200000Y-135000000D02*
X117300000Y-135100000D01*
X109500000Y-135000000D02*
X113400000Y-135000000D01*
X232750000Y-83000000D02*
X244750000Y-95000000D01*
X245680005Y-102858113D02*
X244721866Y-101900000D01*
X187945000Y-88250000D02*
X189865000Y-90170000D01*
X121000000Y-135100000D02*
X121100000Y-135000000D01*
G04 #@! TO.N,BATT_V_SENSOR*
X91400000Y-202400000D02*
X77500000Y-188500000D01*
X77500000Y-188500000D02*
X77500000Y-98000000D01*
X202250000Y-186350000D02*
X210250000Y-178350000D01*
X77500000Y-98000000D02*
X77600000Y-97900000D01*
X186200000Y-202400000D02*
X91400000Y-202400000D01*
G04 #@! TO.N,BATT_CURR_SENSOR*
X147000000Y-200600000D02*
X143100000Y-196700000D01*
X139065000Y-113665000D02*
X123825000Y-113665000D01*
X194850000Y-190450000D02*
X184700000Y-200600000D01*
X211800000Y-179800000D02*
X201150000Y-190450000D01*
X184700000Y-200600000D02*
X147000000Y-200600000D01*
X193560000Y-189160000D02*
X194850000Y-190450000D01*
X143100000Y-117700000D02*
X139065000Y-113665000D01*
X201150000Y-190450000D02*
X194850000Y-190450000D01*
X193560000Y-182900000D02*
X193560000Y-189160000D01*
X143100000Y-196700000D02*
X143100000Y-117700000D01*
D48*
G04 #@! TO.N,Torq_SW_Mode_1*
X141300000Y-119000000D02*
X137600000Y-122700000D01*
X141300000Y-117600000D02*
X141300000Y-119000000D01*
X110000000Y-122700000D02*
X106680000Y-119380000D01*
X137600000Y-122700000D02*
X110000000Y-122700000D01*
G04 #@! TO.N,Torq_SW_Mode_2*
X140200000Y-119000000D02*
X137200000Y-122000000D01*
X140200000Y-118200000D02*
X140200000Y-119000000D01*
X137200000Y-122000000D02*
X111840000Y-122000000D01*
X111840000Y-122000000D02*
X109220000Y-119380000D01*
G04 #@! TO.N,Torq_SW_Mode_3*
X139200000Y-118800000D02*
X139200000Y-118900000D01*
X113680000Y-121300000D02*
X111760000Y-119380000D01*
X139200000Y-118900000D02*
X136800000Y-121300000D01*
X136800000Y-121300000D02*
X113680000Y-121300000D01*
D45*
G04 #@! TO.N,Ref_Model_SW*
X123900000Y-105500000D02*
X114300000Y-115100000D01*
X114300000Y-115100000D02*
X114300000Y-119380000D01*
G04 #@! TO.N,WAVE_GAUGE*
X96800000Y-144000000D02*
X105700000Y-135100000D01*
X105700000Y-135100000D02*
X105700000Y-135020000D01*
X96800000Y-146950000D02*
X96800000Y-144000000D01*
G04 #@! TO.N,ADVANCE_BUTTON_RED*
X128990000Y-105410000D02*
X116840000Y-117560000D01*
X116840000Y-117560000D02*
X116840000Y-119380000D01*
X137700000Y-105410000D02*
X128990000Y-105410000D01*
G04 #@! TO.N,/A4*
X94300000Y-117100000D02*
X105700000Y-105700000D01*
X94300000Y-120900000D02*
X94300000Y-117100000D01*
X105800000Y-121500000D02*
X94900000Y-121500000D01*
X94900000Y-121500000D02*
X94300000Y-120900000D01*
G04 #@! TO.N,+3.3V*
X74750000Y-188750000D02*
X90250000Y-204250000D01*
X74750000Y-98000000D02*
X74750000Y-188750000D01*
X76500000Y-96250000D02*
X74750000Y-98000000D01*
X88900000Y-99060000D02*
X88900000Y-101100000D01*
X78750000Y-96250000D02*
X76500000Y-96250000D01*
X88000000Y-102000000D02*
X84500000Y-102000000D01*
X90250000Y-204250000D02*
X102000000Y-204250000D01*
X88900000Y-101100000D02*
X88000000Y-102000000D01*
X84500000Y-102000000D02*
X78750000Y-96250000D01*
G04 #@! TO.N,+24V*
X113200000Y-169000000D02*
X126500000Y-169000000D01*
X134250000Y-127000000D02*
X136155000Y-125095000D01*
X134250000Y-161250000D02*
X134250000Y-127000000D01*
X136155000Y-125095000D02*
X137795000Y-125095000D01*
X126500000Y-169000000D02*
X134250000Y-161250000D01*
G04 #@! TO.N,DCDC_SW*
X176500000Y-85250000D02*
X176500000Y-93500000D01*
G04 #@! TO.N,Net-(J5-CTRL)*
X151250000Y-119250000D02*
X151250000Y-118940000D01*
X151250000Y-118940000D02*
X162690000Y-107500000D01*
G04 #@! TO.N,LOW_IN*
X129600486Y-107600486D02*
X129600000Y-107600000D01*
X129600486Y-110699458D02*
X129600486Y-107600486D01*
D48*
G04 #@! TO.N,TORQ_SWITCH_1*
X147955000Y-104917817D02*
X147955000Y-103505000D01*
X145300000Y-107572817D02*
X147955000Y-104917817D01*
X145300000Y-110400000D02*
X145300000Y-107572817D01*
G04 #@! TO.N,TORQ_SWITCH_2*
X149860000Y-109220000D02*
X149860000Y-99695000D01*
X149860000Y-99695000D02*
X150812500Y-98742500D01*
D45*
G04 #@! TO.N,PRE_DIS*
X206960000Y-127670000D02*
X206960000Y-122520000D01*
X247600000Y-155000000D02*
X248300000Y-155000000D01*
X189187500Y-129512500D02*
X205117500Y-129512500D01*
X184770000Y-134000000D02*
X184770000Y-133930000D01*
X208840000Y-124400000D02*
X217000000Y-124400000D01*
X205117500Y-129512500D02*
X206960000Y-127670000D01*
X217000000Y-124400000D02*
X247600000Y-155000000D01*
X206960000Y-122520000D02*
X208840000Y-124400000D01*
X184770000Y-133930000D02*
X189187500Y-129512500D01*
G04 #@! TO.N,PRE_DIS_ANDOUT*
X153035000Y-123235000D02*
X142785023Y-112985023D01*
X142785023Y-112985023D02*
X141300000Y-112985023D01*
G04 #@! TO.N,HIGH_SIDE_ANDOUT*
X159102000Y-140335000D02*
X166752000Y-132685000D01*
X185750000Y-137000000D02*
X175300000Y-137000000D01*
X127635000Y-109865343D02*
X129269115Y-111499458D01*
X127635000Y-109855000D02*
X127635000Y-109865343D01*
X200580000Y-151700000D02*
X203700000Y-148580000D01*
X203700000Y-143400000D02*
X202500000Y-142200000D01*
X129269115Y-111499458D02*
X138199458Y-111499458D01*
X138199458Y-111499458D02*
X144145000Y-117445000D01*
X151635000Y-140335000D02*
X159102000Y-140335000D01*
X144145000Y-117445000D02*
X144145000Y-132845000D01*
X190950000Y-142200000D02*
X185750000Y-137000000D01*
X202500000Y-142200000D02*
X190950000Y-142200000D01*
X203700000Y-148580000D02*
X203700000Y-143400000D01*
X144145000Y-132845000D02*
X151635000Y-140335000D01*
G04 #@! TD*
M02*
