M48
; DRILL file {KiCad 7.0.8} date Thu Nov  9 10:37:00 2023
; FORMAT={-:-/ absolute / inch / decimal}
; #@! TF.CreationDate,2023-11-09T10:37:00-05:00
; #@! TF.GenerationSoftware,Kicad,Pcbnew,7.0.8
; #@! TF.FileFunction,Plated,1,2,PTH
FMAT,2
INCH
; #@! TA.AperFunction,Plated,PTH,ViaDrill
T1C0.0118
; #@! TA.AperFunction,Plated,PTH,ViaDrill
T2C0.0157
; #@! TA.AperFunction,Plated,PTH,ComponentDrill
T3C0.0276
; #@! TA.AperFunction,Plated,PTH,ComponentDrill
T4C0.0295
; #@! TA.AperFunction,Plated,PTH,ComponentDrill
T5C0.0335
; #@! TA.AperFunction,Plated,PTH,ComponentDrill
T6C0.0350
; #@! TA.AperFunction,Plated,PTH,ComponentDrill
T7C0.0394
; #@! TA.AperFunction,Plated,PTH,ComponentDrill
T8C0.0400
; #@! TA.AperFunction,Plated,PTH,ComponentDrill
T9C0.0433
; #@! TA.AperFunction,Plated,PTH,ComponentDrill
T10C0.0469
; #@! TA.AperFunction,Plated,PTH,ComponentDrill
T11C0.0472
; #@! TA.AperFunction,Plated,PTH,ComponentDrill
T12C0.0512
; #@! TA.AperFunction,Plated,PTH,ComponentDrill
T13C0.0591
; #@! TA.AperFunction,Plated,PTH,ComponentDrill
T14C0.0618
; #@! TA.AperFunction,Plated,PTH,ComponentDrill
T15C0.0787
; #@! TA.AperFunction,Plated,PTH,ComponentDrill
T16C0.0984
; #@! TA.AperFunction,Plated,PTH,ComponentDrill
T17C0.1260
; #@! TA.AperFunction,Plated,PTH,ComponentDrill
T18C0.1575
; #@! TA.AperFunction,Plated,PTH,ComponentDrill
T19C0.2402
%
G90
G05
T1
X3.811Y-5.7854
X7.3307Y-7.9685
X7.9626Y-7.3366
X8.2776Y-7.0217
T2
X3.0551Y-3.8543
X3.689Y-3.2205
X3.725Y-3.775
X4.0157Y-8.0413
X4.1614Y-4.1614
X4.1654Y-4.7835
X4.875Y-4.475
X4.878Y-4.1535
X4.9Y-3.7189
X5.0Y-3.5827
X5.025Y-4.325
X5.0965Y-5.187
X5.1024Y-4.2362
X5.1024Y-4.3582
X5.1181Y-3.775
X5.1969Y-3.9902
X5.4213Y-4.15
X5.4803Y-4.6772
X5.5197Y-4.6535
X5.563Y-4.4482
X5.563Y-4.6299
X5.5906Y-4.25
X5.7087Y-6.3091
X5.7205Y-4.3465
X5.825Y-4.075
X5.8445Y-5.187
X5.9Y-4.3
X5.9375Y-3.8875
X5.9547Y-4.6949
X6.025Y-4.8518
X6.3Y-3.575
X6.4518Y-6.3091
X6.65Y-5.025
X6.718Y-5.2165
X6.7194Y-5.7056
X6.9016Y-5.3937
X6.9488Y-3.3563
X6.9488Y-3.6811
X6.9685Y-4.6063
X7.175Y-4.813
X7.2744Y-5.2756
X7.3622Y-5.0236
X8.3386Y-7.0787
X9.7756Y-6.1024
T3
X3.7244Y-5.6339
X3.8583Y-5.0189
X3.8583Y-5.3189
X3.8642Y-6.4094
X3.937Y-3.3858
X3.937Y-3.6858
X4.0118Y-5.0197
X4.0118Y-5.3197
X4.0244Y-5.6339
X4.1614Y-5.0157
X4.1614Y-5.3157
X4.1642Y-6.4094
X4.2598Y-6.4055
X4.311Y-5.015
X4.311Y-5.315
X4.4646Y-5.015
X4.4646Y-5.315
X4.5598Y-6.4055
X4.6181Y-5.0189
X4.6181Y-5.3189
X4.7677Y-5.015
X4.7677Y-5.315
X6.2599Y-6.7706
X6.2599Y-7.0519
X6.2599Y-7.6456
X6.4051Y-4.2323
X6.4051Y-4.3996
X6.5599Y-6.7706
X6.5599Y-7.0519
X6.5599Y-7.6456
X6.7051Y-4.2323
X6.7051Y-4.3996
X6.85Y-7.225
X7.15Y-7.225
X7.8969Y-5.9724
X8.0755Y-5.0989
X8.0755Y-5.3802
X8.1969Y-5.9724
X8.3755Y-5.0989
X8.3755Y-5.3802
X9.3347Y-4.0118
X9.6347Y-4.0118
X10.3103Y-5.9625
X10.6103Y-5.9625
T4
X6.1593Y-7.3661
X6.2093Y-7.3661
X6.2593Y-7.3661
X6.7012Y-3.9862
X6.7512Y-3.9862
X6.8012Y-3.9862
X7.9685Y-5.689
X8.0185Y-5.689
X8.0685Y-5.689
T5
X7.0Y-3.9764
X7.1Y-3.9764
X7.2Y-3.9764
X7.3Y-3.9764
X7.4Y-3.9764
X7.5Y-3.9764
X7.6Y-3.9764
X7.7Y-3.9764
T6
X3.3228Y-5.9687
X3.3228Y-6.0487
X3.3228Y-6.1287
X3.3228Y-6.2087
X3.3929Y-5.9287
X3.3929Y-6.0087
X3.3929Y-6.0887
X3.3929Y-6.1687
X3.5827Y-5.7984
X3.5827Y-5.8886
X3.5827Y-6.2484
X3.5827Y-6.3386
T7
X3.4Y-3.9
X3.5Y-3.9
X3.6Y-3.9
X3.7Y-3.9
X3.8Y-3.9
X3.8Y-4.7
X3.9Y-3.9
X3.9Y-4.7
X4.0Y-3.9
X4.0Y-4.7
X4.1Y-3.9
X4.1Y-4.7
X4.2Y-3.9
X4.2Y-4.7
X4.3Y-3.9
X4.3Y-4.7
X4.4Y-3.9
X4.4Y-4.7
X4.5Y-3.9
X4.5Y-4.7
X4.6Y-3.9
X4.6Y-4.7
X4.7Y-3.9
X4.7Y-4.7
X4.8Y-3.9
X4.8Y-4.7
X4.9Y-3.9
X4.9Y-4.7
X7.175Y-3.55
X7.275Y-3.55
X7.375Y-3.55
X7.475Y-3.55
T8
X9.0315Y-6.0551
X9.1315Y-6.0551
X9.2315Y-6.0551
T9
X6.3518Y-6.5266
X6.4518Y-6.5266
X6.5518Y-6.5266
X6.8242Y-6.8976
X7.2242Y-6.8976
X8.048Y-4.8236
X8.148Y-4.8236
X8.248Y-4.8236
X9.2421Y-4.6831
X9.2724Y-4.2901
X9.6437Y-4.6831
X9.6724Y-4.2901
X10.3118Y-5.6811
X10.7118Y-5.6811
T10
X3.2972Y-5.0528
X3.2972Y-5.1528
X3.2972Y-5.2528
X3.2972Y-5.3528
X3.2972Y-5.4528
X3.8583Y-6.6299
X3.9583Y-6.6299
X4.0583Y-6.6299
X4.1583Y-6.6299
X5.95Y-3.4
X6.05Y-3.4
X6.15Y-3.4
X6.25Y-3.4
X6.35Y-3.4
X6.45Y-3.4
X6.55Y-3.4
X6.65Y-3.4
X6.75Y-3.4
X7.5205Y-7.2008
X7.6205Y-7.2008
X7.7205Y-7.2008
T11
X4.4587Y-6.6395
X5.1673Y-6.6395
X7.1654Y-4.5276
X7.874Y-4.5276
X8.8957Y-7.3327
X11.0957Y-7.3327
X11.0961Y-4.6095
X11.0961Y-6.8095
T12
X7.025Y-6.275
X7.025Y-6.575
X7.7691Y-6.575
X7.9675Y-6.275
T13
X5.425Y-4.925
X5.425Y-5.325
X5.425Y-5.725
X6.225Y-5.225
X6.225Y-5.425
X6.225Y-5.725
T14
X3.3579Y-5.7484
X3.3579Y-6.3886
T15
X3.5728Y-5.5118
X4.0787Y-5.935
X4.3012Y-5.9331
X4.5197Y-5.9331
X4.5551Y-7.7165
X4.8465Y-5.9331
X4.8563Y-6.1811
X4.9567Y-7.7244
X5.0689Y-5.9291
X5.4035Y-7.7264
X5.6299Y-3.3996
X5.8091Y-6.0709
X5.9744Y-6.998
X6.3917Y-4.6673
X6.565Y-5.2238
X6.565Y-5.6138
X6.5702Y-7.3956
X6.7717Y-6.063
X6.878Y-4.7736
X7.7608Y-5.3802
X8.3071Y-5.622
X8.9888Y-4.2931
X10.675Y-6.275
T16
X9.0925Y-5.2854
X9.7933Y-5.187
T17
X9.4678Y-6.1104
X9.4678Y-6.6054
X9.7679Y-6.3554
T18
X3.0709Y-3.4646
X3.0709Y-7.9528
X8.2677Y-3.5039
X10.4724Y-3.5039
X11.4961Y-3.4646
X11.4961Y-7.9528
T19
X9.2531Y-7.9331
X10.4331Y-7.9331
T0
M30
