G04 #@! TF.GenerationSoftware,KiCad,Pcbnew,7.0.8*
G04 #@! TF.CreationDate,2023-11-09T10:36:57-05:00*
G04 #@! TF.ProjectId,mecc-pcb-kicad,6d656363-2d70-4636-922d-6b696361642e,v1*
G04 #@! TF.SameCoordinates,Original*
G04 #@! TF.FileFunction,Copper,L1,Top*
G04 #@! TF.FilePolarity,Positive*
%FSLAX46Y46*%
G04 Gerber Fmt 4.6, Leading zero omitted, Abs format (unit mm)*
G04 Created by KiCad (PCBNEW 7.0.8) date 2023-11-09 10:36:57*
%MOMM*%
%LPD*%
G01*
G04 APERTURE LIST*
G04 Aperture macros list*
%AMRoundRect*
0 Rectangle with rounded corners*
0 $1 Rounding radius*
0 $2 $3 $4 $5 $6 $7 $8 $9 X,Y pos of 4 corners*
0 Add a 4 corners polygon primitive as box body*
4,1,4,$2,$3,$4,$5,$6,$7,$8,$9,$2,$3,0*
0 Add four circle primitives for the rounded corners*
1,1,$1+$1,$2,$3*
1,1,$1+$1,$4,$5*
1,1,$1+$1,$6,$7*
1,1,$1+$1,$8,$9*
0 Add four rect primitives between the rounded corners*
20,1,$1+$1,$2,$3,$4,$5,0*
20,1,$1+$1,$4,$5,$6,$7,0*
20,1,$1+$1,$6,$7,$8,$9,0*
20,1,$1+$1,$8,$9,$2,$3,0*%
G04 Aperture macros list end*
G04 #@! TA.AperFunction,ComponentPad*
%ADD10R,4.000000X4.000000*%
G04 #@! TD*
G04 #@! TA.AperFunction,SMDPad,CuDef*
%ADD11R,1.800000X1.100000*%
G04 #@! TD*
G04 #@! TA.AperFunction,ComponentPad*
%ADD12C,1.400000*%
G04 #@! TD*
G04 #@! TA.AperFunction,ComponentPad*
%ADD13O,1.400000X1.400000*%
G04 #@! TD*
G04 #@! TA.AperFunction,ComponentPad*
%ADD14O,1.050000X1.500000*%
G04 #@! TD*
G04 #@! TA.AperFunction,ComponentPad*
%ADD15R,1.050000X1.500000*%
G04 #@! TD*
G04 #@! TA.AperFunction,ComponentPad*
%ADD16C,8.000000*%
G04 #@! TD*
G04 #@! TA.AperFunction,ComponentPad*
%ADD17R,2.400000X2.400000*%
G04 #@! TD*
G04 #@! TA.AperFunction,ComponentPad*
%ADD18O,2.400000X2.400000*%
G04 #@! TD*
G04 #@! TA.AperFunction,ComponentPad*
%ADD19R,1.950000X1.950000*%
G04 #@! TD*
G04 #@! TA.AperFunction,ComponentPad*
%ADD20C,1.950000*%
G04 #@! TD*
G04 #@! TA.AperFunction,ComponentPad*
%ADD21C,6.000000*%
G04 #@! TD*
G04 #@! TA.AperFunction,ComponentPad*
%ADD22C,1.500000*%
G04 #@! TD*
G04 #@! TA.AperFunction,SMDPad,CuDef*
%ADD23R,3.000000X2.000000*%
G04 #@! TD*
G04 #@! TA.AperFunction,ComponentPad*
%ADD24R,2.200000X2.200000*%
G04 #@! TD*
G04 #@! TA.AperFunction,ComponentPad*
%ADD25O,2.200000X2.200000*%
G04 #@! TD*
G04 #@! TA.AperFunction,ComponentPad*
%ADD26C,3.750000*%
G04 #@! TD*
G04 #@! TA.AperFunction,ComponentPad*
%ADD27C,1.650000*%
G04 #@! TD*
G04 #@! TA.AperFunction,ComponentPad*
%ADD28C,2.400000*%
G04 #@! TD*
G04 #@! TA.AperFunction,ComponentPad*
%ADD29R,1.450000X1.450000*%
G04 #@! TD*
G04 #@! TA.AperFunction,ComponentPad*
%ADD30C,1.450000*%
G04 #@! TD*
G04 #@! TA.AperFunction,ComponentPad*
%ADD31R,1.500000X1.500000*%
G04 #@! TD*
G04 #@! TA.AperFunction,ComponentPad*
%ADD32C,2.300000*%
G04 #@! TD*
G04 #@! TA.AperFunction,ComponentPad*
%ADD33RoundRect,0.250000X0.620000X0.845000X-0.620000X0.845000X-0.620000X-0.845000X0.620000X-0.845000X0*%
G04 #@! TD*
G04 #@! TA.AperFunction,ComponentPad*
%ADD34O,1.740000X2.190000*%
G04 #@! TD*
G04 #@! TA.AperFunction,ComponentPad*
%ADD35RoundRect,0.250000X0.845000X-0.620000X0.845000X0.620000X-0.845000X0.620000X-0.845000X-0.620000X0*%
G04 #@! TD*
G04 #@! TA.AperFunction,ComponentPad*
%ADD36O,2.190000X1.740000*%
G04 #@! TD*
G04 #@! TA.AperFunction,ComponentPad*
%ADD37R,1.700000X1.700000*%
G04 #@! TD*
G04 #@! TA.AperFunction,ComponentPad*
%ADD38O,1.700000X1.700000*%
G04 #@! TD*
G04 #@! TA.AperFunction,ComponentPad*
%ADD39R,2.250000X2.250000*%
G04 #@! TD*
G04 #@! TA.AperFunction,ComponentPad*
%ADD40C,2.250000*%
G04 #@! TD*
G04 #@! TA.AperFunction,SMDPad,CuDef*
%ADD41O,0.800001X0.299999*%
G04 #@! TD*
G04 #@! TA.AperFunction,ComponentPad*
%ADD42O,1.905000X2.000000*%
G04 #@! TD*
G04 #@! TA.AperFunction,ComponentPad*
%ADD43R,1.905000X2.000000*%
G04 #@! TD*
G04 #@! TA.AperFunction,ComponentPad*
%ADD44C,10.160000*%
G04 #@! TD*
G04 #@! TA.AperFunction,SMDPad,CuDef*
%ADD45R,2.000000X0.700000*%
G04 #@! TD*
G04 #@! TA.AperFunction,ComponentPad*
%ADD46RoundRect,0.250000X-0.620000X-0.845000X0.620000X-0.845000X0.620000X0.845000X-0.620000X0.845000X0*%
G04 #@! TD*
G04 #@! TA.AperFunction,SMDPad,CuDef*
%ADD47R,1.409700X0.355600*%
G04 #@! TD*
G04 #@! TA.AperFunction,ViaPad*
%ADD48C,0.800000*%
G04 #@! TD*
G04 #@! TA.AperFunction,ViaPad*
%ADD49C,0.500000*%
G04 #@! TD*
G04 #@! TA.AperFunction,Conductor*
%ADD50C,0.400000*%
G04 #@! TD*
G04 #@! TA.AperFunction,Conductor*
%ADD51C,6.450000*%
G04 #@! TD*
G04 #@! TA.AperFunction,Conductor*
%ADD52C,1.450000*%
G04 #@! TD*
G04 #@! TA.AperFunction,Conductor*
%ADD53C,0.300000*%
G04 #@! TD*
G04 APERTURE END LIST*
D10*
G04 #@! TO.P,TP7,1,1*
G04 #@! TO.N,PRE_DIS*
X172000000Y-154000000D03*
G04 #@! TD*
D11*
G04 #@! TO.P,SW2,2,2*
G04 #@! TO.N,BOOT0*
X135100000Y-91000000D03*
X128900000Y-91000000D03*
G04 #@! TO.P,SW2,1,1*
G04 #@! TO.N,+3.3V*
X128900000Y-87300000D03*
X135100000Y-87300000D03*
G04 #@! TD*
D10*
G04 #@! TO.P,24V_1,1,1*
G04 #@! TO.N,+24V*
X125900000Y-196200000D03*
G04 #@! TD*
D12*
G04 #@! TO.P,R7,1*
G04 #@! TO.N,GND*
X117300000Y-135100000D03*
D13*
G04 #@! TO.P,R7,2*
G04 #@! TO.N,ADVANCE_BUTTON_RED*
X117300000Y-127480000D03*
G04 #@! TD*
D14*
G04 #@! TO.P,Q1,1,S*
G04 #@! TO.N,GND*
X156445000Y-187099375D03*
G04 #@! TO.P,Q1,2,G*
G04 #@! TO.N,PRE_DIS_ANDOUT*
X157715000Y-187099375D03*
D15*
G04 #@! TO.P,Q1,3,D*
G04 #@! TO.N,Net-(Q1-D)*
X158985000Y-187099375D03*
G04 #@! TD*
D10*
G04 #@! TO.P,5V_1,1,1*
G04 #@! TO.N,+5V*
X137250000Y-196250000D03*
G04 #@! TD*
D16*
G04 #@! TO.P,,1*
G04 #@! TO.N,BATT_POS*
X266000000Y-89000000D03*
G04 #@! TD*
G04 #@! TO.P,,1*
G04 #@! TO.N,BATT_NEG*
X210000000Y-89000000D03*
G04 #@! TD*
D17*
G04 #@! TO.P,C1,1*
G04 #@! TO.N,BATT_POS*
X182000000Y-115000000D03*
D18*
G04 #@! TO.P,C1,2*
G04 #@! TO.N,VESC_NEG*
X200000000Y-115000000D03*
G04 #@! TD*
D19*
G04 #@! TO.P,DISCHARGE_RELAY1,11,COM*
G04 #@! TO.N,VESC_NEG*
X197335000Y-167005000D03*
D20*
G04 #@! TO.P,DISCHARGE_RELAY1,12,NC*
G04 #@! TO.N,Net-(DISCHARGE_RELAY1-NC)*
X202375000Y-159385000D03*
G04 #@! TO.P,DISCHARGE_RELAY1,A1,COIL_1*
G04 #@! TO.N,GND*
X178435000Y-167005000D03*
G04 #@! TO.P,DISCHARGE_RELAY1,A2,COIL_2*
G04 #@! TO.N,PRE_DIS*
X178435000Y-159385000D03*
G04 #@! TD*
D12*
G04 #@! TO.P,R_RELAY_PULLDOWN1,1*
G04 #@! TO.N,GND*
X261882500Y-151447500D03*
D13*
G04 #@! TO.P,R_RELAY_PULLDOWN1,2*
G04 #@! TO.N,PRE_DIS*
X269502500Y-151447500D03*
G04 #@! TD*
D12*
G04 #@! TO.P,R_RELAY_PULLDOWN3,1*
G04 #@! TO.N,GND*
X244721875Y-101900000D03*
D13*
G04 #@! TO.P,R_RELAY_PULLDOWN3,2*
G04 #@! TO.N,HIGH_SIDE*
X237101875Y-101900000D03*
G04 #@! TD*
D21*
G04 #@! TO.P,U1,2,GND*
G04 #@! TO.N,VESC_NEG*
X248104600Y-161428000D03*
G04 #@! TO.P,U1,4,+IN*
G04 #@! TO.N,Net-(HIGH_SIDE_RELAY1-NO)*
X240481600Y-155205000D03*
G04 #@! TO.P,U1,5,+OUT*
G04 #@! TO.N,VESC_POS*
X240481600Y-167778000D03*
D22*
G04 #@! TO.P,U1,6,Iout*
G04 #@! TO.N,BATT_CURR_SENSOR*
X234480000Y-153800000D03*
G04 #@! TO.P,U1,7,Vout*
G04 #@! TO.N,BATT_V_SENSOR*
X231940000Y-153800000D03*
G04 #@! TO.P,U1,8,SIG_GND*
G04 #@! TO.N,GND*
X229400000Y-153800000D03*
G04 #@! TD*
D10*
G04 #@! TO.P,TP5,1,1*
G04 #@! TO.N,PRE_DIS*
X271145000Y-159385000D03*
G04 #@! TD*
G04 #@! TO.P,TP14,1,1*
G04 #@! TO.N,BATT_POS*
X162350000Y-118550000D03*
G04 #@! TD*
D23*
G04 #@! TO.P,FUSE_HOLDER1,1,1*
G04 #@! TO.N,BATT_NEG*
X206970000Y-100040000D03*
G04 #@! TO.P,FUSE_HOLDER1,2,2*
G04 #@! TO.N,VESC_NEG*
X206970000Y-109960000D03*
G04 #@! TO.P,FUSE_HOLDER1,3,3*
X213030000Y-109960000D03*
G04 #@! TO.P,FUSE_HOLDER1,4,4*
G04 #@! TO.N,BATT_NEG*
X213030000Y-100040000D03*
G04 #@! TD*
D12*
G04 #@! TO.P,R6,1*
G04 #@! TO.N,BATT_V_SENSOR*
X100000000Y-86000000D03*
D13*
G04 #@! TO.P,R6,2*
G04 #@! TO.N,/A4*
X100000000Y-93620000D03*
G04 #@! TD*
D10*
G04 #@! TO.P,TP3,1,1*
G04 #@! TO.N,Net-(Q3-G)*
X166883750Y-187849375D03*
G04 #@! TD*
D24*
G04 #@! TO.P,D3,1,K*
G04 #@! TO.N,HIGH_SIDE*
X235520000Y-108968750D03*
D25*
G04 #@! TO.P,D3,2,A*
G04 #@! TO.N,GND*
X245680000Y-108968750D03*
G04 #@! TD*
D10*
G04 #@! TO.P,3.3V_1,1,1*
G04 #@! TO.N,+3.3V*
X115700000Y-196000000D03*
G04 #@! TD*
D12*
G04 #@! TO.P,RHIGH_10k2,1*
G04 #@! TO.N,GND*
X166621250Y-194199375D03*
D13*
G04 #@! TO.P,RHIGH_10k2,2*
G04 #@! TO.N,PRE_DIS_ANDOUT*
X159001250Y-194199375D03*
G04 #@! TD*
D26*
G04 #@! TO.P,HIGH_SIDE_RELAY1,1,NO*
G04 #@! TO.N,Net-(HIGH_SIDE_RELAY1-NO)*
X230950000Y-134250000D03*
G04 #@! TO.P,HIGH_SIDE_RELAY1,2,COM*
G04 #@! TO.N,BATT_POS*
X248750000Y-131750000D03*
D27*
G04 #@! TO.P,HIGH_SIDE_RELAY1,3,COIL_1*
G04 #@! TO.N,HIGH_SIDE*
X234750000Y-118950000D03*
G04 #@! TO.P,HIGH_SIDE_RELAY1,4,COIL_2*
G04 #@! TO.N,GND*
X244950000Y-118950000D03*
G04 #@! TD*
D10*
G04 #@! TO.P,TP17,1,1*
G04 #@! TO.N,DCDC_SW*
X143000000Y-86350000D03*
G04 #@! TD*
D12*
G04 #@! TO.P,R9,1*
G04 #@! TO.N,/A1*
X101900000Y-127500000D03*
D13*
G04 #@! TO.P,R9,2*
G04 #@! TO.N,GND*
X101900000Y-135120000D03*
G04 #@! TD*
D12*
G04 #@! TO.P,RHIGH_10k4,1*
G04 #@! TO.N,Net-(Q4-G)*
X212737500Y-136656250D03*
D13*
G04 #@! TO.P,RHIGH_10k4,2*
G04 #@! TO.N,Net-(Q2-D)*
X205117500Y-136656250D03*
G04 #@! TD*
D10*
G04 #@! TO.P,GND_1,1,1*
G04 #@! TO.N,GND*
X174700000Y-121250000D03*
G04 #@! TD*
D12*
G04 #@! TO.P,RHIGH_10k1,1*
G04 #@! TO.N,GND*
X208200000Y-151700000D03*
D13*
G04 #@! TO.P,RHIGH_10k1,2*
G04 #@! TO.N,HIGH_SIDE_ANDOUT*
X200580000Y-151700000D03*
G04 #@! TD*
D12*
G04 #@! TO.P,R3,1*
G04 #@! TO.N,/A3*
X105700000Y-127400000D03*
D13*
G04 #@! TO.P,R3,2*
G04 #@! TO.N,WAVE_GAUGE*
X105700000Y-135020000D03*
G04 #@! TD*
D10*
G04 #@! TO.P,TP4,1,1*
G04 #@! TO.N,Net-(Q4-G)*
X211000000Y-142800000D03*
G04 #@! TD*
D24*
G04 #@! TO.P,D4,1,K*
G04 #@! TO.N,PRE_DIS*
X173335000Y-175199375D03*
D25*
G04 #@! TO.P,D4,2,A*
G04 #@! TO.N,GND*
X183495000Y-175199375D03*
G04 #@! TD*
D28*
G04 #@! TO.P,R_PRECHARGE1,1*
G04 #@! TO.N,VESC_POS*
X281841875Y-172962500D03*
D18*
G04 #@! TO.P,R_PRECHARGE1,2*
G04 #@! TO.N,Net-(PRECHARGE_RELAY1-COM)*
X281841875Y-117082500D03*
G04 #@! TD*
D29*
G04 #@! TO.P,J2,1,Pin_1*
G04 #@! TO.N,VESC_NEG*
X195580000Y-101000000D03*
D30*
G04 #@! TO.P,J2,2,Pin_2*
G04 #@! TO.N,BATT_POS*
X193040000Y-101000000D03*
G04 #@! TO.P,J2,3,Pin_3*
G04 #@! TO.N,DCDC_SW*
X190500000Y-101000000D03*
G04 #@! TO.P,J2,4,Pin_4*
G04 #@! TO.N,unconnected-(J2-Pin_4-Pad4)*
X187960000Y-101000000D03*
G04 #@! TO.P,J2,5,Pin_5*
G04 #@! TO.N,unconnected-(J2-Pin_5-Pad5)*
X185420000Y-101000000D03*
G04 #@! TO.P,J2,6,Pin_6*
G04 #@! TO.N,+5V*
X182880000Y-101000000D03*
G04 #@! TO.P,J2,7,Pin_7*
G04 #@! TO.N,GND*
X180340000Y-101000000D03*
G04 #@! TO.P,J2,8,Pin_8*
G04 #@! TO.N,unconnected-(J2-Pin_8-Pad8)*
X177800000Y-101000000D03*
G04 #@! TD*
D31*
G04 #@! TO.P,J3,1,Pin_1*
G04 #@! TO.N,unconnected-(J3-Pin_1-Pad1)*
X84400000Y-157700000D03*
D22*
G04 #@! TO.P,J3,2,Pin_2*
G04 #@! TO.N,unconnected-(J3-Pin_2-Pad2)*
X86180000Y-156684000D03*
G04 #@! TO.P,J3,3,Pin_3*
G04 #@! TO.N,unconnected-(J3-Pin_3-Pad3)*
X84400000Y-155668000D03*
G04 #@! TO.P,J3,4,Pin_4*
G04 #@! TO.N,WAVE_GAUGE*
X86180000Y-154652000D03*
G04 #@! TO.P,J3,5,Pin_5*
G04 #@! TO.N,GND*
X84400000Y-153636000D03*
G04 #@! TO.P,J3,6,Pin_6*
X86180000Y-152620000D03*
G04 #@! TO.P,J3,7,Pin_7*
G04 #@! TO.N,unconnected-(J3-Pin_7-Pad7)*
X84400000Y-151604000D03*
G04 #@! TO.P,J3,8,Pin_8*
G04 #@! TO.N,unconnected-(J3-Pin_8-Pad8)*
X86180000Y-150588000D03*
G04 #@! TO.P,J3,9*
G04 #@! TO.N,N/C*
X91000000Y-161000000D03*
G04 #@! TO.P,J3,10*
X91000000Y-158710000D03*
G04 #@! TO.P,J3,11*
X91000000Y-149570000D03*
G04 #@! TO.P,J3,12*
X91000000Y-147280000D03*
D32*
G04 #@! TO.P,J3,SH*
X85290000Y-162270000D03*
X85290000Y-146010000D03*
G04 #@! TD*
D33*
G04 #@! TO.P,J7,1,Pin_1*
G04 #@! TO.N,GND*
X171450000Y-86360000D03*
D34*
G04 #@! TO.P,J7,2,Pin_2*
G04 #@! TO.N,+3.3V*
X168910000Y-86360000D03*
G04 #@! TO.P,J7,3,Pin_3*
G04 #@! TO.N,IO_ESTOP*
X166370000Y-86360000D03*
G04 #@! TO.P,J7,4,Pin_4*
G04 #@! TO.N,ADVANCE_BUTTON_RED*
X163830000Y-86360000D03*
G04 #@! TO.P,J7,5,Pin_5*
G04 #@! TO.N,RESET*
X161290000Y-86360000D03*
G04 #@! TO.P,J7,6,Pin_6*
G04 #@! TO.N,TORQ_SWITCH_1*
X158750000Y-86360000D03*
G04 #@! TO.P,J7,7,Pin_7*
G04 #@! TO.N,TORQ_SWITCH_2*
X156210000Y-86360000D03*
G04 #@! TO.P,J7,8,Pin_8*
G04 #@! TO.N,Ref_Model_SW*
X153670000Y-86360000D03*
G04 #@! TO.P,J7,9,Pin_9*
G04 #@! TO.N,DCDC_SW*
X151130000Y-86360000D03*
G04 #@! TD*
D28*
G04 #@! TO.P,R_DISCHARGE1,1*
G04 #@! TO.N,Net-(DISCHARGE_RELAY1-NC)*
X225950000Y-186250000D03*
D18*
G04 #@! TO.P,R_DISCHARGE1,2*
G04 #@! TO.N,VESC_POS*
X281830000Y-186250000D03*
G04 #@! TD*
D35*
G04 #@! TO.P,J6,1,Pin_1*
G04 #@! TO.N,VESC_OUTPUT*
X83750000Y-138500000D03*
D36*
G04 #@! TO.P,J6,2,Pin_2*
G04 #@! TO.N,VESC_INPUT*
X83750000Y-135960000D03*
G04 #@! TO.P,J6,3,Pin_3*
G04 #@! TO.N,VESC_POWER_SWITCH*
X83750000Y-133420000D03*
G04 #@! TO.P,J6,4,Pin_4*
G04 #@! TO.N,GND*
X83750000Y-130880000D03*
G04 #@! TO.P,J6,5*
G04 #@! TO.N,N/C*
X83750000Y-128340000D03*
G04 #@! TD*
D12*
G04 #@! TO.P,R8,1*
G04 #@! TO.N,GND*
X121100000Y-135000000D03*
D13*
G04 #@! TO.P,R8,2*
G04 #@! TO.N,IO_ESTOP*
X121100000Y-127380000D03*
G04 #@! TD*
D11*
G04 #@! TO.P,SW1,1,1*
G04 #@! TO.N,+3.3V*
X120100000Y-90695000D03*
X113900000Y-90695000D03*
G04 #@! TO.P,SW1,2,2*
G04 #@! TO.N,RESET*
X120100000Y-86995000D03*
X113900000Y-86995000D03*
G04 #@! TD*
D37*
G04 #@! TO.P,JP1,1,1*
G04 #@! TO.N,VBAT*
X96520000Y-119380000D03*
D38*
G04 #@! TO.P,JP1,2,2*
G04 #@! TO.N,/EN*
X99060000Y-119380000D03*
G04 #@! TO.P,JP1,3,3*
G04 #@! TO.N,VBUS*
X101600000Y-119380000D03*
G04 #@! TO.P,JP1,4,4*
G04 #@! TO.N,/D13*
X104140000Y-119380000D03*
G04 #@! TO.P,JP1,5,5*
G04 #@! TO.N,Torq_SW_Mode_1*
X106680000Y-119380000D03*
G04 #@! TO.P,JP1,6,6*
G04 #@! TO.N,Torq_SW_Mode_2*
X109220000Y-119380000D03*
G04 #@! TO.P,JP1,7,7*
G04 #@! TO.N,Torq_SW_Mode_3*
X111760000Y-119380000D03*
G04 #@! TO.P,JP1,8,8*
G04 #@! TO.N,Ref_Model_SW*
X114300000Y-119380000D03*
G04 #@! TO.P,JP1,9,9*
G04 #@! TO.N,ADVANCE_BUTTON_RED*
X116840000Y-119380000D03*
G04 #@! TO.P,JP1,10,10*
G04 #@! TO.N,IO_ESTOP*
X119380000Y-119380000D03*
G04 #@! TO.P,JP1,11,11*
G04 #@! TO.N,/SCL*
X121920000Y-119380000D03*
G04 #@! TO.P,JP1,12,12*
G04 #@! TO.N,/SDA*
X124460000Y-119380000D03*
G04 #@! TD*
D10*
G04 #@! TO.P,TP16,1,1*
G04 #@! TO.N,IO_ESTOP*
X123100000Y-150700000D03*
G04 #@! TD*
G04 #@! TO.P,TP2,1,1*
G04 #@! TO.N,Net-(Q1-D)*
X151750000Y-177750000D03*
G04 #@! TD*
D16*
G04 #@! TO.P,GND,1*
G04 #@! TO.N,GND*
X78000000Y-88000000D03*
G04 #@! TD*
D10*
G04 #@! TO.P,TP18,1,1*
G04 #@! TO.N,Net-(J5-CTRL)*
X147550000Y-154200000D03*
G04 #@! TD*
G04 #@! TO.P,TP8,1,1*
G04 #@! TO.N,PRE_DIS_ANDOUT*
X166752000Y-142591000D03*
G04 #@! TD*
D12*
G04 #@! TO.P,RHIGH_10k3,1*
G04 #@! TO.N,Net-(Q3-G)*
X166621250Y-179118125D03*
D13*
G04 #@! TO.P,RHIGH_10k3,2*
G04 #@! TO.N,Net-(Q1-D)*
X159001250Y-179118125D03*
G04 #@! TD*
D12*
G04 #@! TO.P,R11,1*
G04 #@! TO.N,Net-(J5-CTRL)*
X162690000Y-107500000D03*
D13*
G04 #@! TO.P,R11,2*
G04 #@! TO.N,GND*
X170310000Y-107500000D03*
G04 #@! TD*
D12*
G04 #@! TO.P,RHIGH_10k5,1*
G04 #@! TO.N,Net-(Q3-G)*
X166621250Y-171974375D03*
D13*
G04 #@! TO.P,RHIGH_10k5,2*
G04 #@! TO.N,+5V*
X159001250Y-171974375D03*
G04 #@! TD*
D39*
G04 #@! TO.P,J5,1,CTRL*
G04 #@! TO.N,Net-(J5-CTRL)*
X158115000Y-145415000D03*
D40*
G04 #@! TO.P,J5,2,GND*
G04 #@! TO.N,VESC_NEG*
X158115000Y-137795000D03*
G04 #@! TO.P,J5,3,VIN*
G04 #@! TO.N,BATT_POS*
X158115000Y-132715000D03*
G04 #@! TO.P,J5,4,+VO*
G04 #@! TO.N,+24V*
X137795000Y-125095000D03*
G04 #@! TO.P,J5,5,0V*
G04 #@! TO.N,unconnected-(J5-0V-Pad5)*
X137795000Y-135255000D03*
G04 #@! TO.P,J5,6,-VO*
G04 #@! TO.N,GND*
X137795000Y-145415000D03*
G04 #@! TD*
D41*
G04 #@! TO.P,U3,1,A*
G04 #@! TO.N,TORQ_SWITCH_1*
X134500000Y-116700001D03*
G04 #@! TO.P,U3,2,B*
G04 #@! TO.N,TORQ_SWITCH_2*
X134500000Y-117200000D03*
G04 #@! TO.P,U3,3,Y3*
G04 #@! TO.N,unconnected-(U3-Y3-Pad3)*
X134500000Y-117700002D03*
G04 #@! TO.P,U3,4,GND*
G04 #@! TO.N,GND*
X134500000Y-118200000D03*
G04 #@! TO.P,U3,5,Y2*
G04 #@! TO.N,Torq_SW_Mode_3*
X137700001Y-118200000D03*
G04 #@! TO.P,U3,6,Y1*
G04 #@! TO.N,Torq_SW_Mode_2*
X137700001Y-117700002D03*
G04 #@! TO.P,U3,7,Y0*
G04 #@! TO.N,Torq_SW_Mode_1*
X137700001Y-117200000D03*
G04 #@! TO.P,U3,8,VCC*
G04 #@! TO.N,+3.3V*
X137700001Y-116700001D03*
G04 #@! TD*
D10*
G04 #@! TO.P,TP15,1,1*
G04 #@! TO.N,VESC_NEG*
X128750000Y-150600000D03*
G04 #@! TD*
D42*
G04 #@! TO.P,Q3,1,D*
G04 #@! TO.N,+5V*
X163875000Y-165775625D03*
D43*
G04 #@! TO.P,Q3,2,G*
G04 #@! TO.N,Net-(Q3-G)*
X161335000Y-165775625D03*
D42*
G04 #@! TO.P,Q3,3,S*
G04 #@! TO.N,PRE_DIS*
X166415000Y-165775625D03*
G04 #@! TD*
D12*
G04 #@! TO.P,RHIGH_10k6,1*
G04 #@! TO.N,Net-(Q4-G)*
X212737500Y-129512500D03*
D13*
G04 #@! TO.P,RHIGH_10k6,2*
G04 #@! TO.N,PRE_DIS*
X205117500Y-129512500D03*
G04 #@! TD*
D44*
G04 #@! TO.P,J1,1,Pin_1*
G04 #@! TO.N,VESC_POS*
X265000000Y-201500000D03*
G04 #@! TO.P,J1,2,Pin_2*
G04 #@! TO.N,VESC_NEG*
X235030000Y-201500000D03*
G04 #@! TD*
D12*
G04 #@! TO.P,R2,1*
G04 #@! TO.N,Net-(R1-Pad2)*
X108200000Y-162700000D03*
D13*
G04 #@! TO.P,R2,2*
G04 #@! TO.N,+5V*
X115820000Y-162700000D03*
G04 #@! TD*
D10*
G04 #@! TO.P,TP13,1,1*
G04 #@! TO.N,GND*
X90750000Y-140000000D03*
G04 #@! TD*
G04 #@! TO.P,TP1,1,1*
G04 #@! TO.N,Net-(Q2-D)*
X197125000Y-136656250D03*
G04 #@! TD*
D12*
G04 #@! TO.P,R12,1*
G04 #@! TO.N,DCDC_SW*
X162690000Y-111750000D03*
D13*
G04 #@! TO.P,R12,2*
G04 #@! TO.N,GND*
X170310000Y-111750000D03*
G04 #@! TD*
D16*
G04 #@! TO.P,GND,1*
G04 #@! TO.N,GND*
X292000000Y-88000000D03*
G04 #@! TD*
D10*
G04 #@! TO.P,TP6,1,1*
G04 #@! TO.N,HIGH_SIDE*
X228315625Y-109043750D03*
G04 #@! TD*
D45*
G04 #@! TO.P,PRECHARGE_RELAY1,1,SET+/RESET-*
G04 #@! TO.N,PRE_DIS*
X269760625Y-136685000D03*
G04 #@! TO.P,PRECHARGE_RELAY1,3,COM*
G04 #@! TO.N,Net-(PRECHARGE_RELAY1-COM)*
X269760625Y-131285000D03*
G04 #@! TO.P,PRECHARGE_RELAY1,6,NO*
G04 #@! TO.N,BATT_POS*
X263760625Y-131285000D03*
G04 #@! TO.P,PRECHARGE_RELAY1,8,SET-/RESET+*
G04 #@! TO.N,GND*
X263760625Y-136685000D03*
G04 #@! TD*
D10*
G04 #@! TO.P,TP11,1,1*
G04 #@! TO.N,/A3*
X109250000Y-150700000D03*
G04 #@! TD*
D12*
G04 #@! TO.P,R_RELAY_PULLDOWN4,1*
G04 #@! TO.N,PRE_DIS*
X173990000Y-183515000D03*
D13*
G04 #@! TO.P,R_RELAY_PULLDOWN4,2*
G04 #@! TO.N,GND*
X181610000Y-183515000D03*
G04 #@! TD*
D12*
G04 #@! TO.P,R13,1*
G04 #@! TO.N,GND*
X94600000Y-143100000D03*
D13*
G04 #@! TO.P,R13,2*
G04 #@! TO.N,VESC_NEG*
X102220000Y-143100000D03*
G04 #@! TD*
D46*
G04 #@! TO.P,J9,1,Pin_1*
G04 #@! TO.N,GND*
X191020000Y-182900000D03*
D34*
G04 #@! TO.P,J9,2,Pin_2*
G04 #@! TO.N,BATT_CURR_SENSOR*
X193560000Y-182900000D03*
G04 #@! TO.P,J9,3,Pin_3*
G04 #@! TO.N,BATT_V_SENSOR*
X196100000Y-182900000D03*
G04 #@! TD*
D12*
G04 #@! TO.P,R4,1*
G04 #@! TO.N,GND*
X109500000Y-135000000D03*
D13*
G04 #@! TO.P,R4,2*
G04 #@! TO.N,/A3*
X109500000Y-127380000D03*
G04 #@! TD*
D24*
G04 #@! TO.P,D1,1,K*
G04 #@! TO.N,PRE_DIS*
X272080000Y-144300000D03*
D25*
G04 #@! TO.P,D1,2,A*
G04 #@! TO.N,GND*
X261920000Y-144300000D03*
G04 #@! TD*
D12*
G04 #@! TO.P,R1,1*
G04 #@! TO.N,TORQUE_SENSOR*
X98150000Y-162800000D03*
D13*
G04 #@! TO.P,R1,2*
G04 #@! TO.N,Net-(R1-Pad2)*
X105770000Y-162800000D03*
G04 #@! TD*
D46*
G04 #@! TO.P,J8,1,Pin_1*
G04 #@! TO.N,GND*
X98000000Y-168400000D03*
D34*
G04 #@! TO.P,J8,2,Pin_2*
G04 #@! TO.N,TORQUE_SENSOR*
X100540000Y-168400000D03*
G04 #@! TO.P,J8,3,Pin_3*
G04 #@! TO.N,GND*
X103080000Y-168400000D03*
G04 #@! TO.P,J8,4,Pin_4*
G04 #@! TO.N,+24V*
X105620000Y-168400000D03*
G04 #@! TD*
D47*
G04 #@! TO.P,U2,1,1A*
G04 #@! TO.N,IO_ESTOP*
X132302250Y-107950000D03*
G04 #@! TO.P,U2,2,1B*
G04 #@! TO.N,HIGH_IN*
X132302250Y-108599986D03*
G04 #@! TO.P,U2,3,1Y*
G04 #@! TO.N,HIGH_SIDE_ANDOUT*
X132302250Y-109249972D03*
G04 #@! TO.P,U2,4,2A*
G04 #@! TO.N,IO_ESTOP*
X132302250Y-109899958D03*
G04 #@! TO.P,U2,5,2B*
G04 #@! TO.N,LOW_IN*
X132302250Y-110549944D03*
G04 #@! TO.P,U2,6,2Y*
G04 #@! TO.N,PRE_DIS_ANDOUT*
X132302250Y-111199930D03*
G04 #@! TO.P,U2,7,GND*
G04 #@! TO.N,GND*
X132302250Y-111849916D03*
G04 #@! TO.P,U2,8,3Y*
G04 #@! TO.N,unconnected-(U2-3Y-Pad8)*
X138207750Y-111849916D03*
G04 #@! TO.P,U2,9,3A*
G04 #@! TO.N,unconnected-(U2-3A-Pad9)*
X138207750Y-111199930D03*
G04 #@! TO.P,U2,10,3B*
G04 #@! TO.N,unconnected-(U2-3B-Pad10)*
X138207750Y-110549944D03*
G04 #@! TO.P,U2,11,4Y*
G04 #@! TO.N,unconnected-(U2-4Y-Pad11)*
X138207750Y-109899958D03*
G04 #@! TO.P,U2,12,4A*
G04 #@! TO.N,unconnected-(U2-4A-Pad12)*
X138207750Y-109249972D03*
G04 #@! TO.P,U2,13,4B*
G04 #@! TO.N,unconnected-(U2-4B-Pad13)*
X138207750Y-108599986D03*
G04 #@! TO.P,U2,14,VCC*
G04 #@! TO.N,+3.3V*
X138207750Y-107950000D03*
G04 #@! TD*
D10*
G04 #@! TO.P,TP12,1,1*
G04 #@! TO.N,/A4*
X114800000Y-150700000D03*
G04 #@! TD*
D12*
G04 #@! TO.P,R5,1*
G04 #@! TO.N,GND*
X113400000Y-135000000D03*
D13*
G04 #@! TO.P,R5,2*
G04 #@! TO.N,/A4*
X113400000Y-127380000D03*
G04 #@! TD*
D16*
G04 #@! TO.P,GND,1*
G04 #@! TO.N,GND*
X78000000Y-202000000D03*
G04 #@! TD*
D37*
G04 #@! TO.P,J4,1,Pin_1*
G04 #@! TO.N,GND*
X189865000Y-90170000D03*
D38*
G04 #@! TO.P,J4,2,Pin_2*
G04 #@! TO.N,+5V*
X187325000Y-90170000D03*
G04 #@! TO.P,J4,3,Pin_3*
G04 #@! TO.N,+3.3V*
X184785000Y-90170000D03*
G04 #@! TO.P,J4,4,Pin_4*
G04 #@! TO.N,GND*
X182245000Y-90170000D03*
G04 #@! TD*
D10*
G04 #@! TO.P,TP9,1,1*
G04 #@! TO.N,ADVANCE_BUTTON_RED*
X123350000Y-157000000D03*
G04 #@! TD*
D37*
G04 #@! TO.P,JP2,1,1*
G04 #@! TO.N,BOOT0*
X124460000Y-99060000D03*
D38*
G04 #@! TO.P,JP2,2,2*
G04 #@! TO.N,VESC_OUTPUT*
X121920000Y-99060000D03*
G04 #@! TO.P,JP2,3,3*
G04 #@! TO.N,VESC_INPUT*
X119380000Y-99060000D03*
G04 #@! TO.P,JP2,4,4*
G04 #@! TO.N,VESC_POWER_SWITCH*
X116840000Y-99060000D03*
G04 #@! TO.P,JP2,5,5*
G04 #@! TO.N,LOW_IN*
X114300000Y-99060000D03*
G04 #@! TO.P,JP2,6,6*
G04 #@! TO.N,HIGH_IN*
X111760000Y-99060000D03*
G04 #@! TO.P,JP2,7,7*
G04 #@! TO.N,BATT_CURR_SENSOR*
X109220000Y-99060000D03*
G04 #@! TO.P,JP2,8,8*
G04 #@! TO.N,/A4*
X106680000Y-99060000D03*
G04 #@! TO.P,JP2,9,9*
G04 #@! TO.N,/A3*
X104140000Y-99060000D03*
G04 #@! TO.P,JP2,10,10*
G04 #@! TO.N,/A2*
X101600000Y-99060000D03*
G04 #@! TO.P,JP2,11,11*
G04 #@! TO.N,/A1*
X99060000Y-99060000D03*
G04 #@! TO.P,JP2,12,12*
G04 #@! TO.N,/A0*
X96520000Y-99060000D03*
G04 #@! TO.P,JP2,13,13*
G04 #@! TO.N,GND*
X93980000Y-99060000D03*
G04 #@! TO.P,JP2,14,14*
G04 #@! TO.N,+3.3V*
X91440000Y-99060000D03*
G04 #@! TO.P,JP2,15,15*
X88900000Y-99060000D03*
G04 #@! TO.P,JP2,16,16*
G04 #@! TO.N,RESET*
X86360000Y-99060000D03*
G04 #@! TD*
D12*
G04 #@! TO.P,R10,1*
G04 #@! TO.N,Net-(R1-Pad2)*
X98000000Y-135100000D03*
D13*
G04 #@! TO.P,R10,2*
G04 #@! TO.N,/A1*
X98000000Y-127480000D03*
G04 #@! TD*
D42*
G04 #@! TO.P,Q4,1,D*
G04 #@! TO.N,PRE_DIS*
X206960000Y-122520000D03*
D43*
G04 #@! TO.P,Q4,2,G*
G04 #@! TO.N,Net-(Q4-G)*
X204420000Y-122520000D03*
D42*
G04 #@! TO.P,Q4,3,S*
G04 #@! TO.N,HIGH_SIDE*
X209500000Y-122520000D03*
G04 #@! TD*
D10*
G04 #@! TO.P,TP9,1,1*
G04 #@! TO.N,HIGH_SIDE_ANDOUT*
X166752000Y-132685000D03*
G04 #@! TD*
G04 #@! TO.P,TP10,1,1*
G04 #@! TO.N,/A1*
X103600000Y-150750000D03*
G04 #@! TD*
D17*
G04 #@! TO.P,C2,1*
G04 #@! TO.N,+24V*
X113250000Y-168642500D03*
D18*
G04 #@! TO.P,C2,2*
G04 #@! TO.N,GND*
X131250000Y-168642500D03*
G04 #@! TD*
D16*
G04 #@! TO.P,GND,1*
G04 #@! TO.N,GND*
X292000000Y-202000000D03*
G04 #@! TD*
D14*
G04 #@! TO.P,Q5,1,S*
G04 #@! TO.N,Net-(J5-CTRL)*
X170210000Y-101250000D03*
G04 #@! TO.P,Q5,2,G*
G04 #@! TO.N,DCDC_SW*
X171480000Y-101250000D03*
D15*
G04 #@! TO.P,Q5,3,D*
G04 #@! TO.N,+5V*
X172750000Y-101250000D03*
G04 #@! TD*
D14*
G04 #@! TO.P,Q2,1,S*
G04 #@! TO.N,GND*
X202400000Y-144500000D03*
G04 #@! TO.P,Q2,2,G*
G04 #@! TO.N,HIGH_SIDE_ANDOUT*
X203670000Y-144500000D03*
D15*
G04 #@! TO.P,Q2,3,D*
G04 #@! TO.N,Net-(Q2-D)*
X204940000Y-144500000D03*
G04 #@! TD*
D48*
G04 #@! TO.N,BOOT0*
X127000000Y-91000000D03*
X124460000Y-94460000D03*
G04 #@! TO.N,+5V*
X145000000Y-160250000D03*
X170636563Y-132500000D03*
X170672500Y-144922500D03*
X163875000Y-160250000D03*
G04 #@! TO.N,VESC_NEG*
X129450000Y-131750000D03*
X168910000Y-127635000D03*
X148450000Y-131750000D03*
X187000000Y-127600000D03*
G04 #@! TO.N,GND*
X177000000Y-117000000D03*
X182245000Y-122250000D03*
D49*
G04 #@! TO.N,BATT_V_SENSOR*
X210250000Y-178350000D03*
X202250000Y-186350000D03*
D48*
X77600000Y-97900000D03*
X93700000Y-81800000D03*
D49*
X186200000Y-202400000D03*
D48*
G04 #@! TO.N,BATT_CURR_SENSOR*
X123825000Y-113665000D03*
X211800000Y-179800000D03*
G04 #@! TO.N,Torq_SW_Mode_1*
X141300000Y-117600000D03*
G04 #@! TO.N,Torq_SW_Mode_2*
X140200000Y-118200000D03*
G04 #@! TO.N,Torq_SW_Mode_3*
X139200000Y-118800000D03*
G04 #@! TO.N,Ref_Model_SW*
X123900000Y-105500000D03*
D49*
G04 #@! TO.N,WAVE_GAUGE*
X96800000Y-146950000D03*
D48*
G04 #@! TO.N,ADVANCE_BUTTON_RED*
X137700000Y-105410000D03*
G04 #@! TO.N,/A4*
X105800000Y-121500000D03*
X105700000Y-105700000D03*
G04 #@! TO.N,+3.3V*
X102000000Y-204250000D03*
X142000000Y-107950000D03*
X132000000Y-101350000D03*
G04 #@! TO.N,RESET*
X130000000Y-95885000D03*
X94615000Y-95885000D03*
X160020000Y-90805000D03*
G04 #@! TO.N,DCDC_SW*
X176500000Y-93500000D03*
X176500000Y-85250000D03*
G04 #@! TO.N,Net-(J5-CTRL)*
X151250000Y-119250000D03*
G04 #@! TO.N,LOW_IN*
X129600486Y-110699458D03*
X129600000Y-107600000D03*
G04 #@! TO.N,TORQ_SWITCH_1*
X147955000Y-103505000D03*
X145300000Y-110400000D03*
G04 #@! TO.N,TORQ_SWITCH_2*
X150812500Y-98742500D03*
X149860000Y-109220000D03*
G04 #@! TO.N,PRE_DIS*
X248300000Y-155000000D03*
X184770000Y-134000000D03*
G04 #@! TO.N,PRE_DIS_ANDOUT*
X141300000Y-112985023D03*
X153035000Y-123235000D03*
G04 #@! TO.N,HIGH_SIDE_ANDOUT*
X127635000Y-109855000D03*
X175300000Y-137000000D03*
G04 #@! TD*
D50*
G04 #@! TO.N,+3.3V*
X137500000Y-88800000D02*
X137500000Y-94500000D01*
X137500000Y-94500000D02*
X132000000Y-100000000D01*
X136000000Y-87300000D02*
X137500000Y-88800000D01*
X135100000Y-87300000D02*
X136000000Y-87300000D01*
G04 #@! TO.N,BOOT0*
X124460000Y-94460000D02*
X124460000Y-99060000D01*
G04 #@! TO.N,+3.3V*
X132000000Y-100000000D02*
X132000000Y-101350000D01*
X123500000Y-91500000D02*
X122695000Y-90695000D01*
X123500000Y-91500000D02*
X132000000Y-100000000D01*
X122695000Y-90695000D02*
X113900000Y-90695000D01*
G04 #@! TO.N,BOOT0*
X128900000Y-91000000D02*
X127000000Y-91000000D01*
X135100000Y-91000000D02*
X128900000Y-91000000D01*
G04 #@! TO.N,+3.3V*
X128900000Y-87300000D02*
X135100000Y-87300000D01*
G04 #@! TO.N,RESET*
X120995000Y-86995000D02*
X113900000Y-86995000D01*
X129885000Y-95885000D02*
X120995000Y-86995000D01*
X130000000Y-95885000D02*
X129885000Y-95885000D01*
G04 #@! TO.N,VESC_OUTPUT*
X83000000Y-138500000D02*
X83750000Y-138500000D01*
X78740000Y-134240000D02*
X83000000Y-138500000D01*
X78740000Y-98460000D02*
X78740000Y-134240000D01*
X95285000Y-81915000D02*
X78740000Y-98460000D01*
X104000000Y-83000000D02*
X102915000Y-81915000D01*
X104000000Y-85000000D02*
X104000000Y-83000000D01*
X114000000Y-95000000D02*
X104000000Y-85000000D01*
X118000000Y-95000000D02*
X114000000Y-95000000D01*
X121920000Y-98920000D02*
X118000000Y-95000000D01*
X102915000Y-81915000D02*
X95285000Y-81915000D01*
X121920000Y-99060000D02*
X121920000Y-98920000D01*
G04 #@! TO.N,VESC_INPUT*
X82460000Y-135960000D02*
X83750000Y-135960000D01*
X80010000Y-133510000D02*
X82460000Y-135960000D01*
X80010000Y-99060000D02*
X80010000Y-133510000D01*
X103000000Y-84000000D02*
X101900000Y-82900000D01*
X101900000Y-82900000D02*
X96170000Y-82900000D01*
X103000000Y-86000000D02*
X103000000Y-84000000D01*
X117000000Y-96000000D02*
X113000000Y-96000000D01*
X113000000Y-96000000D02*
X103000000Y-86000000D01*
X119380000Y-98380000D02*
X117000000Y-96000000D01*
X119380000Y-99060000D02*
X119380000Y-98380000D01*
X96170000Y-82900000D02*
X80010000Y-99060000D01*
G04 #@! TO.N,/A4*
X106680000Y-96780000D02*
X106680000Y-99060000D01*
X103520000Y-93620000D02*
X106680000Y-96780000D01*
X100000000Y-93620000D02*
X103520000Y-93620000D01*
G04 #@! TO.N,VESC_POWER_SWITCH*
X81951503Y-133420000D02*
X83750000Y-133420000D01*
X81280000Y-132748497D02*
X81951503Y-133420000D01*
X81280000Y-99695000D02*
X81280000Y-132748497D01*
X97155000Y-83820000D02*
X81280000Y-99695000D01*
X100820000Y-83820000D02*
X97155000Y-83820000D01*
X112000000Y-97000000D02*
X102000000Y-87000000D01*
X102000000Y-85000000D02*
X100820000Y-83820000D01*
X116840000Y-98840000D02*
X115000000Y-97000000D01*
X116840000Y-99060000D02*
X116840000Y-98840000D01*
X115000000Y-97000000D02*
X112000000Y-97000000D01*
X102000000Y-87000000D02*
X102000000Y-85000000D01*
D51*
G04 #@! TO.N,BATT_POS*
X262500000Y-131750000D02*
X248750000Y-131750000D01*
X263250000Y-131000000D02*
X262500000Y-131750000D01*
X263250000Y-115500000D02*
X263250000Y-131000000D01*
X266000000Y-112750000D02*
X263250000Y-115500000D01*
X266000000Y-89000000D02*
X266000000Y-112750000D01*
D50*
G04 #@! TO.N,GND*
X244721875Y-94278125D02*
X244721875Y-101900000D01*
X256250000Y-82750000D02*
X244721875Y-94278125D01*
X292000000Y-88000000D02*
X286750000Y-82750000D01*
X286750000Y-82750000D02*
X256250000Y-82750000D01*
G04 #@! TO.N,DCDC_SW*
X151120000Y-86350000D02*
X151130000Y-86360000D01*
X143000000Y-86350000D02*
X151120000Y-86350000D01*
G04 #@! TO.N,+5V*
X182880000Y-94615000D02*
X187325000Y-90170000D01*
X182880000Y-101000000D02*
X182880000Y-94615000D01*
G04 #@! TO.N,DCDC_SW*
X190500000Y-94000000D02*
X190500000Y-101000000D01*
X193250000Y-91250000D02*
X190500000Y-94000000D01*
X193250000Y-89250000D02*
X193250000Y-91250000D01*
X189250000Y-85250000D02*
X193250000Y-89250000D01*
X176500000Y-85250000D02*
X189250000Y-85250000D01*
D52*
G04 #@! TO.N,BATT_POS*
X193040000Y-104960000D02*
X193040000Y-101000000D01*
X183000000Y-115000000D02*
X193040000Y-104960000D01*
X248750000Y-117250000D02*
X248750000Y-131750000D01*
X240750000Y-109250000D02*
X248750000Y-117250000D01*
X224550000Y-82550000D02*
X240750000Y-98750000D01*
D50*
G04 #@! TO.N,+5V*
X182880000Y-105120000D02*
X182880000Y-101000000D01*
D52*
G04 #@! TO.N,BATT_POS*
X205740000Y-82550000D02*
X224550000Y-82550000D01*
X240750000Y-98750000D02*
X240750000Y-109250000D01*
X193040000Y-95250000D02*
X205740000Y-82550000D01*
G04 #@! TO.N,VESC_NEG*
X195580000Y-104580000D02*
X200000000Y-109000000D01*
D50*
G04 #@! TO.N,+5V*
X179125000Y-108875000D02*
X182880000Y-105120000D01*
D52*
G04 #@! TO.N,VESC_NEG*
X195580000Y-101000000D02*
X195580000Y-104580000D01*
G04 #@! TO.N,BATT_POS*
X182000000Y-115000000D02*
X183000000Y-115000000D01*
G04 #@! TO.N,VESC_NEG*
X200000000Y-109000000D02*
X200000000Y-115000000D01*
G04 #@! TO.N,BATT_POS*
X193040000Y-101000000D02*
X193040000Y-95250000D01*
D50*
G04 #@! TO.N,+5V*
X171250000Y-125000000D02*
X170605000Y-125645000D01*
X178250000Y-125000000D02*
X171250000Y-125000000D01*
X170605000Y-132468437D02*
X170636563Y-132500000D01*
X179125000Y-124125000D02*
X178250000Y-125000000D01*
X179125000Y-108875000D02*
X179125000Y-124125000D01*
X170605000Y-125645000D02*
X170605000Y-132468437D01*
X172750000Y-102500000D02*
X179125000Y-108875000D01*
X172750000Y-101250000D02*
X172750000Y-102500000D01*
D52*
G04 #@! TO.N,VESC_NEG*
X187400000Y-127600000D02*
X200000000Y-115000000D01*
X187000000Y-127600000D02*
X187400000Y-127600000D01*
X204940000Y-109960000D02*
X206970000Y-109960000D01*
X200000000Y-114900000D02*
X204940000Y-109960000D01*
X200000000Y-115000000D02*
X200000000Y-114900000D01*
D50*
G04 #@! TO.N,GND*
X176500000Y-121250000D02*
X174700000Y-121250000D01*
X177000000Y-117000000D02*
X177000000Y-120750000D01*
X177000000Y-117000000D02*
X171750000Y-111750000D01*
X171750000Y-111750000D02*
X170310000Y-111750000D01*
X177000000Y-120750000D02*
X176500000Y-121250000D01*
G04 #@! TO.N,+5V*
X137250000Y-196250000D02*
X137250000Y-179500000D01*
X115820000Y-162700000D02*
X115950000Y-162700000D01*
X170672500Y-144922500D02*
X163830000Y-151765000D01*
X163830000Y-151765000D02*
X163830000Y-154001472D01*
X145000000Y-160250000D02*
X131500000Y-173750000D01*
X159001250Y-171974375D02*
X163875000Y-167100625D01*
X163875000Y-154046472D02*
X163875000Y-165775625D01*
X137250000Y-179500000D02*
X131500000Y-173750000D01*
X127000000Y-173750000D02*
X131500000Y-173750000D01*
X163875000Y-160250000D02*
X163875000Y-165775625D01*
X163875000Y-167100625D02*
X163875000Y-165775625D01*
X163830000Y-154001472D02*
X163875000Y-154046472D01*
X115950000Y-162700000D02*
X127000000Y-173750000D01*
D51*
G04 #@! TO.N,VESC_NEG*
X220400000Y-123380000D02*
X220400000Y-157600000D01*
X235030000Y-201500000D02*
X226800000Y-201500000D01*
X213030000Y-109960000D02*
X210005000Y-112985000D01*
X210005000Y-112985000D02*
X220400000Y-123380000D01*
X235030000Y-201500000D02*
X252200000Y-184330000D01*
X226800000Y-201500000D02*
X197335000Y-172035000D01*
X210005000Y-112995000D02*
X206970000Y-109960000D01*
D52*
X162200000Y-130600000D02*
X162200000Y-133710000D01*
D51*
X220400000Y-157600000D02*
X210995000Y-167005000D01*
D52*
X165165000Y-127635000D02*
X162200000Y-130600000D01*
X162200000Y-133710000D02*
X158115000Y-137795000D01*
D51*
X210005000Y-112985000D02*
X210005000Y-112995000D01*
D52*
X148450000Y-131750000D02*
X129450000Y-131750000D01*
D51*
X213030000Y-109960000D02*
X206970000Y-109960000D01*
X252200000Y-165523400D02*
X248104600Y-161428000D01*
X252200000Y-184330000D02*
X252200000Y-165523400D01*
X197335000Y-172035000D02*
X197335000Y-167005000D01*
X210995000Y-167005000D02*
X197335000Y-167005000D01*
D52*
X168910000Y-127635000D02*
X165165000Y-127635000D01*
D51*
G04 #@! TO.N,BATT_NEG*
X210000000Y-97010000D02*
X206970000Y-100040000D01*
X210000000Y-89918750D02*
X210000000Y-97010000D01*
X213030000Y-100040000D02*
X210000000Y-97010000D01*
X206970000Y-100040000D02*
X213030000Y-100040000D01*
D50*
G04 #@! TO.N,GND*
X179895000Y-167005000D02*
X178435000Y-167005000D01*
X208125500Y-151737500D02*
X208162500Y-151737500D01*
D53*
X134710000Y-118200000D02*
X136910000Y-120400000D01*
D50*
X261680625Y-144303750D02*
X251303750Y-144303750D01*
X158115000Y-196215000D02*
X156445000Y-194545000D01*
X156445000Y-194545000D02*
X156445000Y-187099375D01*
D53*
X132302250Y-111849916D02*
X132300000Y-111852166D01*
D50*
X121100000Y-130400000D02*
X121100000Y-135000000D01*
X98635000Y-170305000D02*
X102445000Y-170305000D01*
X166621250Y-194199375D02*
X166621250Y-195963750D01*
D52*
X94600000Y-137120000D02*
X93630000Y-137120000D01*
D50*
X183495000Y-181630000D02*
X184765000Y-182900000D01*
X182245000Y-122250000D02*
X182245000Y-129495000D01*
X93980000Y-99060000D02*
X93980000Y-109220000D01*
X261882500Y-151447500D02*
X261882500Y-144466875D01*
X89650000Y-168400000D02*
X78300000Y-179750000D01*
X244369036Y-119530964D02*
X244950000Y-118950000D01*
X98000000Y-168400000D02*
X89650000Y-168400000D01*
X133260000Y-118240000D02*
X121100000Y-130400000D01*
X202438000Y-144500000D02*
X202438000Y-146050000D01*
X133260000Y-118200000D02*
X133260000Y-118240000D01*
X166370000Y-196215000D02*
X158115000Y-196215000D01*
X78300000Y-201700000D02*
X78300000Y-179750000D01*
X121100000Y-135000000D02*
X127380000Y-135000000D01*
X85725000Y-117475000D02*
X85725000Y-128905000D01*
X103080000Y-169670000D02*
X102445000Y-170305000D01*
X171450000Y-86360000D02*
X171450000Y-86995000D01*
X263760625Y-142223750D02*
X263760625Y-136685000D01*
X137795000Y-163505000D02*
X132657500Y-168642500D01*
D52*
X93630000Y-137120000D02*
X90750000Y-140000000D01*
D50*
X261882500Y-144466875D02*
X261700000Y-144284375D01*
X175260000Y-90170000D02*
X171450000Y-86360000D01*
D52*
X83750000Y-130880000D02*
X88360000Y-130880000D01*
D50*
X93980000Y-109220000D02*
X85725000Y-117475000D01*
X117300000Y-135100000D02*
X117400000Y-135000000D01*
D53*
X132300000Y-117240000D02*
X133260000Y-118200000D01*
D50*
X170310000Y-107500000D02*
X170310000Y-111750000D01*
X78300000Y-157600000D02*
X82264000Y-153636000D01*
X84864000Y-153636000D02*
X85880000Y-152620000D01*
X183495000Y-175199375D02*
X178435000Y-170139375D01*
X202400000Y-144500000D02*
X179895000Y-167005000D01*
X85725000Y-128905000D02*
X83750000Y-130880000D01*
X251303750Y-144303750D02*
X244369036Y-137369036D01*
X137795000Y-145415000D02*
X137795000Y-163505000D01*
X82264000Y-153636000D02*
X84400000Y-153636000D01*
D53*
X167860000Y-114200000D02*
X170310000Y-111750000D01*
D50*
X261680625Y-144303750D02*
X261700000Y-144284375D01*
X170925625Y-194199375D02*
X181610000Y-183515000D01*
D53*
X134314999Y-118200000D02*
X134710000Y-118200000D01*
D50*
X166621250Y-194199375D02*
X170925625Y-194199375D01*
D53*
X141220000Y-120400000D02*
X147420000Y-114200000D01*
D50*
X101900000Y-135120000D02*
X101900000Y-135000000D01*
X86180000Y-152620000D02*
X87450000Y-151350000D01*
X98000000Y-169670000D02*
X98635000Y-170305000D01*
X101900000Y-135000000D02*
X95805000Y-128905000D01*
D53*
X134349999Y-118200000D02*
X133400000Y-118200000D01*
D50*
X166621250Y-195963750D02*
X166370000Y-196215000D01*
X103080000Y-168400000D02*
X103080000Y-169670000D01*
D53*
X136910000Y-120400000D02*
X141220000Y-120400000D01*
D50*
X78000000Y-202000000D02*
X78300000Y-201700000D01*
X202438000Y-146050000D02*
X208125500Y-151737500D01*
X98000000Y-168400000D02*
X98000000Y-169670000D01*
X208162500Y-151737500D02*
X208200000Y-151700000D01*
X87450000Y-151350000D02*
X87450000Y-134580000D01*
X178435000Y-170139375D02*
X178435000Y-167005000D01*
X197250000Y-144500000D02*
X202438000Y-144500000D01*
X95805000Y-128905000D02*
X85725000Y-128905000D01*
D52*
X88360000Y-130880000D02*
X94600000Y-137120000D01*
D53*
X147420000Y-114200000D02*
X167860000Y-114200000D01*
D50*
X183495000Y-181630000D02*
X183495000Y-175199375D01*
X132657500Y-168642500D02*
X131250000Y-168642500D01*
X182245000Y-129495000D02*
X197250000Y-144500000D01*
X87450000Y-134580000D02*
X83750000Y-130880000D01*
X184765000Y-182900000D02*
X191020000Y-182900000D01*
X85880000Y-152620000D02*
X86180000Y-152620000D01*
X83750000Y-130880000D02*
X83700000Y-130830000D01*
X84400000Y-153636000D02*
X84864000Y-153636000D01*
X261700000Y-144284375D02*
X263760625Y-142223750D01*
D52*
X94600000Y-137120000D02*
X94600000Y-143100000D01*
D50*
X78300000Y-179750000D02*
X78300000Y-157600000D01*
X127380000Y-135000000D02*
X137795000Y-145415000D01*
X244369036Y-137369036D02*
X244369036Y-119530964D01*
D53*
X132300000Y-111852166D02*
X132300000Y-117240000D01*
D50*
X181610000Y-183515000D02*
X183495000Y-181630000D01*
X182245000Y-90170000D02*
X175260000Y-90170000D01*
X292000000Y-202000000D02*
X292000000Y-88000000D01*
G04 #@! TO.N,BATT_V_SENSOR*
X222750000Y-178350000D02*
X231940000Y-169160000D01*
X199550000Y-186350000D02*
X196100000Y-182900000D01*
X210250000Y-178350000D02*
X222750000Y-178350000D01*
X186200000Y-202400000D02*
X202250000Y-186350000D01*
X77600000Y-97900000D02*
X93700000Y-81800000D01*
X231940000Y-169160000D02*
X231940000Y-153800000D01*
X202250000Y-186350000D02*
X199550000Y-186350000D01*
G04 #@! TO.N,BATT_CURR_SENSOR*
X234480000Y-169020000D02*
X224400000Y-179100000D01*
X234480000Y-153800000D02*
X234480000Y-169020000D01*
X118130000Y-107970000D02*
X109220000Y-99060000D01*
X224400000Y-179100000D02*
X223700000Y-179800000D01*
X223700000Y-179800000D02*
X211800000Y-179800000D01*
X123825000Y-113665000D02*
X118130000Y-107970000D01*
D53*
G04 #@! TO.N,Torq_SW_Mode_1*
X141300000Y-117600000D02*
X140900000Y-117200000D01*
X140900000Y-117200000D02*
X137550000Y-117200000D01*
G04 #@! TO.N,Torq_SW_Mode_2*
X139700002Y-117700002D02*
X137550000Y-117700002D01*
X140200000Y-118200000D02*
X139700002Y-117700002D01*
G04 #@! TO.N,Torq_SW_Mode_3*
X139200000Y-118800000D02*
X138600000Y-118200000D01*
X138600000Y-118200000D02*
X137550000Y-118200000D01*
D50*
G04 #@! TO.N,Ref_Model_SW*
X134530000Y-105500000D02*
X123900000Y-105500000D01*
X153670000Y-86360000D02*
X134530000Y-105500000D01*
G04 #@! TO.N,WAVE_GAUGE*
X89098000Y-154652000D02*
X86180000Y-154652000D01*
X96800000Y-146950000D02*
X89098000Y-154652000D01*
G04 #@! TO.N,IO_ESTOP*
X119650000Y-128830000D02*
X121100000Y-127380000D01*
X123100000Y-150700000D02*
X123100000Y-148050000D01*
X136525000Y-106680000D02*
X135255000Y-107950000D01*
X119380000Y-119380000D02*
X128860042Y-109899958D01*
X166370000Y-90170000D02*
X149860000Y-106680000D01*
X128860042Y-109899958D02*
X132302250Y-109899958D01*
X123100000Y-148050000D02*
X119650000Y-144600000D01*
X132302250Y-107950000D02*
X135255000Y-107950000D01*
X132302250Y-109899958D02*
X133305042Y-109899958D01*
X119380000Y-125660000D02*
X121100000Y-127380000D01*
X149860000Y-106680000D02*
X136525000Y-106680000D01*
X119380000Y-119380000D02*
X119380000Y-125660000D01*
X135255000Y-107950000D02*
X133305042Y-109899958D01*
X119650000Y-144600000D02*
X119650000Y-128830000D01*
X166370000Y-86360000D02*
X166370000Y-90170000D01*
G04 #@! TO.N,/A1*
X99060000Y-110640000D02*
X99060000Y-99060000D01*
X92200000Y-121800000D02*
X92200000Y-117500000D01*
X92200000Y-117500000D02*
X99060000Y-110640000D01*
X97880000Y-127480000D02*
X92200000Y-121800000D01*
X103890000Y-129490000D02*
X103890000Y-150460000D01*
X103890000Y-150460000D02*
X103600000Y-150750000D01*
X98000000Y-127480000D02*
X97880000Y-127480000D01*
X101880000Y-127480000D02*
X98000000Y-127480000D01*
X101900000Y-127500000D02*
X103890000Y-129490000D01*
X101900000Y-127500000D02*
X101880000Y-127480000D01*
D51*
G04 #@! TO.N,Net-(PRECHARGE_RELAY1-COM)*
X277813750Y-131285000D02*
X281841875Y-127256875D01*
X271938750Y-131285000D02*
X277813750Y-131285000D01*
X281841875Y-127256875D02*
X281841875Y-117082500D01*
D50*
G04 #@! TO.N,Net-(Q1-D)*
X153118125Y-179118125D02*
X159001250Y-179118125D01*
X151750000Y-177750000D02*
X153118125Y-179118125D01*
X158985000Y-179134375D02*
X159001250Y-179118125D01*
X158985000Y-187099375D02*
X158985000Y-179134375D01*
G04 #@! TO.N,Net-(Q2-D)*
X204978000Y-136795750D02*
X205117500Y-136656250D01*
X197125000Y-136656250D02*
X205117500Y-136656250D01*
X204978000Y-144500000D02*
X204978000Y-136795750D01*
G04 #@! TO.N,Net-(Q3-G)*
X166621250Y-171974375D02*
X165240625Y-173355000D01*
X157480000Y-172720000D02*
X157480000Y-169630625D01*
X157480000Y-169630625D02*
X161335000Y-165775625D01*
X166883750Y-187849375D02*
X166883750Y-179380625D01*
X166883750Y-179380625D02*
X166621250Y-179118125D01*
X166621250Y-179118125D02*
X166621250Y-171974375D01*
X165240625Y-173355000D02*
X158115000Y-173355000D01*
X158115000Y-173355000D02*
X157480000Y-172720000D01*
G04 #@! TO.N,Net-(Q4-G)*
X212737500Y-136656250D02*
X212737500Y-141062500D01*
X212737500Y-141062500D02*
X211000000Y-142800000D01*
X212737500Y-136656250D02*
X212737500Y-129512500D01*
X211412500Y-129512500D02*
X204420000Y-122520000D01*
X213000000Y-136918750D02*
X212737500Y-136656250D01*
X212737500Y-129512500D02*
X211412500Y-129512500D01*
D51*
G04 #@! TO.N,Net-(HIGH_SIDE_RELAY1-NO)*
X240481600Y-155205000D02*
X240481600Y-143781600D01*
X240481600Y-143781600D02*
X230950000Y-134250000D01*
D50*
G04 #@! TO.N,ADVANCE_BUTTON_RED*
X123000000Y-157000000D02*
X118850000Y-152850000D01*
X118850000Y-152850000D02*
X118850000Y-129030000D01*
X137700000Y-105410000D02*
X147955000Y-105410000D01*
X147955000Y-105410000D02*
X163830000Y-89535000D01*
X163830000Y-89535000D02*
X163830000Y-86360000D01*
X123350000Y-157000000D02*
X123000000Y-157000000D01*
X118850000Y-129030000D02*
X117300000Y-127480000D01*
X116840000Y-127020000D02*
X116840000Y-119380000D01*
X117300000Y-127480000D02*
X116840000Y-127020000D01*
G04 #@! TO.N,/A4*
X113400000Y-131653830D02*
X115150000Y-133403830D01*
X107500000Y-121500000D02*
X105800000Y-121500000D01*
X105700000Y-105700000D02*
X106700000Y-104700000D01*
X113380000Y-127380000D02*
X107500000Y-121500000D01*
X113400000Y-127380000D02*
X113400000Y-131653830D01*
X115150000Y-133403830D02*
X115150000Y-150350000D01*
X106700000Y-99080000D02*
X106680000Y-99060000D01*
X106700000Y-104700000D02*
X106700000Y-99080000D01*
X115150000Y-150350000D02*
X114800000Y-150700000D01*
X113400000Y-127380000D02*
X113380000Y-127380000D01*
G04 #@! TO.N,/A3*
X100100000Y-121800000D02*
X94500000Y-121800000D01*
X109480000Y-127400000D02*
X109500000Y-127380000D01*
X94500000Y-121800000D02*
X93600000Y-120900000D01*
X105700000Y-127400000D02*
X109480000Y-127400000D01*
X105700000Y-127400000D02*
X100100000Y-121800000D01*
X104140000Y-107460000D02*
X104140000Y-99060000D01*
X93600000Y-120900000D02*
X93600000Y-118000000D01*
X111450000Y-139005500D02*
X111450000Y-129330000D01*
X93600000Y-118000000D02*
X104140000Y-107460000D01*
X111450000Y-129330000D02*
X109500000Y-127380000D01*
X109250000Y-150700000D02*
X109250000Y-141205500D01*
X109250000Y-141205500D02*
X111450000Y-139005500D01*
G04 #@! TO.N,TORQUE_SENSOR*
X98150000Y-162800000D02*
X100840000Y-165490000D01*
X100840000Y-165490000D02*
X100840000Y-168100000D01*
X100840000Y-168100000D02*
X100540000Y-168400000D01*
G04 #@! TO.N,+3.3V*
X168910000Y-87630000D02*
X168910000Y-90805000D01*
X183115000Y-88500000D02*
X176500000Y-88500000D01*
X168910000Y-86360000D02*
X168910000Y-87630000D01*
X146000000Y-107950000D02*
X139700000Y-107950000D01*
X137600000Y-116650001D02*
X140549999Y-116650001D01*
X88900000Y-99060000D02*
X91440000Y-99060000D01*
X140549999Y-116650001D02*
X146300001Y-110899999D01*
X146300001Y-110899999D02*
X146300001Y-107950000D01*
X184785000Y-90170000D02*
X183115000Y-88500000D01*
X168910000Y-85090000D02*
X168910000Y-86360000D01*
X138207750Y-107950000D02*
X139700000Y-107950000D01*
X102000000Y-204250000D02*
X110250000Y-196000000D01*
X110250000Y-196000000D02*
X115700000Y-196000000D01*
X168910000Y-90805000D02*
X151765000Y-107950000D01*
X170000000Y-84000000D02*
X168910000Y-85090000D01*
X151765000Y-107950000D02*
X146000000Y-107950000D01*
X172000000Y-84000000D02*
X170000000Y-84000000D01*
X176500000Y-88500000D02*
X172000000Y-84000000D01*
G04 #@! TO.N,RESET*
X160020000Y-90805000D02*
X161290000Y-89535000D01*
X161290000Y-89535000D02*
X161290000Y-86360000D01*
X86360000Y-99060000D02*
X89535000Y-95885000D01*
X89535000Y-95885000D02*
X94615000Y-95885000D01*
G04 #@! TO.N,+24V*
X125900000Y-181292500D02*
X113250000Y-168642500D01*
X112600000Y-168400000D02*
X113200000Y-169000000D01*
X105620000Y-168400000D02*
X112600000Y-168400000D01*
X125900000Y-196200000D02*
X125900000Y-181292500D01*
G04 #@! TO.N,HIGH_IN*
X132302250Y-108599986D02*
X121299986Y-108599986D01*
X121299986Y-108599986D02*
X111760000Y-99060000D01*
G04 #@! TO.N,DCDC_SW*
X174000000Y-82750000D02*
X153250000Y-82750000D01*
X171480000Y-98520000D02*
X171480000Y-101250000D01*
X171480000Y-101250000D02*
X171480000Y-102960000D01*
X151130000Y-84870000D02*
X151130000Y-86360000D01*
X171480000Y-102960000D02*
X162690000Y-111750000D01*
X176500000Y-85250000D02*
X174000000Y-82750000D01*
X153250000Y-82750000D02*
X151130000Y-84870000D01*
X176500000Y-93500000D02*
X171480000Y-98520000D01*
G04 #@! TO.N,Net-(R1-Pad2)*
X97790000Y-159740000D02*
X100800000Y-162750000D01*
X100800000Y-162750000D02*
X105720000Y-162750000D01*
X108150000Y-162750000D02*
X108200000Y-162700000D01*
X105820000Y-162750000D02*
X108150000Y-162750000D01*
X98000000Y-135100000D02*
X97790000Y-135310000D01*
X97790000Y-135310000D02*
X97790000Y-159740000D01*
X105720000Y-162750000D02*
X105770000Y-162800000D01*
X105770000Y-162800000D02*
X105820000Y-162750000D01*
G04 #@! TO.N,Net-(J5-CTRL)*
X163960000Y-107500000D02*
X170210000Y-101250000D01*
X155850000Y-145350000D02*
X155915000Y-145415000D01*
X155850000Y-145450000D02*
X155850000Y-145350000D01*
X162690000Y-107500000D02*
X163960000Y-107500000D01*
X147550000Y-153750000D02*
X155850000Y-145450000D01*
X151250000Y-119250000D02*
X151250000Y-140750000D01*
X147550000Y-154200000D02*
X147550000Y-153750000D01*
X155915000Y-145415000D02*
X158115000Y-145415000D01*
X151250000Y-140750000D02*
X155850000Y-145350000D01*
G04 #@! TO.N,LOW_IN*
X129600486Y-110549944D02*
X129600486Y-110699458D01*
X122840000Y-107600000D02*
X114300000Y-99060000D01*
X129600000Y-107600000D02*
X122840000Y-107600000D01*
X129600486Y-110549944D02*
X129600000Y-110549458D01*
X132302250Y-110549944D02*
X129750000Y-110549944D01*
X129750000Y-110549944D02*
X129600486Y-110699458D01*
G04 #@! TO.N,TORQ_SWITCH_1*
X158750000Y-86360000D02*
X158750000Y-87630000D01*
X158750000Y-87630000D02*
X158750000Y-92710000D01*
D53*
X145300000Y-110500000D02*
X140100000Y-115700000D01*
X135350000Y-115700000D02*
X134349999Y-116700001D01*
X140100000Y-115700000D02*
X135350000Y-115700000D01*
X145300000Y-110400000D02*
X145300000Y-110500000D01*
D50*
X158750000Y-92710000D02*
X147955000Y-103505000D01*
G04 #@! TO.N,TORQ_SWITCH_2*
X156210000Y-93345000D02*
X150812500Y-98742500D01*
D53*
X149860000Y-110490000D02*
X140550000Y-119800000D01*
X135100000Y-117200000D02*
X134349999Y-117200000D01*
X140550000Y-119800000D02*
X137700000Y-119800000D01*
X137700000Y-119800000D02*
X135100000Y-117200000D01*
X149860000Y-109220000D02*
X149860000Y-110490000D01*
D50*
X156210000Y-86360000D02*
X156210000Y-93345000D01*
G04 #@! TO.N,PRE_DIS*
X248300000Y-155000000D02*
X265950000Y-155000000D01*
X271145000Y-159385000D02*
X270882500Y-159122500D01*
X184770000Y-134000000D02*
X166415000Y-152355000D01*
X269502500Y-151447500D02*
X271840625Y-149109375D01*
X166415000Y-152355000D02*
X166415000Y-165775625D01*
X173335000Y-175199375D02*
X173335000Y-182860000D01*
X173335000Y-175199375D02*
X173335000Y-172695625D01*
X178435000Y-159385000D02*
X172805625Y-159385000D01*
X271840625Y-149109375D02*
X271840625Y-138765000D01*
X271840625Y-138765000D02*
X269760625Y-136685000D01*
X171800000Y-158379375D02*
X171800000Y-154200000D01*
X173335000Y-182860000D02*
X173990000Y-183515000D01*
X172805625Y-159385000D02*
X166415000Y-165775625D01*
X271145000Y-153090000D02*
X271145000Y-159385000D01*
X269502500Y-151447500D02*
X271145000Y-153090000D01*
X173335000Y-172695625D02*
X166415000Y-165775625D01*
X172805625Y-159385000D02*
X171800000Y-158379375D01*
X265950000Y-155000000D02*
X269502500Y-151447500D01*
G04 #@! TO.N,PRE_DIS_ANDOUT*
X157196000Y-142591000D02*
X166752000Y-142591000D01*
X146685000Y-183515000D02*
X146050000Y-182880000D01*
X154876950Y-183515000D02*
X146685000Y-183515000D01*
D53*
X141300000Y-112985023D02*
X136330163Y-112985023D01*
D50*
X146050000Y-163293000D02*
X166752000Y-142591000D01*
D53*
X134545070Y-111199930D02*
X132302250Y-111199930D01*
D50*
X157715000Y-192913125D02*
X157715000Y-187099375D01*
X157715000Y-186353050D02*
X154876950Y-183515000D01*
X159001250Y-194199375D02*
X157715000Y-192913125D01*
X157715000Y-187099375D02*
X157715000Y-186353050D01*
X153035000Y-123235000D02*
X153035000Y-138430000D01*
D53*
X136330163Y-112985023D02*
X134545070Y-111199930D01*
D50*
X146050000Y-182880000D02*
X146050000Y-163293000D01*
X153035000Y-138430000D02*
X157196000Y-142591000D01*
G04 #@! TO.N,HIGH_SIDE_ANDOUT*
X175300000Y-137000000D02*
X171067000Y-137000000D01*
X171067000Y-137000000D02*
X166752000Y-132685000D01*
X127635000Y-109855000D02*
X128240028Y-109249972D01*
X128240028Y-109249972D02*
X132302250Y-109249972D01*
G04 #@! TD*
M02*
